<?xml version="1.0" standalone="no"?>
 <!DOCTYPE svg PUBLIC "-//W3C//DTD SVG 1.1//EN" 
 "http://www.w3.org/Graphics/SVG/1.1/DTD/svg11.dtd"> 
<svg
  xmlns:svg="http://www.w3.org/2000/svg"
  xmlns="http://www.w3.org/2000/svg"
  xmlns:xlink="http://www.w3.org/1999/xlink"
  xmlns:inkscape="http://www.inkscape.org/namespaces/inkscape"
  version="1.1"
  width="149.9870mm" height="74.9808mm" viewBox="0.0000 0.0000 149.9870 74.9808">
<title>SVG Image created as HomeKey-Lock-RevA-PN7161-Edge_Cuts.svg date 2026-09-01T05:47:40 </title>
  <desc>Image generated by PCBNEW </desc>
<g style="fill:#000000; fill-opacity:1.0000;stroke:#000000; stroke-opacity:1.0000;
stroke-linecap:round; stroke-linejoin:round;"
 transform="translate(0 0) scale(1 1)">
</g>
<g style="fill:none; 
stroke:#D0D2CD; stroke-width:0.1000; stroke-opacity:1; 
stroke-linecap:round; stroke-linejoin:round;">
<path d="M0.0000 0.0000
L150.0000 0.0000
" />
<path d="M150.0000 0.0000
L150.0000 75.0000
" />
<path d="M150.0000 75.0000
L0.0000 75.0000
" />
<path d="M0.0000 75.0000
L0.0000 0.0000
" />
</g>
<g style="fill:#000000; fill-opacity:1.0000; stroke:none;">
<circle cx="87.5000" cy="69.0000" r="0.7600" /> 
<circle cx="92.5800" cy="69.0000" r="0.7600" /> 
</g>
<g style="fill:none; 
stroke:#000000; stroke-width:0.8000; stroke-opacity:1; 
stroke-linecap:round; stroke-linejoin:round;">
<path d="M129.6700 3.0300
L129.6700 2.6300
" />
<path d="M129.6700 7.3600
L129.6700 6.6600
" />
<path d="M138.3300 7.3600
L138.3300 6.6600
" />
<path d="M138.3300 3.0300
L138.3300 2.6300
" />
</g>
<g style="fill:#000000; fill-opacity:1.0000; stroke:none;">
<circle cx="136.9000" cy="6.5100" r="0.3000" /> 
<circle cx="131.1000" cy="6.5100" r="0.3000" /> 
<circle cx="58.5000" cy="50.5000" r="0.5000" /> 
<circle cx="61.0400" cy="50.5000" r="0.5000" /> 
<circle cx="42.2000" cy="55.4000" r="0.2500" /> 
<circle cx="48.0000" cy="40.0000" r="0.2500" /> 
<circle cx="143.0000" cy="44.0000" r="0.5000" /> 
<circle cx="145.5400" cy="44.0000" r="0.5000" /> 
<circle cx="148.0800" cy="44.0000" r="0.5000" /> 
<circle cx="4.0000" cy="4.0000" r="1.6000" /> 
<circle cx="146.0000" cy="4.0000" r="1.6000" /> 
<circle cx="4.0000" cy="71.0000" r="1.6000" /> 
<circle cx="146.0000" cy="71.0000" r="1.6000" /> 
</g> 
</svg>
