M48
; DRILL file KiCad 10.0.6-10.0.6~ubuntu24.04.1 date 2026-09-01T05:47:21
; FORMAT={-:-/ absolute / metric / decimal}
; #@! TF.CreationDate,2026-09-01T05:47:21+00:00
; #@! TF.GenerationSoftware,Kicad,Pcbnew,10.0.6-10.0.6~ubuntu24.04.1
; #@! TF.FileFunction,Plated,1,4,PTH
FMAT,2
METRIC
; #@! TA.AperFunction,Plated,PTH,ViaDrill
T1C0.200
; #@! TA.AperFunction,Plated,PTH,ViaDrill
T2C0.300
; #@! TA.AperFunction,Plated,PTH,ViaDrill
T3C0.400
; #@! TA.AperFunction,Plated,PTH,ComponentDrill
T4C0.500
; #@! TA.AperFunction,Plated,PTH,ComponentDrill
T5C0.800
; #@! TA.AperFunction,Plated,PTH,ComponentDrill
T6C1.000
; #@! TA.AperFunction,Plated,PTH,ComponentDrill
T7C1.520
%
G90
G05
T1
X57.0Y-27.875
X57.0Y-43.875
X60.25Y-29.375
X60.25Y-42.375
X63.0Y-29.375
X63.0Y-42.375
X68.375Y-38.25
X71.5Y-25.375
X72.5Y-36.25
X74.25Y-35.75
X74.25Y-38.75
X74.375Y-40.0
X75.0Y-25.375
X75.0Y-28.625
X76.0Y-50.375
X76.125Y-30.5
X76.125Y-31.375
X76.75Y-29.25
X76.75Y-42.0
X77.25Y-30.5
X77.25Y-46.625
X77.625Y-42.0
X77.75Y-24.0
X78.25Y-29.0
X78.75Y-25.0
X79.125Y-41.375
X79.25Y-29.25
X79.625Y-43.75
X79.75Y-23.0
X79.75Y-43.0
X80.375Y-24.375
X80.375Y-29.875
X80.75Y-25.0
X80.75Y-49.375
X81.375Y-32.125
X82.0Y-50.375
X82.125Y-23.0
X82.375Y-31.375
X82.625Y-28.75
X82.75Y-39.75
X83.5Y-30.375
X83.625Y-33.625
X83.625Y-39.75
X83.875Y-25.625
X84.0Y-34.875
X84.0Y-40.375
X84.0Y-43.625
X84.0Y-44.375
X84.0Y-47.625
X84.5Y-34.375
X85.25Y-34.625
X85.25Y-37.875
X86.0Y-22.75
X86.0Y-30.375
X86.0Y-33.625
X87.0Y-40.375
X87.0Y-44.375
X87.0Y-57.75
X87.5Y-28.125
X87.75Y-35.375
X88.0Y-26.75
X88.5Y-25.25
X88.5Y-30.375
X89.5Y-25.375
X89.5Y-28.625
X90.0Y-44.375
X90.0Y-57.75
X90.5Y-10.5
X90.875Y-11.25
X91.0Y-17.75
X91.25Y-26.0
X91.375Y-9.625
X92.25Y-6.0
X92.25Y-7.875
X92.375Y-7.0
X92.375Y-13.0
X92.5Y-16.75
X92.625Y-15.75
X92.625Y-24.0
X93.5Y-6.0
X94.0Y-18.375
X94.0Y-20.125
X94.0Y-33.25
X94.0Y-37.75
X94.0Y-51.25
X94.125Y-16.875
X94.25Y-6.25
X94.875Y-16.875
X95.0Y-6.125
X95.75Y-16.875
X95.875Y-6.0
X96.0Y-34.0
X96.25Y-9.5
X96.5Y-11.875
X96.625Y-6.125
X96.625Y-25.0
X96.75Y-13.875
X97.5Y-6.0
X98.125Y-16.875
X98.5Y-55.375
X99.0Y-10.0
X99.0Y-12.0
X99.0Y-14.0
X99.0Y-16.875
X99.25Y-37.0
X99.75Y-6.0
X100.0Y-29.75
X100.0Y-37.5
X100.5Y-6.0
X100.625Y-25.0
X101.125Y-19.5
X101.25Y-13.875
X101.375Y-6.125
X101.5Y-11.875
X101.5Y-33.625
X101.5Y-51.625
X101.75Y-9.5
X102.125Y-6.0
X103.0Y-6.125
X103.5Y-58.875
X103.625Y-21.0
X103.75Y-6.25
X104.5Y-6.0
X104.75Y-54.75
X105.5Y-16.75
X105.5Y-19.875
X105.75Y-6.0
X106.0Y-29.75
X108.625Y-13.75
X108.625Y-15.75
X108.625Y-17.5
X108.625Y-23.75
X109.0Y-13.0
X109.375Y-62.5
X109.5Y-64.0
X109.625Y-11.875
X109.75Y-13.875
X109.75Y-15.125
X109.75Y-18.375
X110.375Y-67.25
X111.0Y-13.75
X111.0Y-14.5
X111.0Y-19.875
X111.0Y-21.75
X112.5Y-45.5
X112.875Y-59.0
X114.25Y-35.5
X114.25Y-53.5
X114.375Y-14.0
X114.625Y-66.0
X116.0Y-9.5
X116.0Y-31.75
X116.0Y-48.75
X116.0Y-53.25
X116.125Y-59.0
X116.25Y-14.0
X117.0Y-11.25
X117.375Y-23.75
X117.625Y-14.0
X118.125Y-19.875
X119.0Y-18.625
X119.0Y-34.75
X119.0Y-53.25
X119.0Y-57.75
X119.625Y-23.75
X119.75Y-20.25
X119.875Y-11.0
X121.75Y-9.0
X122.0Y-46.75
X122.375Y-37.0
X123.375Y-21.125
X123.5Y-45.5
X124.0Y-9.625
X124.0Y-52.25
X124.125Y-11.0
X124.5Y-42.375
X125.625Y-37.0
X126.0Y-49.125
X126.5Y-50.5
X126.875Y-43.625
X126.875Y-46.875
X128.375Y-23.75
X129.625Y-37.0
X130.125Y-8.25
X130.125Y-51.625
X130.125Y-52.5
X131.625Y-8.625
X131.625Y-23.75
X132.0Y-15.875
X133.0Y-9.25
X134.375Y-33.0
X136.375Y-8.625
X137.625Y-33.0
X137.875Y-8.25
X140.0Y-10.375
X140.125Y-65.0
X140.375Y-23.75
X141.0Y-31.375
X141.0Y-34.625
X143.0Y-10.375
X143.0Y-51.25
X145.0Y-15.875
X145.0Y-19.125
X145.0Y-22.625
X145.625Y-19.625
X146.0Y-54.75
T2
X77.7Y-36.7
X77.7Y-38.3
X79.3Y-36.7
X79.3Y-38.3
X82.0Y-22.0
X90.0Y-23.0
X92.5Y-52.0
X102.216Y-18.439
X110.0Y-62.0
X123.0Y-43.0
X123.0Y-48.5
T3
X100.0Y-56.5
X101.0Y-56.5
X106.5Y-72.5
X107.5Y-72.5
X113.0Y-64.5
X114.0Y-64.5
X128.5Y-49.75
X128.5Y-53.0
X140.0Y-64.0
X140.0Y-66.0
X144.0Y-52.0
X145.0Y-55.5
T4
X42.2Y-55.4
X48.0Y-40.0
T6
X58.5Y-50.5
X61.04Y-50.5
X143.0Y-44.0
X145.54Y-44.0
X148.08Y-44.0
T7
X87.5Y-69.0
X92.58Y-69.0
T5
G00X129.67Y-3.03
M15
G01X129.67Y-2.63
M16
G05
G00X129.67Y-7.36
M15
G01X129.67Y-6.66
M16
G05
G00X138.33Y-3.03
M15
G01X138.33Y-2.63
M16
G05
G00X138.33Y-7.36
M15
G01X138.33Y-6.66
M16
G05
M30
