%TF.GenerationSoftware,KiCad,Pcbnew,10.0.6-10.0.6~ubuntu24.04.1*%
%TF.CreationDate,2026-09-01T04:04:08+00:00*%
%TF.ProjectId,HomeKey-Lock-RevA-PN7161,486f6d65-4b65-4792-9d4c-6f636b2d5265,A*%
%TF.SameCoordinates,Original*%
%TF.FileFunction,Soldermask,Top*%
%TF.FilePolarity,Negative*%
%FSLAX46Y46*%
G04 Gerber Fmt 4.6, Leading zero omitted, Abs format (unit mm)*
G04 Created by KiCad (PCBNEW 10.0.6-10.0.6~ubuntu24.04.1) date 2026-09-01 04:04:08*
%MOMM*%
%LPD*%
G01*
G04 APERTURE LIST*
G04 Aperture macros list*
%AMRoundRect*
0 Rectangle with rounded corners*
0 $1 Rounding radius*
0 $2 $3 $4 $5 $6 $7 $8 $9 X,Y pos of 4 corners*
0 Add a 4 corners polygon primitive as box body*
4,1,4,$2,$3,$4,$5,$6,$7,$8,$9,$2,$3,0*
0 Add four circle primitives for the rounded corners*
1,1,$1+$1,$2,$3*
1,1,$1+$1,$4,$5*
1,1,$1+$1,$6,$7*
1,1,$1+$1,$8,$9*
0 Add four rect primitives between the rounded corners*
20,1,$1+$1,$2,$3,$4,$5,0*
20,1,$1+$1,$4,$5,$6,$7,0*
20,1,$1+$1,$6,$7,$8,$9,0*
20,1,$1+$1,$8,$9,$2,$3,0*%
%AMFreePoly0*
4,1,17,0.335278,0.685443,0.349923,0.650088,0.349923,-0.649935,0.335278,-0.685290,0.299923,-0.699935,0.000318,-0.699935,-0.000051,-0.700088,-0.300050,-0.700088,-0.335405,-0.685443,-0.350050,-0.650088,-0.350050,0.649935,-0.335405,0.685290,-0.300050,0.699935,-0.000445,0.699935,-0.000076,0.700088,0.299923,0.700088,0.335278,0.685443,0.335278,0.685443,$1*%
%AMFreePoly1*
4,1,13,0.335227,0.685443,0.349872,0.650088,0.349872,-0.649884,0.335227,-0.685239,0.299872,-0.699884,-0.300152,-0.699884,-0.335507,-0.685239,-0.350152,-0.649884,-0.350152,0.650088,-0.335507,0.685443,-0.300152,0.700088,0.299872,0.700088,0.335227,0.685443,0.335227,0.685443,$1*%
%AMFreePoly2*
4,1,17,0.335431,0.685290,0.350076,0.649935,0.350076,-0.650037,0.335431,-0.685392,0.300076,-0.700037,0.000187,-0.700037,0.000127,-0.700062,-0.299898,-0.700062,-0.335253,-0.685417,-0.349898,-0.650062,-0.349898,0.649910,-0.335253,0.685265,-0.299898,0.699910,-0.000009,0.699910,0.000051,0.699935,0.300076,0.699935,0.335431,0.685290,0.335431,0.685290,$1*%
%AMFreePoly3*
4,1,6,0.725000,-0.725000,-0.725000,-0.725000,-0.725000,0.125000,-0.125000,0.725000,0.725000,0.725000,0.725000,-0.725000,0.725000,-0.725000,$1*%
G04 Aperture macros list end*
%ADD10R,3.000000X3.000000*%
%ADD11C,3.000000*%
%ADD12R,1.407000X3.499000*%
%ADD13R,2.192000X2.047000*%
%ADD14O,0.588000X1.800000*%
%ADD15RoundRect,0.200000X-0.200000X-0.275000X0.200000X-0.275000X0.200000X0.275000X-0.200000X0.275000X0*%
%ADD16R,1.300000X1.300000*%
%ADD17RoundRect,0.250000X1.100000X-0.325000X1.100000X0.325000X-1.100000X0.325000X-1.100000X-0.325000X0*%
%ADD18RoundRect,0.225000X-0.225000X-0.250000X0.225000X-0.250000X0.225000X0.250000X-0.225000X0.250000X0*%
%ADD19R,0.550000X1.200000*%
%ADD20RoundRect,0.250000X0.650000X-0.325000X0.650000X0.325000X-0.650000X0.325000X-0.650000X-0.325000X0*%
%ADD21R,2.350000X3.500000*%
%ADD22R,1.200000X0.950000*%
%ADD23R,0.300000X1.300000*%
%ADD24FreePoly0,180.000000*%
%ADD25FreePoly1,180.000000*%
%ADD26FreePoly2,180.000000*%
%ADD27O,1.200000X1.800000*%
%ADD28O,1.200000X2.000000*%
%ADD29C,0.600000*%
%ADD30RoundRect,0.200000X0.275000X-0.200000X0.275000X0.200000X-0.275000X0.200000X-0.275000X-0.200000X0*%
%ADD31R,1.100000X0.600000*%
%ADD32R,0.550000X1.100000*%
%ADD33R,0.800000X0.400000*%
%ADD34R,0.400000X0.800000*%
%ADD35FreePoly3,0.000000*%
%ADD36R,1.450000X1.450000*%
%ADD37R,0.700000X0.700000*%
%ADD38RoundRect,0.225000X0.250000X-0.225000X0.250000X0.225000X-0.250000X0.225000X-0.250000X-0.225000X0*%
%ADD39R,1.600000X1.400000*%
%ADD40RoundRect,0.218750X-0.256250X0.218750X-0.256250X-0.218750X0.256250X-0.218750X0.256250X0.218750X0*%
%ADD41R,0.290000X0.900000*%
%ADD42R,0.900000X0.290000*%
%ADD43R,4.100000X4.100000*%
%ADD44R,1.400000X1.200000*%
%ADD45RoundRect,0.225000X0.225000X0.250000X-0.225000X0.250000X-0.225000X-0.250000X0.225000X-0.250000X0*%
%ADD46RoundRect,0.218750X0.218750X0.256250X-0.218750X0.256250X-0.218750X-0.256250X0.218750X-0.256250X0*%
%ADD47RoundRect,0.200000X0.200000X0.275000X-0.200000X0.275000X-0.200000X-0.275000X0.200000X-0.275000X0*%
%ADD48R,1.700000X1.700000*%
%ADD49O,1.700000X1.700000*%
%ADD50R,1.200000X1.200000*%
%ADD51C,1.200000*%
%ADD52R,4.200000X1.400000*%
%ADD53C,1.000000*%
%ADD54C,3.200000*%
G04 APERTURE END LIST*
D10*
%TO.C,J1*%
X87500000Y-69000000D03*
D11*
X92580000Y-69000000D03*
%TD*%
D12*
%TO.C,F1*%
X99350000Y-62000000D03*
X95650000Y-62000000D03*
%TD*%
D13*
%TO.C,D1*%
X103500000Y-59640000D03*
X103500000Y-64360000D03*
%TD*%
D14*
%TO.C,Q1*%
X109900000Y-65400000D03*
X108630000Y-65400000D03*
X107370000Y-65400000D03*
X106100000Y-65400000D03*
X109900000Y-70600000D03*
X108630000Y-70600000D03*
X107370000Y-70600000D03*
X106100000Y-70600000D03*
%TD*%
D15*
%TO.C,R1*%
X113675000Y-59000000D03*
X115325000Y-59000000D03*
%TD*%
D16*
%TO.C,D2*%
X110000000Y-60300000D03*
X110000000Y-63700000D03*
%TD*%
D17*
%TO.C,C1*%
X114000000Y-69475000D03*
X114000000Y-66525000D03*
%TD*%
D18*
%TO.C,C2*%
X102425000Y-54700000D03*
X103975000Y-54700000D03*
%TD*%
D19*
%TO.C,U1*%
X99050000Y-52300000D03*
X100950000Y-52300000D03*
X100950000Y-54700000D03*
X100000000Y-54700000D03*
X99050000Y-54700000D03*
X100000000Y-52300000D03*
%TD*%
D20*
%TO.C,C3*%
X94000000Y-54975000D03*
X94000000Y-52025000D03*
%TD*%
D18*
%TO.C,C4*%
X104225000Y-49000000D03*
X105775000Y-49000000D03*
%TD*%
D21*
%TO.C,L1*%
X107600000Y-53500000D03*
X113400000Y-53500000D03*
%TD*%
D20*
%TO.C,C5*%
X116000000Y-52475000D03*
X116000000Y-49525000D03*
%TD*%
%TO.C,C6*%
X119000000Y-56975000D03*
X119000000Y-54025000D03*
%TD*%
D22*
%TO.C,D3*%
X122700000Y-45500000D03*
X119300000Y-45500000D03*
%TD*%
D23*
%TO.C,J2*%
X135750000Y-7770000D03*
X135250000Y-7770000D03*
X134750000Y-7770000D03*
X134250000Y-7770000D03*
X133750000Y-7770000D03*
X133250000Y-7770000D03*
X132750000Y-7770000D03*
X132250000Y-7770000D03*
D24*
X137200000Y-7770000D03*
D25*
X130800000Y-7770000D03*
X131600000Y-7770000D03*
D26*
X136400000Y-7770000D03*
D27*
X129670000Y-2830000D03*
D28*
X129670000Y-7010000D03*
X138330000Y-7010000D03*
D27*
X138330000Y-2830000D03*
D29*
X136900000Y-6510000D03*
X131100000Y-6510000D03*
%TD*%
D30*
%TO.C,R2*%
X140000000Y-12825000D03*
X140000000Y-11175000D03*
%TD*%
%TO.C,R3*%
X143000000Y-12825000D03*
X143000000Y-11175000D03*
%TD*%
D31*
%TO.C,U2*%
X123350000Y-10050000D03*
X123350000Y-11000000D03*
X123350000Y-11950000D03*
X120650000Y-11950000D03*
X120650000Y-11000000D03*
X120650000Y-10050000D03*
%TD*%
D15*
%TO.C,R4*%
X115175000Y-9500000D03*
X116825000Y-9500000D03*
%TD*%
%TO.C,R5*%
X115175000Y-14000000D03*
X116825000Y-14000000D03*
%TD*%
D22*
%TO.C,D4*%
X123700000Y-28500000D03*
X120300000Y-28500000D03*
%TD*%
D32*
%TO.C,U3*%
X99050000Y-34300000D03*
X100000000Y-34300000D03*
X100950000Y-34300000D03*
X100950000Y-36700000D03*
X100000000Y-36700000D03*
X99050000Y-36700000D03*
%TD*%
D20*
%TO.C,C7*%
X94000000Y-36975000D03*
X94000000Y-34025000D03*
%TD*%
D18*
%TO.C,C8*%
X98725000Y-31500000D03*
X100275000Y-31500000D03*
%TD*%
D21*
%TO.C,L2*%
X107600000Y-35500000D03*
X113400000Y-35500000D03*
%TD*%
D20*
%TO.C,C9*%
X116000000Y-35475000D03*
X116000000Y-32525000D03*
%TD*%
%TO.C,C10*%
X119000000Y-38475000D03*
X119000000Y-35525000D03*
%TD*%
D33*
%TO.C,U4*%
X93100000Y-7200000D03*
X93100000Y-8000000D03*
X93100000Y-8800000D03*
X93100000Y-9600000D03*
X93100000Y-10400000D03*
X93100000Y-11200000D03*
X93100000Y-12000000D03*
X93100000Y-12800000D03*
X93100000Y-13600000D03*
X93100000Y-14400000D03*
X93100000Y-15200000D03*
D34*
X94200000Y-16100000D03*
X95000000Y-16100000D03*
X95800000Y-16100000D03*
X96600000Y-16100000D03*
X97400000Y-16100000D03*
X98200000Y-16100000D03*
X99000000Y-16100000D03*
X99800000Y-16100000D03*
X100600000Y-16100000D03*
X101400000Y-16100000D03*
X102200000Y-16100000D03*
X103000000Y-16100000D03*
X103800000Y-16100000D03*
D33*
X104900000Y-15200000D03*
X104900000Y-14400000D03*
X104900000Y-13600000D03*
X104900000Y-12800000D03*
X104900000Y-12000000D03*
X104900000Y-11200000D03*
X104900000Y-10400000D03*
X104900000Y-9600000D03*
X104900000Y-8800000D03*
X104900000Y-8000000D03*
X104900000Y-7200000D03*
D34*
X103800000Y-6300000D03*
X103000000Y-6300000D03*
X102200000Y-6300000D03*
X101400000Y-6300000D03*
X100600000Y-6300000D03*
X99800000Y-6300000D03*
X99000000Y-6300000D03*
X98200000Y-6300000D03*
X97400000Y-6300000D03*
X96600000Y-6300000D03*
X95800000Y-6300000D03*
X95000000Y-6300000D03*
X94200000Y-6300000D03*
D35*
X97025000Y-9225000D03*
D36*
X97025000Y-11200000D03*
X97025000Y-13175000D03*
X99000000Y-9225000D03*
X99000000Y-11200000D03*
X99000000Y-13175000D03*
X100975000Y-9225000D03*
X100975000Y-11200000D03*
X100975000Y-13175000D03*
D37*
X104950000Y-6250000D03*
X104950000Y-16150000D03*
X93050000Y-16150000D03*
X93050000Y-6250000D03*
%TD*%
D20*
%TO.C,C11*%
X91000000Y-21475000D03*
X91000000Y-18525000D03*
%TD*%
D38*
%TO.C,C12*%
X94000000Y-20775000D03*
X94000000Y-19225000D03*
%TD*%
D15*
%TO.C,R6*%
X101175000Y-21000000D03*
X102825000Y-21000000D03*
%TD*%
D38*
%TO.C,C13*%
X105500000Y-22275000D03*
X105500000Y-20725000D03*
%TD*%
D39*
%TO.C,SW1*%
X116600000Y-20500000D03*
X109400000Y-20500000D03*
X116600000Y-23500000D03*
X109400000Y-23500000D03*
%TD*%
D30*
%TO.C,R7*%
X120000000Y-18325000D03*
X120000000Y-16675000D03*
%TD*%
D39*
%TO.C,SW2*%
X127600000Y-20500000D03*
X120400000Y-20500000D03*
X127600000Y-23500000D03*
X120400000Y-23500000D03*
%TD*%
D30*
%TO.C,R8*%
X132000000Y-18325000D03*
X132000000Y-16675000D03*
%TD*%
D39*
%TO.C,SW3*%
X139600000Y-20500000D03*
X132400000Y-20500000D03*
X139600000Y-23500000D03*
X132400000Y-23500000D03*
%TD*%
D40*
%TO.C,D5*%
X145000000Y-20212500D03*
X145000000Y-21787500D03*
%TD*%
D30*
%TO.C,R9*%
X145000000Y-18325000D03*
X145000000Y-16675000D03*
%TD*%
D15*
%TO.C,R10*%
X90175000Y-24000000D03*
X91825000Y-24000000D03*
%TD*%
%TO.C,R11*%
X94175000Y-25000000D03*
X95825000Y-25000000D03*
%TD*%
D18*
%TO.C,C14*%
X98225000Y-25000000D03*
X99775000Y-25000000D03*
%TD*%
D41*
%TO.C,U5*%
X80750000Y-34450000D03*
X80250000Y-34450000D03*
X79750000Y-34450000D03*
X79250000Y-34450000D03*
X78750000Y-34450000D03*
X78250000Y-34450000D03*
X77750000Y-34450000D03*
X77250000Y-34450000D03*
X76750000Y-34450000D03*
X76250000Y-34450000D03*
D42*
X75450000Y-35250000D03*
X75450000Y-35750000D03*
X75450000Y-36250000D03*
X75450000Y-36750000D03*
X75450000Y-37250000D03*
X75450000Y-37750000D03*
X75450000Y-38250000D03*
X75450000Y-38750000D03*
X75450000Y-39250000D03*
X75450000Y-39750000D03*
D41*
X76250000Y-40550000D03*
X76750000Y-40550000D03*
X77250000Y-40550000D03*
X77750000Y-40550000D03*
X78250000Y-40550000D03*
X78750000Y-40550000D03*
X79250000Y-40550000D03*
X79750000Y-40550000D03*
X80250000Y-40550000D03*
X80750000Y-40550000D03*
D42*
X81550000Y-39750000D03*
X81550000Y-39250000D03*
X81550000Y-38750000D03*
X81550000Y-38250000D03*
X81550000Y-37750000D03*
X81550000Y-37250000D03*
X81550000Y-36750000D03*
X81550000Y-36250000D03*
X81550000Y-35750000D03*
X81550000Y-35250000D03*
D43*
X78500000Y-37500000D03*
%TD*%
D44*
%TO.C,X1*%
X77900000Y-48850000D03*
X80100000Y-48850000D03*
X80100000Y-47150000D03*
X77900000Y-47150000D03*
%TD*%
D38*
%TO.C,C15*%
X76000000Y-52775000D03*
X76000000Y-51225000D03*
%TD*%
%TO.C,C16*%
X82000000Y-52775000D03*
X82000000Y-51225000D03*
%TD*%
D30*
%TO.C,R12*%
X75000000Y-27825000D03*
X75000000Y-26175000D03*
%TD*%
%TO.C,R13*%
X71500000Y-27825000D03*
X71500000Y-26175000D03*
%TD*%
%TO.C,R14*%
X82000000Y-27825000D03*
X82000000Y-26175000D03*
%TD*%
%TO.C,R15*%
X84500000Y-27825000D03*
X84500000Y-26175000D03*
%TD*%
%TO.C,R16*%
X89500000Y-27825000D03*
X89500000Y-26175000D03*
%TD*%
%TO.C,R17*%
X87000000Y-27825000D03*
X87000000Y-26175000D03*
%TD*%
D38*
%TO.C,C17*%
X83500000Y-32775000D03*
X83500000Y-31225000D03*
%TD*%
%TO.C,C18*%
X86000000Y-32775000D03*
X86000000Y-31225000D03*
%TD*%
%TO.C,C19*%
X84000000Y-37275000D03*
X84000000Y-35725000D03*
%TD*%
%TO.C,C20*%
X88500000Y-32775000D03*
X88500000Y-31225000D03*
%TD*%
%TO.C,C21*%
X84000000Y-42775000D03*
X84000000Y-41225000D03*
%TD*%
%TO.C,C22*%
X87000000Y-42775000D03*
X87000000Y-41225000D03*
%TD*%
%TO.C,C23*%
X84000000Y-46775000D03*
X84000000Y-45225000D03*
%TD*%
%TO.C,C24*%
X87000000Y-46775000D03*
X87000000Y-45225000D03*
%TD*%
%TO.C,C25*%
X90000000Y-46775000D03*
X90000000Y-45225000D03*
%TD*%
D45*
%TO.C,C26*%
X70775000Y-38250000D03*
X69225000Y-38250000D03*
%TD*%
D46*
%TO.C,L3*%
X67287500Y-40000000D03*
X65712500Y-40000000D03*
%TD*%
%TO.C,L4*%
X67287500Y-35000000D03*
X65712500Y-35000000D03*
%TD*%
D38*
%TO.C,C27*%
X63000000Y-44775000D03*
X63000000Y-43225000D03*
%TD*%
%TO.C,C28*%
X63000000Y-31775000D03*
X63000000Y-30225000D03*
%TD*%
D45*
%TO.C,C29*%
X58475000Y-40000000D03*
X56925000Y-40000000D03*
%TD*%
%TO.C,C30*%
X58475000Y-35000000D03*
X56925000Y-35000000D03*
%TD*%
D38*
%TO.C,C31*%
X60200000Y-44775000D03*
X60200000Y-43225000D03*
%TD*%
%TO.C,C32*%
X60200000Y-31775000D03*
X60200000Y-30225000D03*
%TD*%
D45*
%TO.C,C33*%
X58475000Y-42500000D03*
X56925000Y-42500000D03*
%TD*%
%TO.C,C34*%
X58475000Y-32500000D03*
X56925000Y-32500000D03*
%TD*%
D38*
%TO.C,C35*%
X57000000Y-46275000D03*
X57000000Y-44725000D03*
%TD*%
%TO.C,C36*%
X57000000Y-30275000D03*
X57000000Y-28725000D03*
%TD*%
D45*
%TO.C,C37*%
X73875000Y-44000000D03*
X72325000Y-44000000D03*
%TD*%
%TO.C,C38*%
X73875000Y-31000000D03*
X72325000Y-31000000D03*
%TD*%
D47*
%TO.C,R18*%
X55025000Y-40000000D03*
X53375000Y-40000000D03*
%TD*%
%TO.C,R19*%
X55025000Y-35000000D03*
X53375000Y-35000000D03*
%TD*%
%TO.C,R20*%
X70525000Y-44000000D03*
X68875000Y-44000000D03*
%TD*%
%TO.C,R21*%
X70525000Y-31000000D03*
X68875000Y-31000000D03*
%TD*%
%TO.C,R22*%
X51525000Y-40000000D03*
X49875000Y-40000000D03*
%TD*%
%TO.C,R23*%
X51525000Y-35000000D03*
X49875000Y-35000000D03*
%TD*%
D15*
%TO.C,R24*%
X50675000Y-52000000D03*
X52325000Y-52000000D03*
%TD*%
%TO.C,R25*%
X50675000Y-49000000D03*
X52325000Y-49000000D03*
%TD*%
D48*
%TO.C,J3*%
X58500000Y-50500000D03*
D49*
X61040000Y-50500000D03*
%TD*%
D50*
%TO.C,AE1*%
X48000000Y-35000000D03*
D51*
X42200000Y-55400000D03*
X48000000Y-40000000D03*
%TD*%
D31*
%TO.C,U6*%
X129350000Y-49550000D03*
X129350000Y-50500000D03*
X129350000Y-51450000D03*
X126650000Y-51450000D03*
X126650000Y-50500000D03*
X126650000Y-49550000D03*
%TD*%
D20*
%TO.C,C39*%
X122000000Y-50475000D03*
X122000000Y-47525000D03*
%TD*%
D38*
%TO.C,C40*%
X124500000Y-44775000D03*
X124500000Y-43225000D03*
%TD*%
D15*
%TO.C,R26*%
X123175000Y-37000000D03*
X124825000Y-37000000D03*
%TD*%
%TO.C,R27*%
X127175000Y-37000000D03*
X128825000Y-37000000D03*
%TD*%
D18*
%TO.C,C41*%
X131225000Y-45500000D03*
X132775000Y-45500000D03*
%TD*%
D21*
%TO.C,L5*%
X134100000Y-50500000D03*
X139900000Y-50500000D03*
%TD*%
D30*
%TO.C,R28*%
X137000000Y-42825000D03*
X137000000Y-41175000D03*
%TD*%
%TO.C,R29*%
X143000000Y-37825000D03*
X143000000Y-36175000D03*
%TD*%
D20*
%TO.C,C42*%
X143000000Y-54975000D03*
X143000000Y-52025000D03*
%TD*%
%TO.C,C43*%
X146000000Y-58475000D03*
X146000000Y-55525000D03*
%TD*%
D52*
%TO.C,C44*%
X132730000Y-65000000D03*
X139270000Y-65000000D03*
%TD*%
D18*
%TO.C,C45*%
X138225000Y-38000000D03*
X139775000Y-38000000D03*
%TD*%
D15*
%TO.C,R30*%
X135175000Y-33000000D03*
X136825000Y-33000000D03*
%TD*%
D30*
%TO.C,R31*%
X141000000Y-33825000D03*
X141000000Y-32175000D03*
%TD*%
D12*
%TO.C,F2*%
X128350000Y-69000000D03*
X124650000Y-69000000D03*
%TD*%
D48*
%TO.C,J4*%
X143000000Y-44000000D03*
D49*
X145540000Y-44000000D03*
X148080000Y-44000000D03*
%TD*%
D53*
%TO.C,TP1*%
X83000000Y-22000000D03*
%TD*%
%TO.C,TP2*%
X86000000Y-22000000D03*
%TD*%
%TO.C,TP3*%
X88000000Y-24000000D03*
%TD*%
%TO.C,TP4*%
X92000000Y-29000000D03*
%TD*%
%TO.C,TP5*%
X96000000Y-29000000D03*
%TD*%
%TO.C,TP6*%
X100000000Y-29000000D03*
%TD*%
%TO.C,TP7*%
X84000000Y-57000000D03*
%TD*%
%TO.C,TP8*%
X87000000Y-57000000D03*
%TD*%
%TO.C,TP9*%
X90000000Y-57000000D03*
%TD*%
%TO.C,TP10*%
X103000000Y-29000000D03*
%TD*%
%TO.C,TP11*%
X106000000Y-29000000D03*
%TD*%
%TO.C,TP12*%
X96500000Y-23000000D03*
%TD*%
D54*
%TO.C,H1*%
X4000000Y-4000000D03*
%TD*%
%TO.C,H2*%
X146000000Y-4000000D03*
%TD*%
%TO.C,H3*%
X4000000Y-71000000D03*
%TD*%
%TO.C,H4*%
X146000000Y-71000000D03*
%TD*%
M02*
