%TF.GenerationSoftware,KiCad,Pcbnew,10.0.6-10.0.6~ubuntu24.04.1*%
%TF.CreationDate,2026-08-31T13:23:31+10:00*%
%TF.ProjectId,HomeKey-Lock-RevA-PN7161,486f6d65-4b65-4792-9d4c-6f636b2d5265,A*%
%TF.SameCoordinates,Original*%
%TF.FileFunction,Copper,L2,Inr*%
%TF.FilePolarity,Positive*%
%FSLAX46Y46*%
G04 Gerber Fmt 4.6, Leading zero omitted, Abs format (unit mm)*
G04 Created by KiCad (PCBNEW 10.0.6-10.0.6~ubuntu24.04.1) date 2026-08-31 13:23:31*
%MOMM*%
%LPD*%
G01*
G04 APERTURE LIST*
%TA.AperFunction,ComponentPad*%
%ADD10R,3.000000X3.000000*%
%TD*%
%TA.AperFunction,ComponentPad*%
%ADD11C,3.000000*%
%TD*%
%TA.AperFunction,ComponentPad*%
%ADD12O,1.200000X1.800000*%
%TD*%
%TA.AperFunction,ComponentPad*%
%ADD13O,1.200000X2.000000*%
%TD*%
%TA.AperFunction,ComponentPad*%
%ADD14R,1.700000X1.700000*%
%TD*%
%TA.AperFunction,ComponentPad*%
%ADD15O,1.700000X1.700000*%
%TD*%
%TA.AperFunction,ComponentPad*%
%ADD16C,1.200000*%
%TD*%
%TA.AperFunction,ViaPad*%
%ADD17C,0.800000*%
%TD*%
%TA.AperFunction,ViaPad*%
%ADD18C,0.600000*%
%TD*%
%TA.AperFunction,ViaPad*%
%ADD19C,0.500000*%
%TD*%
%TA.AperFunction,Conductor*%
%ADD20C,0.420000*%
%TD*%
%TA.AperFunction,Conductor*%
%ADD21C,0.300000*%
%TD*%
%TA.AperFunction,Conductor*%
%ADD22C,0.320000*%
%TD*%
%TA.AperFunction,Conductor*%
%ADD23C,0.350000*%
%TD*%
G04 APERTURE END LIST*
D10*
%TO.N,BAT_RAW*%
%TO.C,J1*%
X87500000Y-69000000D03*
D11*
%TO.N,GND*%
X92580000Y-69000000D03*
%TD*%
D12*
%TO.N,GND*%
%TO.C,J2*%
X129670000Y-2830000D03*
D13*
X129670000Y-7010000D03*
X138330000Y-7010000D03*
D12*
X138330000Y-2830000D03*
%TD*%
D14*
%TO.N,EXT_ANT_P*%
%TO.C,J3*%
X58500000Y-50500000D03*
D15*
%TO.N,EXT_ANT_N*%
X61040000Y-50500000D03*
%TD*%
D16*
%TO.N,ANT_P*%
%TO.C,AE1*%
X42200000Y-55400000D03*
X48000000Y-40000000D03*
%TD*%
D14*
%TO.N,GND*%
%TO.C,J4*%
X143000000Y-44000000D03*
D15*
%TO.N,SERVO_6V_OUT*%
X145540000Y-44000000D03*
%TO.N,SERVO_PWM_OUT*%
X148080000Y-44000000D03*
%TD*%
D17*
%TO.N,BAT_SYS*%
X106500000Y-72500000D03*
X107500000Y-72500000D03*
X113000000Y-64500000D03*
X114000000Y-64500000D03*
X100000000Y-56500000D03*
X101000000Y-56500000D03*
X127750000Y-49750000D03*
X128500000Y-49750000D03*
D18*
X110000000Y-62000000D03*
X92500000Y-52000000D03*
X123000000Y-48500000D03*
X123000000Y-43000000D03*
X90000000Y-23000000D03*
X82000000Y-22000000D03*
D19*
%TO.N,SERVO_PWM*%
X109000000Y-13000000D03*
X134375000Y-33000000D03*
%TO.N,5V_BAT*%
X98500000Y-55375000D03*
X114250000Y-53500000D03*
X116000000Y-53250000D03*
X119000000Y-57750000D03*
X123500000Y-45500000D03*
X86000000Y-22750000D03*
%TO.N,3V3*%
X78250000Y-29000000D03*
%TO.N,SYS_5V*%
X100000000Y-37500000D03*
X74250000Y-35750000D03*
X79750000Y-43000000D03*
X86000000Y-33625000D03*
X88500000Y-25250000D03*
%TO.N,PN_TVDD*%
X72500000Y-36250000D03*
X74250000Y-38750000D03*
X76750000Y-42000000D03*
%TO.N,USB_DM*%
X98125000Y-16875000D03*
%TO.N,USB_DP*%
X117625000Y-14000000D03*
X99000000Y-16875000D03*
%TO.N,PN_VEN*%
X94875000Y-16875000D03*
%TO.N,PN_IRQ*%
X94125000Y-16875000D03*
X77250000Y-30500000D03*
%TO.N,ESP_EN*%
X92375000Y-13000000D03*
%TO.N,PN_MISO_IC*%
X78750000Y-25000000D03*
%TO.N,PN_MOSI_IC*%
X79750000Y-23000000D03*
X89500000Y-25375000D03*
%TO.N,PN_SCK_IC*%
X77750000Y-24000000D03*
X83875000Y-25625000D03*
%TO.N,SERVO_FB*%
X126000000Y-49125000D03*
X137000000Y-40375000D03*
X143000000Y-38625000D03*
X140625000Y-38000000D03*
%TO.N,SERVO_PWM_OUT*%
X137625000Y-33000000D03*
X141000000Y-34625000D03*
%TO.N,LED_A*%
X145000000Y-22625000D03*
X145000000Y-15875000D03*
%TO.N,PN_MOSI*%
X111000000Y-14500000D03*
%TO.N,GND*%
X103500000Y-58875000D03*
X116125000Y-59000000D03*
X114625000Y-66000000D03*
X117125000Y-62750000D03*
X101500000Y-51625000D03*
X94000000Y-51250000D03*
X116000000Y-48750000D03*
X119000000Y-53250000D03*
X137875000Y-8250000D03*
X130125000Y-8250000D03*
X140000000Y-10375000D03*
X143000000Y-10375000D03*
X124125000Y-11000000D03*
X101500000Y-33625000D03*
X94000000Y-33250000D03*
X116000000Y-31750000D03*
X119000000Y-34750000D03*
X92375000Y-7000000D03*
X92250000Y-7875000D03*
X92625000Y-15750000D03*
X95750000Y-16875000D03*
X104500000Y-6000000D03*
X103750000Y-6250000D03*
X103000000Y-6125000D03*
X102125000Y-6000000D03*
X101375000Y-6125000D03*
X100500000Y-6000000D03*
X99750000Y-6000000D03*
X97500000Y-6000000D03*
X96625000Y-6125000D03*
X95875000Y-6000000D03*
X95000000Y-6125000D03*
X94250000Y-6250000D03*
X93500000Y-6000000D03*
X96250000Y-9500000D03*
X96500000Y-11875000D03*
X96750000Y-13875000D03*
X99000000Y-10000000D03*
X99000000Y-12000000D03*
X99000000Y-14000000D03*
X101750000Y-9500000D03*
X101500000Y-11875000D03*
X101250000Y-13875000D03*
X105750000Y-6000000D03*
X105500000Y-16750000D03*
X92500000Y-16750000D03*
X92250000Y-6000000D03*
X91000000Y-17750000D03*
X94000000Y-18375000D03*
X105500000Y-19875000D03*
X117375000Y-23750000D03*
X108625000Y-23750000D03*
X128375000Y-23750000D03*
X119625000Y-23750000D03*
X140375000Y-23750000D03*
X131625000Y-23750000D03*
X145625000Y-19625000D03*
X96625000Y-25000000D03*
X100625000Y-25000000D03*
X79250000Y-29250000D03*
X76750000Y-29250000D03*
X74375000Y-40000000D03*
D18*
X77700000Y-36700000D03*
X79300000Y-36700000D03*
X77700000Y-38300000D03*
X79300000Y-38300000D03*
D19*
X80750000Y-49375000D03*
X77250000Y-46625000D03*
X76000000Y-50375000D03*
X82000000Y-50375000D03*
X75000000Y-25375000D03*
X71500000Y-25375000D03*
X83500000Y-30375000D03*
X86000000Y-30375000D03*
X84000000Y-34875000D03*
X88500000Y-30375000D03*
X84000000Y-40375000D03*
X87000000Y-40375000D03*
X84000000Y-44375000D03*
X87000000Y-44375000D03*
X90000000Y-44375000D03*
X68375000Y-38250000D03*
X63000000Y-42375000D03*
X63000000Y-29375000D03*
X60250000Y-42375000D03*
X60250000Y-29375000D03*
X57000000Y-43875000D03*
X57000000Y-27875000D03*
X130000000Y-51875000D03*
X122000000Y-46750000D03*
X124500000Y-42375000D03*
X129625000Y-37000000D03*
X143000000Y-35375000D03*
X143000000Y-51250000D03*
X146000000Y-54750000D03*
X140125000Y-65000000D03*
X141000000Y-31375000D03*
X100000000Y-29750000D03*
D17*
X140000000Y-64000000D03*
X140000000Y-66000000D03*
X144000000Y-52000000D03*
X145000000Y-55500000D03*
X128500000Y-53000000D03*
D19*
%TO.N,3V3*%
X81375000Y-32125000D03*
X94000000Y-20125000D03*
X91375000Y-9625000D03*
%TO.N,SYS_5V*%
X119500000Y-28500000D03*
X118500000Y-39875000D03*
X101375000Y-39000000D03*
X94000000Y-37750000D03*
X87750000Y-35375000D03*
X83750000Y-33625000D03*
X88000000Y-26750000D03*
%TO.N,PN_VDD*%
X82750000Y-39750000D03*
X79125000Y-41375000D03*
X84000000Y-47625000D03*
X79625000Y-43750000D03*
%TO.N,PN_TVDD*%
X77625000Y-42000000D03*
X84000000Y-43625000D03*
%TO.N,USB_DP_CONN*%
X132875000Y-9125000D03*
X124000000Y-9625000D03*
X117000000Y-11250000D03*
X114375000Y-14000000D03*
%TO.N,USB_DM*%
X116000000Y-9500000D03*
%TO.N,USB_DP*%
X116250000Y-14000000D03*
X109625000Y-15125000D03*
%TO.N,PN_VEN*%
X76125000Y-30500000D03*
X87000000Y-57750000D03*
X76125000Y-31375000D03*
%TO.N,SERVICE_BTN*%
X132000000Y-15875000D03*
X90875000Y-11250000D03*
%TO.N,PN_DWL_REQ*%
X80375000Y-30000000D03*
X75000000Y-28625000D03*
X90000000Y-57750000D03*
X84500000Y-34375000D03*
%TO.N,PN_IRQ*%
X82375000Y-31375000D03*
X83625000Y-39750000D03*
%TO.N,BAT_ADC*%
X90500000Y-10625000D03*
X92625000Y-24000000D03*
%TO.N,ESP_EN*%
X103625000Y-21000000D03*
%TO.N,PN_MISO_IC*%
X80750000Y-25000000D03*
%TO.N,PN_MOSI_IC*%
X82125000Y-23000000D03*
%TO.N,PN_NSS_IC*%
X85250000Y-34625000D03*
X85250000Y-37875000D03*
%TO.N,PN_SCK_IC*%
X80375000Y-24375000D03*
%TO.N,STATUS_LED*%
X145000000Y-19125000D03*
X101125000Y-19500000D03*
%TO.N,PMOS_GATE*%
X109500000Y-64000000D03*
X110375000Y-67250000D03*
%TO.N,SERVO_EN_IC*%
X125625000Y-37000000D03*
X126000000Y-50375000D03*
%TO.N,BOOT*%
X119625000Y-20250000D03*
X104500000Y-18875000D03*
X118750000Y-18375000D03*
%TO.N,USB_5V*%
X136375000Y-8625000D03*
X131625000Y-8500000D03*
X121750000Y-9000000D03*
X119875000Y-11000000D03*
X123375000Y-21125000D03*
%TO.N,PN_MISO*%
X108625000Y-13750000D03*
X87500000Y-28125000D03*
%TO.N,PN_NSS*%
X82625000Y-28750000D03*
X108625000Y-17500000D03*
%TO.N,PN_SCK*%
X109000000Y-16875000D03*
X91250000Y-26000000D03*
%TO.N,SERVO_EN*%
X120500000Y-15625000D03*
X122875000Y-19875000D03*
X122375000Y-37000000D03*
%TO.N,UART_RX*%
X109500000Y-11875000D03*
X106000000Y-29750000D03*
X109625000Y-18250000D03*
%TO.N,UART_TX*%
X110125000Y-12375000D03*
X110250000Y-13875000D03*
X102375000Y-18875000D03*
X103000000Y-29750000D03*
%TO.N,PN_MOSI*%
X109625000Y-10625000D03*
X91125000Y-26750000D03*
X110875000Y-12375000D03*
X89625000Y-22250000D03*
%TD*%
%TO.N,GND*%
D20*
X5969137Y-750000D02*
X91870000Y-750000D01*
X106130000Y-750000D02*
X144030863Y-750000D01*
X6861818Y-1500000D02*
X91870000Y-1500000D01*
X106130000Y-1500000D02*
X143138182Y-1500000D01*
X7373055Y-2250000D02*
X91870000Y-2250000D01*
X106130000Y-2250000D02*
X142626945Y-2250000D01*
X7666061Y-3000000D02*
X91870000Y-3000000D01*
X106130000Y-3000000D02*
X142333939Y-3000000D01*
X7791767Y-3750000D02*
X91870000Y-3750000D01*
X106130000Y-3750000D02*
X142208233Y-3750000D01*
X7766962Y-4500000D02*
X91870000Y-4500000D01*
X106130000Y-4500000D02*
X142233038Y-4500000D01*
X7588523Y-5250000D02*
X91870000Y-5250000D01*
X106130000Y-5250000D02*
X142411477Y-5250000D01*
X7231099Y-6000000D02*
X130536529Y-6000000D01*
X6622499Y-6750000D02*
X130378890Y-6750000D01*
X137621110Y-6750000D02*
X143377501Y-6750000D01*
X148622499Y-6750000D02*
X149250000Y-6750000D01*
X5479865Y-7500000D02*
X144520135Y-7500000D01*
X147479865Y-7500000D02*
X149250000Y-7500000D01*
X750000Y-8250000D02*
X130917893Y-8250000D01*
X137024519Y-8250000D02*
X149250000Y-8250000D01*
X750000Y-9000000D02*
X90960422Y-9000000D01*
X91789578Y-9000000D02*
X115440983Y-9000000D01*
X124414578Y-9000000D02*
X131065983Y-9000000D01*
X137024519Y-9000000D02*
X149250000Y-9000000D01*
X750000Y-9750000D02*
X90635490Y-9750000D01*
X92114510Y-9750000D02*
X115292893Y-9750000D01*
X124739510Y-9750000D02*
X132460422Y-9750000D01*
X133289578Y-9750000D02*
X149250000Y-9750000D01*
X750000Y-10500000D02*
X89760490Y-10500000D01*
X91239510Y-10500000D02*
X108885490Y-10500000D01*
X120434017Y-10500000D02*
X149250000Y-10500000D01*
X750000Y-11250000D02*
X90085422Y-11250000D01*
X91625000Y-11250000D02*
X109085422Y-11250000D01*
X120625000Y-11250000D02*
X149250000Y-11250000D01*
X750000Y-12000000D02*
X108760490Y-12000000D01*
X111524519Y-12000000D02*
X149250000Y-12000000D01*
X750000Y-12750000D02*
X91667893Y-12750000D01*
X93082107Y-12750000D02*
X108292893Y-12750000D01*
X111524519Y-12750000D02*
X149250000Y-12750000D01*
X750000Y-13500000D02*
X91815983Y-13500000D01*
X92934017Y-13500000D02*
X107917893Y-13500000D01*
X118184017Y-13500000D02*
X149250000Y-13500000D01*
X750000Y-14250000D02*
X108065983Y-14250000D01*
X118332107Y-14250000D02*
X149250000Y-14250000D01*
X750000Y-15000000D02*
X108885490Y-15000000D01*
X120914578Y-15000000D02*
X149250000Y-15000000D01*
X750000Y-15750000D02*
X109210422Y-15750000D01*
X110039578Y-15750000D02*
X119760490Y-15750000D01*
X121239510Y-15750000D02*
X131260490Y-15750000D01*
X145739510Y-15750000D02*
X149250000Y-15750000D01*
X47500000Y-16500000D02*
X93475481Y-16500000D01*
X95524519Y-16500000D02*
X97475481Y-16500000D01*
X99649519Y-16500000D02*
X108350481Y-16500000D01*
X109649519Y-16500000D02*
X131585422Y-16500000D01*
X145414578Y-16500000D02*
X149250000Y-16500000D01*
X47500000Y-17250000D02*
X93475481Y-17250000D01*
X95524519Y-17250000D02*
X97475481Y-17250000D01*
X109649519Y-17250000D02*
X149250000Y-17250000D01*
X47500000Y-18000000D02*
X108065983Y-18000000D01*
X119399519Y-18000000D02*
X149250000Y-18000000D01*
X47500000Y-18750000D02*
X101635490Y-18750000D01*
X110184017Y-18750000D02*
X118100481Y-18750000D01*
X119399519Y-18750000D02*
X144350481Y-18750000D01*
X145649519Y-18750000D02*
X149250000Y-18750000D01*
X47500000Y-19500000D02*
X93585422Y-19500000D01*
X104914578Y-19500000D02*
X118975481Y-19500000D01*
X123524519Y-19500000D02*
X144350481Y-19500000D01*
X145649519Y-19500000D02*
X149250000Y-19500000D01*
X47500000Y-20250000D02*
X93260490Y-20250000D01*
X94739510Y-20250000D02*
X118875000Y-20250000D01*
X123524519Y-20250000D02*
X149250000Y-20250000D01*
X47500000Y-21000000D02*
X102875000Y-21000000D01*
X104375000Y-21000000D02*
X122635490Y-21000000D01*
X124114510Y-21000000D02*
X149250000Y-21000000D01*
X47500000Y-21750000D02*
X81292893Y-21750000D01*
X82707107Y-21750000D02*
X89065983Y-21750000D01*
X90184017Y-21750000D02*
X122960422Y-21750000D01*
X123789578Y-21750000D02*
X149250000Y-21750000D01*
X47500000Y-22500000D02*
X79190983Y-22500000D01*
X82684017Y-22500000D02*
X85292893Y-22500000D01*
X90559017Y-22500000D02*
X144260490Y-22500000D01*
X145739510Y-22500000D02*
X149250000Y-22500000D01*
X47500000Y-23250000D02*
X79042893Y-23250000D01*
X82832107Y-23250000D02*
X85440983Y-23250000D01*
X90707107Y-23250000D02*
X144585422Y-23250000D01*
X145414578Y-23250000D02*
X149250000Y-23250000D01*
X47500000Y-24000000D02*
X77000000Y-24000000D01*
X81024519Y-24000000D02*
X91875000Y-24000000D01*
X93375000Y-24000000D02*
X149250000Y-24000000D01*
X47500000Y-24750000D02*
X78042893Y-24750000D01*
X81457107Y-24750000D02*
X86585422Y-24750000D01*
X89934017Y-24750000D02*
X149250000Y-24750000D01*
X47500000Y-25500000D02*
X78190983Y-25500000D01*
X84614510Y-25500000D02*
X86260490Y-25500000D01*
X91809017Y-25500000D02*
X149250000Y-25500000D01*
X47500000Y-26250000D02*
X83460422Y-26250000D01*
X84289578Y-26250000D02*
X87440983Y-26250000D01*
X91957107Y-26250000D02*
X149250000Y-26250000D01*
X47500000Y-27000000D02*
X87292893Y-27000000D01*
X91832107Y-27000000D02*
X149250000Y-27000000D01*
X47500000Y-27750000D02*
X86850481Y-27750000D01*
X88149519Y-27750000D02*
X149250000Y-27750000D01*
X47500000Y-28500000D02*
X74260490Y-28500000D01*
X83332107Y-28500000D02*
X86850481Y-28500000D01*
X90239510Y-28500000D02*
X118750000Y-28500000D01*
X120250000Y-28500000D02*
X149250000Y-28500000D01*
X47500000Y-29250000D02*
X74585422Y-29250000D01*
X75414578Y-29250000D02*
X77542893Y-29250000D01*
X78957107Y-29250000D02*
X82065983Y-29250000D01*
X83184017Y-29250000D02*
X89085422Y-29250000D01*
X106559017Y-29250000D02*
X149250000Y-29250000D01*
X47500000Y-30000000D02*
X75565983Y-30000000D01*
X77809017Y-30000000D02*
X79625000Y-30000000D01*
X81125000Y-30000000D02*
X102292893Y-30000000D01*
X106707107Y-30000000D02*
X149250000Y-30000000D01*
X47500000Y-30750000D02*
X75417893Y-30750000D01*
X77957107Y-30750000D02*
X81960422Y-30750000D01*
X82789578Y-30750000D02*
X149250000Y-30750000D01*
X47500000Y-31500000D02*
X75385490Y-31500000D01*
X76864510Y-31500000D02*
X80960422Y-31500000D01*
X83114510Y-31500000D02*
X149250000Y-31500000D01*
X47500000Y-32250000D02*
X80635490Y-32250000D01*
X82114510Y-32250000D02*
X149250000Y-32250000D01*
X47500000Y-33000000D02*
X83065983Y-33000000D01*
X84184017Y-33000000D02*
X85585422Y-33000000D01*
X86414578Y-33000000D02*
X133625000Y-33000000D01*
X138375000Y-33000000D02*
X149250000Y-33000000D01*
X47500000Y-33750000D02*
X82917893Y-33750000D01*
X84914578Y-33750000D02*
X85260490Y-33750000D01*
X86739510Y-33750000D02*
X149250000Y-33750000D01*
X47500000Y-34500000D02*
X83760490Y-34500000D01*
X85989510Y-34500000D02*
X140260490Y-34500000D01*
X141739510Y-34500000D02*
X149250000Y-34500000D01*
X47500000Y-35250000D02*
X73690983Y-35250000D01*
X74809017Y-35250000D02*
X84835422Y-35250000D01*
X88489510Y-35250000D02*
X140585422Y-35250000D01*
X141414578Y-35250000D02*
X149250000Y-35250000D01*
X47500000Y-36000000D02*
X71792893Y-36000000D01*
X74957107Y-36000000D02*
X87335422Y-36000000D01*
X88164578Y-36000000D02*
X149250000Y-36000000D01*
X47500000Y-36750000D02*
X71940983Y-36750000D01*
X73059017Y-36750000D02*
X99585422Y-36750000D01*
X100414578Y-36750000D02*
X121667893Y-36750000D01*
X123082107Y-36750000D02*
X124917893Y-36750000D01*
X126332107Y-36750000D02*
X149250000Y-36750000D01*
X47500000Y-37500000D02*
X84600481Y-37500000D01*
X100750000Y-37500000D02*
X121815983Y-37500000D01*
X122934017Y-37500000D02*
X125065983Y-37500000D01*
X126184017Y-37500000D02*
X140065983Y-37500000D01*
X141184017Y-37500000D02*
X149250000Y-37500000D01*
X47500000Y-38250000D02*
X73690983Y-38250000D01*
X74809017Y-38250000D02*
X84600481Y-38250000D01*
X94559017Y-38250000D02*
X139917893Y-38250000D01*
X143649519Y-38250000D02*
X149250000Y-38250000D01*
X48747544Y-39000000D02*
X73542893Y-39000000D01*
X74957107Y-39000000D02*
X100625000Y-39000000D01*
X102125000Y-39000000D02*
X142350481Y-39000000D01*
X143649519Y-39000000D02*
X149250000Y-39000000D01*
X49223243Y-39750000D02*
X82000000Y-39750000D01*
X84375000Y-39750000D02*
X117760490Y-39750000D01*
X119239510Y-39750000D02*
X136585422Y-39750000D01*
X137414578Y-39750000D02*
X149250000Y-39750000D01*
X49144038Y-40500000D02*
X118085422Y-40500000D01*
X118914578Y-40500000D02*
X136260490Y-40500000D01*
X137739510Y-40500000D02*
X149250000Y-40500000D01*
X47500000Y-41250000D02*
X78385490Y-41250000D01*
X79864510Y-41250000D02*
X149250000Y-41250000D01*
X47500000Y-42000000D02*
X76000000Y-42000000D01*
X79539578Y-42000000D02*
X149250000Y-42000000D01*
X47500000Y-42750000D02*
X79042893Y-42750000D01*
X80457107Y-42750000D02*
X122292893Y-42750000D01*
X123707107Y-42750000D02*
X144537920Y-42750000D01*
X149082080Y-42750000D02*
X149250000Y-42750000D01*
X47500000Y-43500000D02*
X78917893Y-43500000D01*
X84739510Y-43500000D02*
X122440983Y-43500000D01*
X123559017Y-43500000D02*
X144017940Y-43500000D01*
X47500000Y-44250000D02*
X79065983Y-44250000D01*
X80184017Y-44250000D02*
X83585422Y-44250000D01*
X84414578Y-44250000D02*
X143957545Y-44250000D01*
X47500000Y-45000000D02*
X122940983Y-45000000D01*
X124059017Y-45000000D02*
X144288335Y-45000000D01*
X47500000Y-45750000D02*
X122792893Y-45750000D01*
X124207107Y-45750000D02*
X149250000Y-45750000D01*
X47500000Y-46500000D02*
X149250000Y-46500000D01*
X47500000Y-47250000D02*
X83350481Y-47250000D01*
X84649519Y-47250000D02*
X149250000Y-47250000D01*
X47500000Y-48000000D02*
X83350481Y-48000000D01*
X84649519Y-48000000D02*
X122440983Y-48000000D01*
X123559017Y-48000000D02*
X149250000Y-48000000D01*
X47500000Y-48750000D02*
X122292893Y-48750000D01*
X123707107Y-48750000D02*
X125350481Y-48750000D01*
X126649519Y-48750000D02*
X149250000Y-48750000D01*
X47500000Y-49500000D02*
X57248335Y-49500000D01*
X62291665Y-49500000D02*
X125350481Y-49500000D01*
X129207107Y-49500000D02*
X149250000Y-49500000D01*
X47500000Y-50250000D02*
X56917545Y-50250000D01*
X62622455Y-50250000D02*
X125260490Y-50250000D01*
X129059017Y-50250000D02*
X149250000Y-50250000D01*
X47500000Y-51000000D02*
X56977940Y-51000000D01*
X62562060Y-51000000D02*
X125585422Y-51000000D01*
X126414578Y-51000000D02*
X149250000Y-51000000D01*
X47500000Y-51750000D02*
X57497920Y-51750000D01*
X62042080Y-51750000D02*
X91792893Y-51750000D01*
X93207107Y-51750000D02*
X149250000Y-51750000D01*
X47500000Y-52500000D02*
X91940983Y-52500000D01*
X93059017Y-52500000D02*
X149250000Y-52500000D01*
X47500000Y-53250000D02*
X113542893Y-53250000D01*
X116750000Y-53250000D02*
X149250000Y-53250000D01*
X47500000Y-54000000D02*
X113690983Y-54000000D01*
X114809017Y-54000000D02*
X149250000Y-54000000D01*
X47500000Y-54750000D02*
X98085422Y-54750000D01*
X98914578Y-54750000D02*
X149250000Y-54750000D01*
X47500000Y-55500000D02*
X97760490Y-55500000D01*
X99239510Y-55500000D02*
X149250000Y-55500000D01*
X47500000Y-56250000D02*
X99292893Y-56250000D01*
X101707107Y-56250000D02*
X149250000Y-56250000D01*
X47500000Y-57000000D02*
X99440983Y-57000000D01*
X101559017Y-57000000D02*
X149250000Y-57000000D01*
X47500000Y-57750000D02*
X86250000Y-57750000D01*
X90750000Y-57750000D02*
X118250000Y-57750000D01*
X119750000Y-57750000D02*
X149250000Y-57750000D01*
X47500000Y-58500000D02*
X149250000Y-58500000D01*
X750000Y-59250000D02*
X149250000Y-59250000D01*
X750000Y-60000000D02*
X149250000Y-60000000D01*
X750000Y-60750000D02*
X149250000Y-60750000D01*
X750000Y-61500000D02*
X109440983Y-61500000D01*
X110559017Y-61500000D02*
X149250000Y-61500000D01*
X750000Y-62250000D02*
X109292893Y-62250000D01*
X110707107Y-62250000D02*
X149250000Y-62250000D01*
X750000Y-63000000D02*
X149250000Y-63000000D01*
X750000Y-63750000D02*
X108792893Y-63750000D01*
X110207107Y-63750000D02*
X149250000Y-63750000D01*
X750000Y-64500000D02*
X108940983Y-64500000D01*
X110059017Y-64500000D02*
X112250000Y-64500000D01*
X114750000Y-64500000D02*
X149250000Y-64500000D01*
X750000Y-65250000D02*
X149250000Y-65250000D01*
X750000Y-66000000D02*
X149250000Y-66000000D01*
X750000Y-66750000D02*
X86362214Y-66750000D01*
X88637786Y-66750000D02*
X109815983Y-66750000D01*
X110934017Y-66750000D02*
X149250000Y-66750000D01*
X5479865Y-67500000D02*
X85473413Y-67500000D01*
X111082107Y-67500000D02*
X144520135Y-67500000D01*
X147479865Y-67500000D02*
X149250000Y-67500000D01*
X6622499Y-68250000D02*
X85092812Y-68250000D01*
X89907188Y-68250000D02*
X143377501Y-68250000D01*
X148622499Y-68250000D02*
X149250000Y-68250000D01*
X7231099Y-69000000D02*
X84978680Y-69000000D01*
X90021320Y-69000000D02*
X142768901Y-69000000D01*
X7588523Y-69750000D02*
X85092812Y-69750000D01*
X89907188Y-69750000D02*
X142411477Y-69750000D01*
X7766962Y-70500000D02*
X85473413Y-70500000D01*
X89526587Y-70500000D02*
X142233038Y-70500000D01*
X7791767Y-71250000D02*
X86362214Y-71250000D01*
X88637786Y-71250000D02*
X142208233Y-71250000D01*
X7666061Y-72000000D02*
X105940983Y-72000000D01*
X108059017Y-72000000D02*
X142333939Y-72000000D01*
X7373055Y-72750000D02*
X105792893Y-72750000D01*
X108207107Y-72750000D02*
X142626945Y-72750000D01*
X6861818Y-73500000D02*
X143138182Y-73500000D01*
X5969137Y-74250000D02*
X144030863Y-74250000D01*
D21*
X103500000Y-58875000D02*
X103500000Y-58500000D01*
X116125000Y-59000000D02*
X116125000Y-59250000D01*
X117125000Y-62750000D02*
X117125000Y-63000000D01*
X101500000Y-51625000D02*
X101500000Y-51750000D01*
X94000000Y-51250000D02*
X94000000Y-51000000D01*
X129670000Y-2830000D02*
X129670000Y-3000000D01*
X129670000Y-7010000D02*
X129670000Y-6750000D01*
X138330000Y-7010000D02*
X138330000Y-6750000D01*
X138330000Y-2830000D02*
X138330000Y-3000000D01*
X140000000Y-10375000D02*
X140000000Y-10500000D01*
X143000000Y-10375000D02*
X143000000Y-10500000D01*
X124125000Y-11000000D02*
X124125000Y-11250000D01*
X101500000Y-33625000D02*
X101500000Y-33750000D01*
X94000000Y-33250000D02*
X94000000Y-33000000D01*
X116000000Y-31750000D02*
X116000000Y-31500000D01*
X119000000Y-34750000D02*
X119000000Y-34500000D01*
X92375000Y-7000000D02*
X92375000Y-6750000D01*
X92250000Y-7875000D02*
X92250000Y-7500000D01*
X95750000Y-16875000D02*
X95750000Y-16500000D01*
X103750000Y-6250000D02*
X103750000Y-6000000D01*
X103000000Y-6125000D02*
X103000000Y-6000000D01*
X101375000Y-6125000D02*
X101375000Y-6000000D01*
X96625000Y-6125000D02*
X96625000Y-6000000D01*
X95000000Y-6125000D02*
X95000000Y-6000000D01*
X94250000Y-6250000D02*
X94250000Y-6000000D01*
X96250000Y-9500000D02*
X96250000Y-9750000D01*
X96500000Y-11875000D02*
X96500000Y-12000000D01*
X96750000Y-13875000D02*
X96750000Y-13500000D01*
X99000000Y-10000000D02*
X99000000Y-9750000D01*
X99000000Y-14000000D02*
X99000000Y-14250000D01*
X101750000Y-9500000D02*
X101750000Y-9750000D01*
X101500000Y-11875000D02*
X101500000Y-12000000D01*
X101250000Y-13875000D02*
X101250000Y-13500000D01*
X105500000Y-16750000D02*
X105500000Y-16500000D01*
X92500000Y-16750000D02*
X92500000Y-16500000D01*
X91000000Y-17750000D02*
X91000000Y-18000000D01*
X94000000Y-18375000D02*
X94000000Y-18000000D01*
X105500000Y-19875000D02*
X105500000Y-19500000D01*
X117375000Y-23750000D02*
X117375000Y-24000000D01*
X108625000Y-23750000D02*
X108625000Y-24000000D01*
X128375000Y-23750000D02*
X128375000Y-24000000D01*
X119625000Y-23750000D02*
X119625000Y-24000000D01*
X140375000Y-23750000D02*
X140375000Y-24000000D01*
X131625000Y-23750000D02*
X131625000Y-24000000D01*
X145625000Y-19625000D02*
X145625000Y-19500000D01*
X96625000Y-25000000D02*
X96625000Y-24750000D01*
X100625000Y-25000000D02*
X100625000Y-24750000D01*
X74375000Y-40000000D02*
X74375000Y-39750000D01*
X77700000Y-36700000D02*
X77700000Y-36750000D01*
X79300000Y-36700000D02*
X79300000Y-36750000D01*
X77700000Y-38300000D02*
X77700000Y-38250000D01*
X79300000Y-38300000D02*
X79300000Y-38250000D01*
X80750000Y-49375000D02*
X80750000Y-49500000D01*
X77250000Y-46625000D02*
X77250000Y-46500000D01*
X76000000Y-50375000D02*
X76000000Y-50250000D01*
X82000000Y-50375000D02*
X82000000Y-50250000D01*
X75000000Y-25375000D02*
X75000000Y-25500000D01*
X71500000Y-25375000D02*
X71500000Y-25500000D01*
X83500000Y-30375000D02*
X83500000Y-30000000D01*
X86000000Y-30375000D02*
X86000000Y-30000000D01*
X84000000Y-34875000D02*
X84000000Y-34500000D01*
X88500000Y-30375000D02*
X88500000Y-30000000D01*
X84000000Y-40375000D02*
X84000000Y-40500000D01*
X87000000Y-40375000D02*
X87000000Y-40500000D01*
X84000000Y-44375000D02*
X84000000Y-44250000D01*
X87000000Y-44375000D02*
X87000000Y-44250000D01*
X90000000Y-44375000D02*
X90000000Y-44250000D01*
X63000000Y-42375000D02*
X63000000Y-42000000D01*
X63000000Y-29375000D02*
X63000000Y-29250000D01*
X60250000Y-42375000D02*
X60250000Y-42000000D01*
X60250000Y-29375000D02*
X60250000Y-29250000D01*
X57000000Y-43875000D02*
X57000000Y-43500000D01*
X57000000Y-27875000D02*
X57000000Y-27750000D01*
X130000000Y-51875000D02*
X130000000Y-51750000D01*
X122000000Y-46750000D02*
X122000000Y-46500000D01*
X124500000Y-42375000D02*
X124500000Y-42000000D01*
X129625000Y-37000000D02*
X129625000Y-36750000D01*
X143000000Y-35375000D02*
X143000000Y-35250000D01*
X143000000Y-51250000D02*
X143000000Y-51000000D01*
X140125000Y-65000000D02*
X140125000Y-65250000D01*
X141000000Y-31375000D02*
X141000000Y-31500000D01*
X143000000Y-44000000D02*
X143000000Y-44250000D01*
X100000000Y-29750000D02*
X100000000Y-30000000D01*
X140000000Y-64000000D02*
X140000000Y-63750000D01*
X144000000Y-52000000D02*
X144000000Y-51750000D01*
X128500000Y-53000000D02*
X128500000Y-53250000D01*
D22*
X48500000Y-750000D02*
X48500000Y-38855962D01*
X48500000Y-41144038D02*
X48500000Y-74250000D01*
X55000000Y-750000D02*
X55000000Y-74250000D01*
X70000000Y-750000D02*
X70000000Y-74250000D01*
X85000000Y-750000D02*
X85000000Y-33815983D01*
X85000000Y-35332107D02*
X85000000Y-37167893D01*
X85000000Y-38582107D02*
X85000000Y-68672805D01*
X85000000Y-69327195D02*
X85000000Y-74250000D01*
X110000000Y-750000D02*
X110000000Y-9975481D01*
X110000000Y-15774519D02*
X110000000Y-17600481D01*
X110000000Y-18899519D02*
X110000000Y-61250000D01*
X110000000Y-62750000D02*
X110000000Y-63440983D01*
X110000000Y-64559017D02*
X110000000Y-66600481D01*
X110000000Y-67899519D02*
X110000000Y-74250000D01*
X125000000Y-750000D02*
X125000000Y-36585422D01*
X125000000Y-37414578D02*
X125000000Y-74250000D01*
X149000000Y-6332381D02*
X149000000Y-42688411D01*
X149000000Y-45311589D02*
X149000000Y-68667619D01*
D23*
X95500000Y-16875000D02*
X96750000Y-13875000D01*
X105500000Y-16750000D02*
X105750000Y-6000000D01*
X79250000Y-29250000D02*
X77700000Y-36700000D01*
X129625000Y-37000000D02*
X130000000Y-51875000D01*
X100000000Y-29750000D02*
X101500000Y-33625000D01*
D22*
X138330000Y-7290000D02*
X138375000Y-7250000D01*
X138375000Y-7250000D02*
X138375000Y-7125000D01*
X138375000Y-7125000D02*
X138330000Y-7160000D01*
X84876318Y-38480604D02*
X84875000Y-38500000D01*
X84875000Y-38500000D02*
X84750000Y-38500000D01*
X84750000Y-38500000D02*
X84750000Y-38375000D01*
X84750000Y-38375000D02*
X84762813Y-38383223D01*
X75565983Y-29790000D02*
X75625000Y-29750000D01*
X75625000Y-29750000D02*
X75625000Y-29625000D01*
X75625000Y-29625000D02*
X75625000Y-29500000D01*
X75625000Y-29500000D02*
X75565983Y-29460000D01*
%TD*%
M02*
