%TF.GenerationSoftware,KiCad,Pcbnew,10.0.6-10.0.6~ubuntu24.04.1*%
%TF.CreationDate,2026-08-31T13:23:31+10:00*%
%TF.ProjectId,HomeKey-Lock-RevA-PN7161,486f6d65-4b65-4792-9d4c-6f636b2d5265,A*%
%TF.SameCoordinates,Original*%
%TF.FileFunction,Copper,L3,Inr*%
%TF.FilePolarity,Positive*%
%FSLAX46Y46*%
G04 Gerber Fmt 4.6, Leading zero omitted, Abs format (unit mm)*
G04 Created by KiCad (PCBNEW 10.0.6-10.0.6~ubuntu24.04.1) date 2026-08-31 13:23:31*
%MOMM*%
%LPD*%
G01*
G04 APERTURE LIST*
%TA.AperFunction,ComponentPad*%
%ADD10R,3.000000X3.000000*%
%TD*%
%TA.AperFunction,ComponentPad*%
%ADD11C,3.000000*%
%TD*%
%TA.AperFunction,ComponentPad*%
%ADD12O,1.200000X1.800000*%
%TD*%
%TA.AperFunction,ComponentPad*%
%ADD13O,1.200000X2.000000*%
%TD*%
%TA.AperFunction,ComponentPad*%
%ADD14R,1.700000X1.700000*%
%TD*%
%TA.AperFunction,ComponentPad*%
%ADD15O,1.700000X1.700000*%
%TD*%
%TA.AperFunction,ComponentPad*%
%ADD16C,1.200000*%
%TD*%
%TA.AperFunction,ViaPad*%
%ADD17C,0.800000*%
%TD*%
%TA.AperFunction,ViaPad*%
%ADD18C,0.600000*%
%TD*%
%TA.AperFunction,ViaPad*%
%ADD19C,0.500000*%
%TD*%
%TA.AperFunction,Conductor*%
%ADD20C,1.250000*%
%TD*%
%TA.AperFunction,Conductor*%
%ADD21C,0.500000*%
%TD*%
%TA.AperFunction,Conductor*%
%ADD22C,0.250000*%
%TD*%
%TA.AperFunction,Conductor*%
%ADD23C,0.200000*%
%TD*%
G04 APERTURE END LIST*
D10*
%TO.N,BAT_RAW*%
%TO.C,J1*%
X87500000Y-69000000D03*
D11*
%TO.N,GND*%
X92580000Y-69000000D03*
%TD*%
D12*
%TO.N,GND*%
%TO.C,J2*%
X129670000Y-2830000D03*
D13*
X129670000Y-7010000D03*
X138330000Y-7010000D03*
D12*
X138330000Y-2830000D03*
%TD*%
D14*
%TO.N,EXT_ANT_P*%
%TO.C,J3*%
X58500000Y-50500000D03*
D15*
%TO.N,EXT_ANT_N*%
X61040000Y-50500000D03*
%TD*%
D16*
%TO.N,ANT_P*%
%TO.C,AE1*%
X42200000Y-55400000D03*
X48000000Y-40000000D03*
%TD*%
D14*
%TO.N,GND*%
%TO.C,J4*%
X143000000Y-44000000D03*
D15*
%TO.N,SERVO_6V_OUT*%
X145540000Y-44000000D03*
%TO.N,SERVO_PWM_OUT*%
X148080000Y-44000000D03*
%TD*%
D17*
%TO.N,BAT_SYS*%
X106500000Y-72500000D03*
X107500000Y-72500000D03*
X113000000Y-64500000D03*
X114000000Y-64500000D03*
X100000000Y-56500000D03*
X101000000Y-56500000D03*
X127750000Y-49750000D03*
X128500000Y-49750000D03*
D18*
X110000000Y-62000000D03*
X92500000Y-52000000D03*
X123000000Y-48500000D03*
X123000000Y-43000000D03*
X90000000Y-23000000D03*
X82000000Y-22000000D03*
D19*
%TO.N,SERVO_PWM*%
X109000000Y-13000000D03*
X134375000Y-33000000D03*
%TO.N,5V_BAT*%
X98500000Y-55375000D03*
X114250000Y-53500000D03*
X116000000Y-53250000D03*
X119000000Y-57750000D03*
X123500000Y-45500000D03*
X86000000Y-22750000D03*
%TO.N,3V3*%
X78250000Y-29000000D03*
%TO.N,SYS_5V*%
X100000000Y-37500000D03*
X74250000Y-35750000D03*
X79750000Y-43000000D03*
X86000000Y-33625000D03*
X88500000Y-25250000D03*
%TO.N,PN_TVDD*%
X72500000Y-36250000D03*
X74250000Y-38750000D03*
X76750000Y-42000000D03*
%TO.N,USB_DM*%
X98125000Y-16875000D03*
%TO.N,USB_DP*%
X117625000Y-14000000D03*
X99000000Y-16875000D03*
%TO.N,PN_VEN*%
X94875000Y-16875000D03*
%TO.N,PN_IRQ*%
X94125000Y-16875000D03*
X77250000Y-30500000D03*
%TO.N,ESP_EN*%
X92375000Y-13000000D03*
%TO.N,PN_MISO_IC*%
X78750000Y-25000000D03*
%TO.N,PN_MOSI_IC*%
X79750000Y-23000000D03*
X89500000Y-25375000D03*
%TO.N,PN_SCK_IC*%
X77750000Y-24000000D03*
X83875000Y-25625000D03*
%TO.N,SERVO_FB*%
X126000000Y-49125000D03*
X137000000Y-40375000D03*
X143000000Y-38625000D03*
X140625000Y-38000000D03*
%TO.N,SERVO_PWM_OUT*%
X137625000Y-33000000D03*
X141000000Y-34625000D03*
%TO.N,LED_A*%
X145000000Y-22625000D03*
X145000000Y-15875000D03*
%TO.N,PN_MOSI*%
X111000000Y-14500000D03*
%TO.N,GND*%
X103500000Y-58875000D03*
X116125000Y-59000000D03*
X114625000Y-66000000D03*
X117125000Y-62750000D03*
X101500000Y-51625000D03*
X94000000Y-51250000D03*
X116000000Y-48750000D03*
X119000000Y-53250000D03*
X137875000Y-8250000D03*
X130125000Y-8250000D03*
X140000000Y-10375000D03*
X143000000Y-10375000D03*
X124125000Y-11000000D03*
X101500000Y-33625000D03*
X94000000Y-33250000D03*
X116000000Y-31750000D03*
X119000000Y-34750000D03*
X92375000Y-7000000D03*
X92250000Y-7875000D03*
X92625000Y-15750000D03*
X95750000Y-16875000D03*
X104500000Y-6000000D03*
X103750000Y-6250000D03*
X103000000Y-6125000D03*
X102125000Y-6000000D03*
X101375000Y-6125000D03*
X100500000Y-6000000D03*
X99750000Y-6000000D03*
X97500000Y-6000000D03*
X96625000Y-6125000D03*
X95875000Y-6000000D03*
X95000000Y-6125000D03*
X94250000Y-6250000D03*
X93500000Y-6000000D03*
X96250000Y-9500000D03*
X96500000Y-11875000D03*
X96750000Y-13875000D03*
X99000000Y-10000000D03*
X99000000Y-12000000D03*
X99000000Y-14000000D03*
X101750000Y-9500000D03*
X101500000Y-11875000D03*
X101250000Y-13875000D03*
X105750000Y-6000000D03*
X105500000Y-16750000D03*
X92500000Y-16750000D03*
X92250000Y-6000000D03*
X91000000Y-17750000D03*
X94000000Y-18375000D03*
X105500000Y-19875000D03*
X117375000Y-23750000D03*
X108625000Y-23750000D03*
X128375000Y-23750000D03*
X119625000Y-23750000D03*
X140375000Y-23750000D03*
X131625000Y-23750000D03*
X145625000Y-19625000D03*
X96625000Y-25000000D03*
X100625000Y-25000000D03*
X79250000Y-29250000D03*
X76750000Y-29250000D03*
X74375000Y-40000000D03*
D18*
X77700000Y-36700000D03*
X79300000Y-36700000D03*
X77700000Y-38300000D03*
X79300000Y-38300000D03*
D19*
X80750000Y-49375000D03*
X77250000Y-46625000D03*
X76000000Y-50375000D03*
X82000000Y-50375000D03*
X75000000Y-25375000D03*
X71500000Y-25375000D03*
X83500000Y-30375000D03*
X86000000Y-30375000D03*
X84000000Y-34875000D03*
X88500000Y-30375000D03*
X84000000Y-40375000D03*
X87000000Y-40375000D03*
X84000000Y-44375000D03*
X87000000Y-44375000D03*
X90000000Y-44375000D03*
X68375000Y-38250000D03*
X63000000Y-42375000D03*
X63000000Y-29375000D03*
X60250000Y-42375000D03*
X60250000Y-29375000D03*
X57000000Y-43875000D03*
X57000000Y-27875000D03*
X130000000Y-51875000D03*
X122000000Y-46750000D03*
X124500000Y-42375000D03*
X129625000Y-37000000D03*
X143000000Y-35375000D03*
X143000000Y-51250000D03*
X146000000Y-54750000D03*
X140125000Y-65000000D03*
X141000000Y-31375000D03*
X100000000Y-29750000D03*
D17*
X140000000Y-64000000D03*
X140000000Y-66000000D03*
X144000000Y-52000000D03*
X145000000Y-55500000D03*
X128500000Y-53000000D03*
D19*
%TO.N,3V3*%
X81375000Y-32125000D03*
X94000000Y-20125000D03*
X91375000Y-9625000D03*
%TO.N,SYS_5V*%
X119500000Y-28500000D03*
X118500000Y-39875000D03*
X101375000Y-39000000D03*
X94000000Y-37750000D03*
X87750000Y-35375000D03*
X83750000Y-33625000D03*
X88000000Y-26750000D03*
%TO.N,PN_VDD*%
X82750000Y-39750000D03*
X79125000Y-41375000D03*
X84000000Y-47625000D03*
X79625000Y-43750000D03*
%TO.N,PN_TVDD*%
X77625000Y-42000000D03*
X84000000Y-43625000D03*
%TO.N,USB_DP_CONN*%
X132875000Y-9125000D03*
X124000000Y-9625000D03*
X117000000Y-11250000D03*
X114375000Y-14000000D03*
%TO.N,USB_DM*%
X116000000Y-9500000D03*
%TO.N,USB_DP*%
X116250000Y-14000000D03*
X109625000Y-15125000D03*
%TO.N,PN_VEN*%
X76125000Y-30500000D03*
X87000000Y-57750000D03*
X76125000Y-31375000D03*
%TO.N,SERVICE_BTN*%
X132000000Y-15875000D03*
X90875000Y-11250000D03*
%TO.N,PN_DWL_REQ*%
X80375000Y-30000000D03*
X75000000Y-28625000D03*
X90000000Y-57750000D03*
X84500000Y-34375000D03*
%TO.N,PN_IRQ*%
X82375000Y-31375000D03*
X83625000Y-39750000D03*
%TO.N,BAT_ADC*%
X90500000Y-10625000D03*
X92625000Y-24000000D03*
%TO.N,ESP_EN*%
X103625000Y-21000000D03*
%TO.N,PN_MISO_IC*%
X80750000Y-25000000D03*
%TO.N,PN_MOSI_IC*%
X82125000Y-23000000D03*
%TO.N,PN_NSS_IC*%
X85250000Y-34625000D03*
X85250000Y-37875000D03*
%TO.N,PN_SCK_IC*%
X80375000Y-24375000D03*
%TO.N,STATUS_LED*%
X145000000Y-19125000D03*
X101125000Y-19500000D03*
%TO.N,PMOS_GATE*%
X109500000Y-64000000D03*
X110375000Y-67250000D03*
%TO.N,SERVO_EN_IC*%
X125625000Y-37000000D03*
X126000000Y-50375000D03*
%TO.N,BOOT*%
X119625000Y-20250000D03*
X104500000Y-18875000D03*
X118750000Y-18375000D03*
%TO.N,USB_5V*%
X136375000Y-8625000D03*
X131625000Y-8500000D03*
X121750000Y-9000000D03*
X119875000Y-11000000D03*
X123375000Y-21125000D03*
%TO.N,PN_MISO*%
X108625000Y-13750000D03*
X87500000Y-28125000D03*
%TO.N,PN_NSS*%
X82625000Y-28750000D03*
X108625000Y-17500000D03*
%TO.N,PN_SCK*%
X109000000Y-16875000D03*
X91250000Y-26000000D03*
%TO.N,SERVO_EN*%
X120500000Y-15625000D03*
X122875000Y-19875000D03*
X122375000Y-37000000D03*
%TO.N,UART_RX*%
X109500000Y-11875000D03*
X106000000Y-29750000D03*
X109625000Y-18250000D03*
%TO.N,UART_TX*%
X110125000Y-12375000D03*
X110250000Y-13875000D03*
X102375000Y-18875000D03*
X103000000Y-29750000D03*
%TO.N,PN_MOSI*%
X109625000Y-10625000D03*
X91125000Y-26750000D03*
X110875000Y-12375000D03*
X89625000Y-22250000D03*
%TD*%
%TO.N,BAT_SYS*%
D20*
X107000000Y-72500000D02*
X113500000Y-66000000D01*
X113500000Y-66000000D02*
X113500000Y-64500000D01*
X113500000Y-64500000D02*
X105500000Y-56500000D01*
X105500000Y-56500000D02*
X100500000Y-56500000D01*
X113500000Y-64500000D02*
X118500000Y-59500000D01*
X118500000Y-59500000D02*
X119500000Y-59500000D01*
X119500000Y-59500000D02*
X120000000Y-59000000D01*
X120000000Y-59000000D02*
X120250000Y-59000000D01*
X120250000Y-59000000D02*
X126750000Y-52500000D01*
X126750000Y-52500000D02*
X126750000Y-52250000D01*
X126750000Y-52250000D02*
X128000000Y-51000000D01*
X128000000Y-51000000D02*
X128000000Y-49750000D01*
D21*
X110000000Y-62000000D02*
X113500000Y-64500000D01*
X92500000Y-52000000D02*
X97000000Y-56500000D01*
X97000000Y-56500000D02*
X100500000Y-56500000D01*
X123000000Y-48500000D02*
X125000000Y-50500000D01*
X125000000Y-50500000D02*
X125000000Y-50750000D01*
X125000000Y-50750000D02*
X126750000Y-52500000D01*
X123000000Y-43000000D02*
X123000000Y-44750000D01*
X123000000Y-44750000D02*
X122500000Y-45250000D01*
X122500000Y-45250000D02*
X122500000Y-45750000D01*
X122500000Y-45750000D02*
X123000000Y-46250000D01*
X123000000Y-46250000D02*
X123000000Y-48500000D01*
D22*
X82000000Y-22000000D02*
X83000000Y-23000000D01*
X83000000Y-23000000D02*
X85250000Y-23000000D01*
X85250000Y-23000000D02*
X85750000Y-23500000D01*
X85750000Y-23500000D02*
X86250000Y-23500000D01*
X86250000Y-23500000D02*
X86750000Y-23000000D01*
X86750000Y-23000000D02*
X88250000Y-23000000D01*
X88250000Y-23000000D02*
X88750000Y-23500000D01*
X88750000Y-23500000D02*
X89250000Y-23500000D01*
X89250000Y-23500000D02*
X89750000Y-23000000D01*
X89750000Y-23000000D02*
X90000000Y-23000000D01*
X90000000Y-23000000D02*
X89000000Y-24000000D01*
X89000000Y-24000000D02*
X88750000Y-24000000D01*
X88750000Y-24000000D02*
X87750000Y-25000000D01*
X87750000Y-25000000D02*
X87000000Y-24250000D01*
X87000000Y-24250000D02*
X86500000Y-24250000D01*
X86500000Y-24250000D02*
X85500000Y-25250000D01*
X85500000Y-25250000D02*
X84500000Y-25250000D01*
X84500000Y-25250000D02*
X83750000Y-24500000D01*
X83750000Y-24500000D02*
X81500000Y-24500000D01*
X81500000Y-24500000D02*
X80750000Y-23750000D01*
X80750000Y-23750000D02*
X80000000Y-23750000D01*
X80000000Y-23750000D02*
X79500000Y-24250000D01*
X79500000Y-24250000D02*
X78500000Y-24250000D01*
X78500000Y-24250000D02*
X78000000Y-24750000D01*
X78000000Y-24750000D02*
X78000000Y-25250000D01*
X78000000Y-25250000D02*
X82750000Y-30000000D01*
X82750000Y-30000000D02*
X82750000Y-30500000D01*
X82750000Y-30500000D02*
X85500000Y-33250000D01*
X85500000Y-33250000D02*
X85250000Y-33500000D01*
X85250000Y-33500000D02*
X85250000Y-33750000D01*
X85250000Y-33750000D02*
X100500000Y-49000000D01*
X100500000Y-49000000D02*
X100500000Y-56500000D01*
%TO.N,SYS_5V*%
D21*
X100000000Y-37375000D02*
X94250000Y-37375000D01*
X94250000Y-37375000D02*
X94250000Y-37500000D01*
X94250000Y-37500000D02*
X94125000Y-37500000D01*
X94125000Y-37500000D02*
X94125000Y-37625000D01*
X94125000Y-37625000D02*
X94000000Y-37625000D01*
X94000000Y-37625000D02*
X94000000Y-37750000D01*
%TO.N,PN_TVDD*%
X77625000Y-42000000D02*
X78875000Y-42000000D01*
X78875000Y-42000000D02*
X78875000Y-42125000D01*
X78875000Y-42125000D02*
X82500000Y-42125000D01*
X82500000Y-42125000D02*
X82500000Y-42250000D01*
X82500000Y-42250000D02*
X82625000Y-42250000D01*
X82625000Y-42250000D02*
X82625000Y-42375000D01*
X82625000Y-42375000D02*
X82750000Y-42375000D01*
X82750000Y-42375000D02*
X82750000Y-42500000D01*
X82750000Y-42500000D02*
X82875000Y-42500000D01*
X82875000Y-42500000D02*
X82875000Y-42625000D01*
X82875000Y-42625000D02*
X83000000Y-42625000D01*
X83000000Y-42625000D02*
X83000000Y-42750000D01*
X83000000Y-42750000D02*
X83125000Y-42750000D01*
X83125000Y-42750000D02*
X83125000Y-42875000D01*
X83125000Y-42875000D02*
X83250000Y-42875000D01*
X83250000Y-42875000D02*
X83250000Y-43000000D01*
X83250000Y-43000000D02*
X83375000Y-43000000D01*
X83375000Y-43000000D02*
X83375000Y-43125000D01*
X83375000Y-43125000D02*
X83500000Y-43125000D01*
X83500000Y-43125000D02*
X83500000Y-43250000D01*
X83500000Y-43250000D02*
X83625000Y-43250000D01*
X83625000Y-43250000D02*
X83625000Y-43375000D01*
X83625000Y-43375000D02*
X83750000Y-43375000D01*
X83750000Y-43375000D02*
X83750000Y-43500000D01*
X83750000Y-43500000D02*
X83875000Y-43500000D01*
X83875000Y-43500000D02*
X83875000Y-43625000D01*
X83875000Y-43625000D02*
X84000000Y-43625000D01*
%TO.N,USB_DP_CONN*%
D23*
X117000000Y-11250000D02*
X117000000Y-11375000D01*
X117000000Y-11375000D02*
X116875000Y-11375000D01*
X116875000Y-11375000D02*
X116875000Y-11500000D01*
X116875000Y-11500000D02*
X116750000Y-11500000D01*
X116750000Y-11500000D02*
X116750000Y-11625000D01*
X116750000Y-11625000D02*
X116625000Y-11625000D01*
X116625000Y-11625000D02*
X116625000Y-11750000D01*
X116625000Y-11750000D02*
X116500000Y-11750000D01*
X116500000Y-11750000D02*
X116500000Y-11875000D01*
X116500000Y-11875000D02*
X116375000Y-11875000D01*
X116375000Y-11875000D02*
X116375000Y-12000000D01*
X116375000Y-12000000D02*
X116250000Y-12000000D01*
X116250000Y-12000000D02*
X116250000Y-12125000D01*
X116250000Y-12125000D02*
X116125000Y-12125000D01*
X116125000Y-12125000D02*
X116125000Y-12250000D01*
X116125000Y-12250000D02*
X116000000Y-12250000D01*
X116000000Y-12250000D02*
X116000000Y-12375000D01*
X116000000Y-12375000D02*
X115875000Y-12375000D01*
X115875000Y-12375000D02*
X115875000Y-12500000D01*
X115875000Y-12500000D02*
X115750000Y-12500000D01*
X115750000Y-12500000D02*
X115750000Y-12625000D01*
X115750000Y-12625000D02*
X115625000Y-12625000D01*
X115625000Y-12625000D02*
X115625000Y-12750000D01*
X115625000Y-12750000D02*
X115500000Y-12750000D01*
X115500000Y-12750000D02*
X115500000Y-12875000D01*
X115500000Y-12875000D02*
X115375000Y-12875000D01*
X115375000Y-12875000D02*
X115375000Y-13000000D01*
X115375000Y-13000000D02*
X115250000Y-13000000D01*
X115250000Y-13000000D02*
X115250000Y-13125000D01*
X115250000Y-13125000D02*
X115125000Y-13125000D01*
X115125000Y-13125000D02*
X115125000Y-13250000D01*
X115125000Y-13250000D02*
X115000000Y-13250000D01*
X115000000Y-13250000D02*
X115000000Y-13375000D01*
X115000000Y-13375000D02*
X114875000Y-13375000D01*
X114875000Y-13375000D02*
X114875000Y-13500000D01*
X114875000Y-13500000D02*
X114750000Y-13500000D01*
X114750000Y-13500000D02*
X114750000Y-13625000D01*
X114750000Y-13625000D02*
X114625000Y-13625000D01*
X114625000Y-13625000D02*
X114625000Y-13750000D01*
X114625000Y-13750000D02*
X114500000Y-13750000D01*
X114500000Y-13750000D02*
X114500000Y-13875000D01*
X114500000Y-13875000D02*
X114375000Y-13875000D01*
X114375000Y-13875000D02*
X114375000Y-14000000D01*
%TO.N,PN_VEN*%
X76125000Y-31375000D02*
X76125000Y-47000000D01*
X76125000Y-47000000D02*
X76250000Y-47000000D01*
X76250000Y-47000000D02*
X76250000Y-47125000D01*
X76250000Y-47125000D02*
X76375000Y-47125000D01*
X76375000Y-47125000D02*
X76375000Y-47250000D01*
X76375000Y-47250000D02*
X76500000Y-47250000D01*
X76500000Y-47250000D02*
X76500000Y-47375000D01*
X76500000Y-47375000D02*
X76625000Y-47375000D01*
X76625000Y-47375000D02*
X76625000Y-47500000D01*
X76625000Y-47500000D02*
X76750000Y-47500000D01*
X76750000Y-47500000D02*
X76750000Y-47625000D01*
X76750000Y-47625000D02*
X76875000Y-47625000D01*
X76875000Y-47625000D02*
X76875000Y-47750000D01*
X76875000Y-47750000D02*
X77000000Y-47750000D01*
X77000000Y-47750000D02*
X77000000Y-47875000D01*
X77000000Y-47875000D02*
X77125000Y-47875000D01*
X77125000Y-47875000D02*
X77125000Y-48000000D01*
X77125000Y-48000000D02*
X77250000Y-48000000D01*
X77250000Y-48000000D02*
X77250000Y-48125000D01*
X77250000Y-48125000D02*
X77375000Y-48125000D01*
X77375000Y-48125000D02*
X77375000Y-48250000D01*
X77375000Y-48250000D02*
X77500000Y-48250000D01*
X77500000Y-48250000D02*
X77500000Y-48375000D01*
X77500000Y-48375000D02*
X77625000Y-48375000D01*
X77625000Y-48375000D02*
X77625000Y-48500000D01*
X77625000Y-48500000D02*
X77750000Y-48500000D01*
X77750000Y-48500000D02*
X77750000Y-48625000D01*
X77750000Y-48625000D02*
X77875000Y-48625000D01*
X77875000Y-48625000D02*
X77875000Y-48750000D01*
X77875000Y-48750000D02*
X78000000Y-48750000D01*
X78000000Y-48750000D02*
X78000000Y-48875000D01*
X78000000Y-48875000D02*
X78125000Y-48875000D01*
X78125000Y-48875000D02*
X78125000Y-49000000D01*
X78125000Y-49000000D02*
X78250000Y-49000000D01*
X78250000Y-49000000D02*
X78250000Y-49125000D01*
X78250000Y-49125000D02*
X78375000Y-49125000D01*
X78375000Y-49125000D02*
X78375000Y-49250000D01*
X78375000Y-49250000D02*
X78500000Y-49250000D01*
X78500000Y-49250000D02*
X78500000Y-49375000D01*
X78500000Y-49375000D02*
X78625000Y-49375000D01*
X78625000Y-49375000D02*
X78625000Y-49500000D01*
X78625000Y-49500000D02*
X78750000Y-49500000D01*
X78750000Y-49500000D02*
X78750000Y-49625000D01*
X78750000Y-49625000D02*
X78875000Y-49625000D01*
X78875000Y-49625000D02*
X78875000Y-49750000D01*
X78875000Y-49750000D02*
X79000000Y-49750000D01*
X79000000Y-49750000D02*
X79000000Y-49875000D01*
X79000000Y-49875000D02*
X79125000Y-49875000D01*
X79125000Y-49875000D02*
X79125000Y-50000000D01*
X79125000Y-50000000D02*
X79250000Y-50000000D01*
X79250000Y-50000000D02*
X79250000Y-50125000D01*
X79250000Y-50125000D02*
X79375000Y-50125000D01*
X79375000Y-50125000D02*
X79375000Y-50250000D01*
X79375000Y-50250000D02*
X79500000Y-50250000D01*
X79500000Y-50250000D02*
X79500000Y-50375000D01*
X79500000Y-50375000D02*
X79625000Y-50375000D01*
X79625000Y-50375000D02*
X79625000Y-50500000D01*
X79625000Y-50500000D02*
X79750000Y-50500000D01*
X79750000Y-50500000D02*
X79750000Y-50625000D01*
X79750000Y-50625000D02*
X79875000Y-50625000D01*
X79875000Y-50625000D02*
X79875000Y-50750000D01*
X79875000Y-50750000D02*
X80000000Y-50750000D01*
X80000000Y-50750000D02*
X80000000Y-50875000D01*
X80000000Y-50875000D02*
X80125000Y-50875000D01*
X80125000Y-50875000D02*
X80125000Y-51000000D01*
X80125000Y-51000000D02*
X80250000Y-51000000D01*
X80250000Y-51000000D02*
X80250000Y-51125000D01*
X80250000Y-51125000D02*
X80375000Y-51125000D01*
X80375000Y-51125000D02*
X80375000Y-51250000D01*
X80375000Y-51250000D02*
X80500000Y-51250000D01*
X80500000Y-51250000D02*
X80500000Y-51375000D01*
X80500000Y-51375000D02*
X80625000Y-51375000D01*
X80625000Y-51375000D02*
X80625000Y-51500000D01*
X80625000Y-51500000D02*
X80750000Y-51500000D01*
X80750000Y-51500000D02*
X80750000Y-51625000D01*
X80750000Y-51625000D02*
X80875000Y-51625000D01*
X80875000Y-51625000D02*
X80875000Y-51750000D01*
X80875000Y-51750000D02*
X81000000Y-51750000D01*
X81000000Y-51750000D02*
X81000000Y-51875000D01*
X81000000Y-51875000D02*
X81125000Y-51875000D01*
X81125000Y-51875000D02*
X81125000Y-52000000D01*
X81125000Y-52000000D02*
X81250000Y-52000000D01*
X81250000Y-52000000D02*
X81250000Y-52125000D01*
X81250000Y-52125000D02*
X81375000Y-52125000D01*
X81375000Y-52125000D02*
X81375000Y-52250000D01*
X81375000Y-52250000D02*
X81500000Y-52250000D01*
X81500000Y-52250000D02*
X81500000Y-52375000D01*
X81500000Y-52375000D02*
X81625000Y-52375000D01*
X81625000Y-52375000D02*
X81625000Y-52500000D01*
X81625000Y-52500000D02*
X81750000Y-52500000D01*
X81750000Y-52500000D02*
X81750000Y-52625000D01*
X81750000Y-52625000D02*
X81875000Y-52625000D01*
X81875000Y-52625000D02*
X81875000Y-52750000D01*
X81875000Y-52750000D02*
X82000000Y-52750000D01*
X82000000Y-52750000D02*
X82000000Y-52875000D01*
X82000000Y-52875000D02*
X82125000Y-52875000D01*
X82125000Y-52875000D02*
X82125000Y-53000000D01*
X82125000Y-53000000D02*
X82250000Y-53000000D01*
X82250000Y-53000000D02*
X82250000Y-53125000D01*
X82250000Y-53125000D02*
X82375000Y-53125000D01*
X82375000Y-53125000D02*
X82375000Y-53250000D01*
X82375000Y-53250000D02*
X82500000Y-53250000D01*
X82500000Y-53250000D02*
X82500000Y-53375000D01*
X82500000Y-53375000D02*
X82625000Y-53375000D01*
X82625000Y-53375000D02*
X82625000Y-53500000D01*
X82625000Y-53500000D02*
X82750000Y-53500000D01*
X82750000Y-53500000D02*
X82750000Y-53625000D01*
X82750000Y-53625000D02*
X82875000Y-53625000D01*
X82875000Y-53625000D02*
X82875000Y-53750000D01*
X82875000Y-53750000D02*
X83000000Y-53750000D01*
X83000000Y-53750000D02*
X83000000Y-53875000D01*
X83000000Y-53875000D02*
X83125000Y-53875000D01*
X83125000Y-53875000D02*
X83125000Y-54000000D01*
X83125000Y-54000000D02*
X83250000Y-54000000D01*
X83250000Y-54000000D02*
X83250000Y-54125000D01*
X83250000Y-54125000D02*
X83375000Y-54125000D01*
X83375000Y-54125000D02*
X83375000Y-54250000D01*
X83375000Y-54250000D02*
X83500000Y-54250000D01*
X83500000Y-54250000D02*
X83500000Y-54375000D01*
X83500000Y-54375000D02*
X83625000Y-54375000D01*
X83625000Y-54375000D02*
X83625000Y-54500000D01*
X83625000Y-54500000D02*
X83750000Y-54500000D01*
X83750000Y-54500000D02*
X83750000Y-54625000D01*
X83750000Y-54625000D02*
X83875000Y-54625000D01*
X83875000Y-54625000D02*
X83875000Y-54750000D01*
X83875000Y-54750000D02*
X84000000Y-54750000D01*
X84000000Y-54750000D02*
X84000000Y-54875000D01*
X84000000Y-54875000D02*
X84125000Y-54875000D01*
X84125000Y-54875000D02*
X84125000Y-55000000D01*
X84125000Y-55000000D02*
X84250000Y-55000000D01*
X84250000Y-55000000D02*
X84250000Y-55125000D01*
X84250000Y-55125000D02*
X84375000Y-55125000D01*
X84375000Y-55125000D02*
X84375000Y-55250000D01*
X84375000Y-55250000D02*
X84500000Y-55250000D01*
X84500000Y-55250000D02*
X84500000Y-55375000D01*
X84500000Y-55375000D02*
X84625000Y-55375000D01*
X84625000Y-55375000D02*
X84625000Y-55500000D01*
X84625000Y-55500000D02*
X84750000Y-55500000D01*
X84750000Y-55500000D02*
X84750000Y-55625000D01*
X84750000Y-55625000D02*
X84875000Y-55625000D01*
X84875000Y-55625000D02*
X84875000Y-55750000D01*
X84875000Y-55750000D02*
X85000000Y-55750000D01*
X85000000Y-55750000D02*
X85000000Y-55875000D01*
X85000000Y-55875000D02*
X85125000Y-55875000D01*
X85125000Y-55875000D02*
X85125000Y-56000000D01*
X85125000Y-56000000D02*
X85250000Y-56000000D01*
X85250000Y-56000000D02*
X85250000Y-56125000D01*
X85250000Y-56125000D02*
X85375000Y-56125000D01*
X85375000Y-56125000D02*
X85375000Y-56250000D01*
X85375000Y-56250000D02*
X85500000Y-56250000D01*
X85500000Y-56250000D02*
X85500000Y-56375000D01*
X85500000Y-56375000D02*
X85625000Y-56375000D01*
X85625000Y-56375000D02*
X85625000Y-56500000D01*
X85625000Y-56500000D02*
X85750000Y-56500000D01*
X85750000Y-56500000D02*
X85750000Y-56625000D01*
X85750000Y-56625000D02*
X85875000Y-56625000D01*
X85875000Y-56625000D02*
X85875000Y-56750000D01*
X85875000Y-56750000D02*
X86000000Y-56750000D01*
X86000000Y-56750000D02*
X86000000Y-56875000D01*
X86000000Y-56875000D02*
X86125000Y-56875000D01*
X86125000Y-56875000D02*
X86125000Y-57000000D01*
X86125000Y-57000000D02*
X86250000Y-57000000D01*
X86250000Y-57000000D02*
X86250000Y-57125000D01*
X86250000Y-57125000D02*
X86375000Y-57125000D01*
X86375000Y-57125000D02*
X86375000Y-57250000D01*
X86375000Y-57250000D02*
X86500000Y-57250000D01*
X86500000Y-57250000D02*
X86500000Y-57375000D01*
X86500000Y-57375000D02*
X86625000Y-57375000D01*
X86625000Y-57375000D02*
X86625000Y-57500000D01*
X86625000Y-57500000D02*
X86750000Y-57500000D01*
X86750000Y-57500000D02*
X86750000Y-57625000D01*
X86750000Y-57625000D02*
X86875000Y-57625000D01*
X86875000Y-57625000D02*
X86875000Y-57750000D01*
X86875000Y-57750000D02*
X87000000Y-57750000D01*
%TO.N,SERVICE_BTN*%
X90875000Y-11250000D02*
X113750000Y-11250000D01*
X113750000Y-11250000D02*
X113750000Y-14250000D01*
X113750000Y-14250000D02*
X113875000Y-14250000D01*
X113875000Y-14250000D02*
X113875000Y-14375000D01*
X113875000Y-14375000D02*
X114000000Y-14375000D01*
X114000000Y-14375000D02*
X114000000Y-14500000D01*
X114000000Y-14500000D02*
X114125000Y-14500000D01*
X114125000Y-14500000D02*
X114125000Y-14625000D01*
X114125000Y-14625000D02*
X130750000Y-14625000D01*
X130750000Y-14625000D02*
X130750000Y-14750000D01*
X130750000Y-14750000D02*
X130875000Y-14750000D01*
X130875000Y-14750000D02*
X130875000Y-14875000D01*
X130875000Y-14875000D02*
X131000000Y-14875000D01*
X131000000Y-14875000D02*
X131000000Y-15000000D01*
X131000000Y-15000000D02*
X131125000Y-15000000D01*
X131125000Y-15000000D02*
X131125000Y-15125000D01*
X131125000Y-15125000D02*
X131250000Y-15125000D01*
X131250000Y-15125000D02*
X131250000Y-15250000D01*
X131250000Y-15250000D02*
X131375000Y-15250000D01*
X131375000Y-15250000D02*
X131375000Y-15375000D01*
X131375000Y-15375000D02*
X131500000Y-15375000D01*
X131500000Y-15375000D02*
X131500000Y-15500000D01*
X131500000Y-15500000D02*
X131625000Y-15500000D01*
X131625000Y-15500000D02*
X131625000Y-15625000D01*
X131625000Y-15625000D02*
X131750000Y-15625000D01*
X131750000Y-15625000D02*
X131750000Y-15750000D01*
X131750000Y-15750000D02*
X131875000Y-15750000D01*
X131875000Y-15750000D02*
X131875000Y-15875000D01*
X131875000Y-15875000D02*
X132000000Y-15875000D01*
%TO.N,PN_DWL_REQ*%
X80375000Y-30000000D02*
X77500000Y-30000000D01*
X77500000Y-30000000D02*
X77500000Y-29875000D01*
X77500000Y-29875000D02*
X76125000Y-29875000D01*
X76125000Y-29875000D02*
X76125000Y-29750000D01*
X76125000Y-29750000D02*
X76000000Y-29750000D01*
X76000000Y-29750000D02*
X76000000Y-29625000D01*
X76000000Y-29625000D02*
X75875000Y-29625000D01*
X75875000Y-29625000D02*
X75875000Y-29500000D01*
X75875000Y-29500000D02*
X75750000Y-29500000D01*
X75750000Y-29500000D02*
X75750000Y-29375000D01*
X75750000Y-29375000D02*
X75625000Y-29375000D01*
X75625000Y-29375000D02*
X75625000Y-29250000D01*
X75625000Y-29250000D02*
X75500000Y-29250000D01*
X75500000Y-29250000D02*
X75500000Y-29125000D01*
X75500000Y-29125000D02*
X75375000Y-29125000D01*
X75375000Y-29125000D02*
X75375000Y-29000000D01*
X75375000Y-29000000D02*
X75250000Y-29000000D01*
X75250000Y-29000000D02*
X75250000Y-28875000D01*
X75250000Y-28875000D02*
X75125000Y-28875000D01*
X75125000Y-28875000D02*
X75125000Y-28750000D01*
X75125000Y-28750000D02*
X75000000Y-28750000D01*
X75000000Y-28750000D02*
X75000000Y-28625000D01*
%TO.N,PN_IRQ*%
X82375000Y-31375000D02*
X82375000Y-39125000D01*
X82375000Y-39125000D02*
X83000000Y-39125000D01*
X83000000Y-39125000D02*
X83000000Y-39250000D01*
X83000000Y-39250000D02*
X83125000Y-39250000D01*
X83125000Y-39250000D02*
X83125000Y-39375000D01*
X83125000Y-39375000D02*
X83250000Y-39375000D01*
X83250000Y-39375000D02*
X83250000Y-39500000D01*
X83250000Y-39500000D02*
X83375000Y-39500000D01*
X83375000Y-39500000D02*
X83375000Y-39750000D01*
X83375000Y-39750000D02*
X83625000Y-39750000D01*
%TO.N,BAT_ADC*%
X90500000Y-10625000D02*
X90500000Y-10875000D01*
X90500000Y-10875000D02*
X90375000Y-10875000D01*
X90375000Y-10875000D02*
X90375000Y-11000000D01*
X90375000Y-11000000D02*
X90250000Y-11000000D01*
X90250000Y-11000000D02*
X90250000Y-21750000D01*
X90250000Y-21750000D02*
X90375000Y-21750000D01*
X90375000Y-21750000D02*
X90375000Y-21875000D01*
X90375000Y-21875000D02*
X90500000Y-21875000D01*
X90500000Y-21875000D02*
X90500000Y-22000000D01*
X90500000Y-22000000D02*
X90625000Y-22000000D01*
X90625000Y-22000000D02*
X90625000Y-22125000D01*
X90625000Y-22125000D02*
X90750000Y-22125000D01*
X90750000Y-22125000D02*
X90750000Y-22250000D01*
X90750000Y-22250000D02*
X90875000Y-22250000D01*
X90875000Y-22250000D02*
X90875000Y-22375000D01*
X90875000Y-22375000D02*
X91000000Y-22375000D01*
X91000000Y-22375000D02*
X91000000Y-22500000D01*
X91000000Y-22500000D02*
X91125000Y-22500000D01*
X91125000Y-22500000D02*
X91125000Y-22625000D01*
X91125000Y-22625000D02*
X91250000Y-22625000D01*
X91250000Y-22625000D02*
X91250000Y-22750000D01*
X91250000Y-22750000D02*
X91375000Y-22750000D01*
X91375000Y-22750000D02*
X91375000Y-22875000D01*
X91375000Y-22875000D02*
X91500000Y-22875000D01*
X91500000Y-22875000D02*
X91500000Y-23000000D01*
X91500000Y-23000000D02*
X91625000Y-23000000D01*
X91625000Y-23000000D02*
X91625000Y-23125000D01*
X91625000Y-23125000D02*
X91750000Y-23125000D01*
X91750000Y-23125000D02*
X91750000Y-23250000D01*
X91750000Y-23250000D02*
X91875000Y-23250000D01*
X91875000Y-23250000D02*
X91875000Y-23375000D01*
X91875000Y-23375000D02*
X92000000Y-23375000D01*
X92000000Y-23375000D02*
X92000000Y-23500000D01*
X92000000Y-23500000D02*
X92125000Y-23500000D01*
X92125000Y-23500000D02*
X92125000Y-23625000D01*
X92125000Y-23625000D02*
X92250000Y-23625000D01*
X92250000Y-23625000D02*
X92250000Y-23750000D01*
X92250000Y-23750000D02*
X92375000Y-23750000D01*
X92375000Y-23750000D02*
X92375000Y-23875000D01*
X92375000Y-23875000D02*
X92500000Y-23875000D01*
X92500000Y-23875000D02*
X92500000Y-24000000D01*
X92500000Y-24000000D02*
X92625000Y-24000000D01*
%TO.N,PN_SCK_IC*%
X80375000Y-24375000D02*
X80375000Y-24625000D01*
X80375000Y-24625000D02*
X80250000Y-24625000D01*
X80250000Y-24625000D02*
X80250000Y-24750000D01*
X80250000Y-24750000D02*
X80125000Y-24750000D01*
X80125000Y-24750000D02*
X80125000Y-25250000D01*
X80125000Y-25250000D02*
X80250000Y-25250000D01*
X80250000Y-25250000D02*
X80250000Y-25375000D01*
X80250000Y-25375000D02*
X80375000Y-25375000D01*
X80375000Y-25375000D02*
X80375000Y-25500000D01*
X80375000Y-25500000D02*
X80500000Y-25500000D01*
X80500000Y-25500000D02*
X80500000Y-25625000D01*
X80500000Y-25625000D02*
X83875000Y-25625000D01*
%TO.N,STATUS_LED*%
X101125000Y-19500000D02*
X105125000Y-19500000D01*
X105125000Y-19500000D02*
X105125000Y-19375000D01*
X105125000Y-19375000D02*
X105250000Y-19375000D01*
X105250000Y-19375000D02*
X105250000Y-19250000D01*
X105250000Y-19250000D02*
X144875000Y-19250000D01*
X144875000Y-19250000D02*
X144875000Y-19125000D01*
X144875000Y-19125000D02*
X145000000Y-19125000D01*
%TO.N,PN_MISO*%
X108625000Y-13750000D02*
X101875000Y-13750000D01*
X101875000Y-13750000D02*
X101875000Y-14125000D01*
X101875000Y-14125000D02*
X101750000Y-14125000D01*
X101750000Y-14125000D02*
X101750000Y-14250000D01*
X101750000Y-14250000D02*
X101625000Y-14250000D01*
X101625000Y-14250000D02*
X101625000Y-14375000D01*
X101625000Y-14375000D02*
X101500000Y-14375000D01*
X101500000Y-14375000D02*
X101500000Y-14500000D01*
X101500000Y-14500000D02*
X101000000Y-14500000D01*
X101000000Y-14500000D02*
X101000000Y-14625000D01*
X101000000Y-14625000D02*
X100875000Y-14625000D01*
X100875000Y-14625000D02*
X100875000Y-14750000D01*
X100875000Y-14750000D02*
X100750000Y-14750000D01*
X100750000Y-14750000D02*
X100750000Y-14875000D01*
X100750000Y-14875000D02*
X100625000Y-14875000D01*
X100625000Y-14875000D02*
X100625000Y-15000000D01*
X100625000Y-15000000D02*
X100500000Y-15000000D01*
X100500000Y-15000000D02*
X100500000Y-15125000D01*
X100500000Y-15125000D02*
X100375000Y-15125000D01*
X100375000Y-15125000D02*
X100375000Y-15250000D01*
X100375000Y-15250000D02*
X100250000Y-15250000D01*
X100250000Y-15250000D02*
X100250000Y-15375000D01*
X100250000Y-15375000D02*
X100125000Y-15375000D01*
X100125000Y-15375000D02*
X100125000Y-15500000D01*
X100125000Y-15500000D02*
X100000000Y-15500000D01*
X100000000Y-15500000D02*
X100000000Y-15625000D01*
X100000000Y-15625000D02*
X99875000Y-15625000D01*
X99875000Y-15625000D02*
X99875000Y-15750000D01*
X99875000Y-15750000D02*
X99750000Y-15750000D01*
X99750000Y-15750000D02*
X99750000Y-15875000D01*
X99750000Y-15875000D02*
X99625000Y-15875000D01*
X99625000Y-15875000D02*
X99625000Y-17125000D01*
X99625000Y-17125000D02*
X99500000Y-17125000D01*
X99500000Y-17125000D02*
X99500000Y-17250000D01*
X99500000Y-17250000D02*
X99375000Y-17250000D01*
X99375000Y-17250000D02*
X99375000Y-17375000D01*
X99375000Y-17375000D02*
X99250000Y-17375000D01*
X99250000Y-17375000D02*
X99250000Y-17500000D01*
X99250000Y-17500000D02*
X98000000Y-17500000D01*
X98000000Y-17500000D02*
X98000000Y-17625000D01*
X98000000Y-17625000D02*
X97875000Y-17625000D01*
X97875000Y-17625000D02*
X97875000Y-17750000D01*
X97875000Y-17750000D02*
X97750000Y-17750000D01*
X97750000Y-17750000D02*
X97750000Y-17875000D01*
X97750000Y-17875000D02*
X97625000Y-17875000D01*
X97625000Y-17875000D02*
X97625000Y-18000000D01*
X97625000Y-18000000D02*
X97500000Y-18000000D01*
X97500000Y-18000000D02*
X97500000Y-18125000D01*
X97500000Y-18125000D02*
X97375000Y-18125000D01*
X97375000Y-18125000D02*
X97375000Y-18250000D01*
X97375000Y-18250000D02*
X97250000Y-18250000D01*
X97250000Y-18250000D02*
X97250000Y-18375000D01*
X97250000Y-18375000D02*
X97125000Y-18375000D01*
X97125000Y-18375000D02*
X97125000Y-18500000D01*
X97125000Y-18500000D02*
X97000000Y-18500000D01*
X97000000Y-18500000D02*
X97000000Y-18625000D01*
X97000000Y-18625000D02*
X96875000Y-18625000D01*
X96875000Y-18625000D02*
X96875000Y-18750000D01*
X96875000Y-18750000D02*
X96750000Y-18750000D01*
X96750000Y-18750000D02*
X96750000Y-18875000D01*
X96750000Y-18875000D02*
X96625000Y-18875000D01*
X96625000Y-18875000D02*
X96625000Y-19000000D01*
X96625000Y-19000000D02*
X96500000Y-19000000D01*
X96500000Y-19000000D02*
X96500000Y-19125000D01*
X96500000Y-19125000D02*
X96375000Y-19125000D01*
X96375000Y-19125000D02*
X96375000Y-19250000D01*
X96375000Y-19250000D02*
X96250000Y-19250000D01*
X96250000Y-19250000D02*
X96250000Y-19375000D01*
X96250000Y-19375000D02*
X96125000Y-19375000D01*
X96125000Y-19375000D02*
X96125000Y-19500000D01*
X96125000Y-19500000D02*
X96000000Y-19500000D01*
X96000000Y-19500000D02*
X96000000Y-19625000D01*
X96000000Y-19625000D02*
X95875000Y-19625000D01*
X95875000Y-19625000D02*
X95875000Y-19750000D01*
X95875000Y-19750000D02*
X95750000Y-19750000D01*
X95750000Y-19750000D02*
X95750000Y-19875000D01*
X95750000Y-19875000D02*
X95625000Y-19875000D01*
X95625000Y-19875000D02*
X95625000Y-20000000D01*
X95625000Y-20000000D02*
X95500000Y-20000000D01*
X95500000Y-20000000D02*
X95500000Y-20125000D01*
X95500000Y-20125000D02*
X95375000Y-20125000D01*
X95375000Y-20125000D02*
X95375000Y-20250000D01*
X95375000Y-20250000D02*
X95250000Y-20250000D01*
X95250000Y-20250000D02*
X95250000Y-20375000D01*
X95250000Y-20375000D02*
X95125000Y-20375000D01*
X95125000Y-20375000D02*
X95125000Y-20500000D01*
X95125000Y-20500000D02*
X95000000Y-20500000D01*
X95000000Y-20500000D02*
X95000000Y-20625000D01*
X95000000Y-20625000D02*
X94875000Y-20625000D01*
X94875000Y-20625000D02*
X94875000Y-20750000D01*
X94875000Y-20750000D02*
X94750000Y-20750000D01*
X94750000Y-20750000D02*
X94750000Y-20875000D01*
X94750000Y-20875000D02*
X94625000Y-20875000D01*
X94625000Y-20875000D02*
X94625000Y-21000000D01*
X94625000Y-21000000D02*
X94500000Y-21000000D01*
X94500000Y-21000000D02*
X94500000Y-21125000D01*
X94500000Y-21125000D02*
X94375000Y-21125000D01*
X94375000Y-21125000D02*
X94375000Y-21250000D01*
X94375000Y-21250000D02*
X94250000Y-21250000D01*
X94250000Y-21250000D02*
X94250000Y-21375000D01*
X94250000Y-21375000D02*
X94125000Y-21375000D01*
X94125000Y-21375000D02*
X94125000Y-21500000D01*
X94125000Y-21500000D02*
X94000000Y-21500000D01*
X94000000Y-21500000D02*
X94000000Y-21625000D01*
X94000000Y-21625000D02*
X93875000Y-21625000D01*
X93875000Y-21625000D02*
X93875000Y-21750000D01*
X93875000Y-21750000D02*
X93750000Y-21750000D01*
X93750000Y-21750000D02*
X93750000Y-21875000D01*
X93750000Y-21875000D02*
X93625000Y-21875000D01*
X93625000Y-21875000D02*
X93625000Y-22000000D01*
X93625000Y-22000000D02*
X93500000Y-22000000D01*
X93500000Y-22000000D02*
X93500000Y-22125000D01*
X93500000Y-22125000D02*
X93375000Y-22125000D01*
X93375000Y-22125000D02*
X93375000Y-22250000D01*
X93375000Y-22250000D02*
X93250000Y-22250000D01*
X93250000Y-22250000D02*
X93250000Y-24250000D01*
X93250000Y-24250000D02*
X93125000Y-24250000D01*
X93125000Y-24250000D02*
X93125000Y-24375000D01*
X93125000Y-24375000D02*
X93000000Y-24375000D01*
X93000000Y-24375000D02*
X93000000Y-24500000D01*
X93000000Y-24500000D02*
X92875000Y-24500000D01*
X92875000Y-24500000D02*
X92875000Y-24625000D01*
X92875000Y-24625000D02*
X90875000Y-24625000D01*
X90875000Y-24625000D02*
X90875000Y-24750000D01*
X90875000Y-24750000D02*
X90750000Y-24750000D01*
X90750000Y-24750000D02*
X90750000Y-24875000D01*
X90750000Y-24875000D02*
X90625000Y-24875000D01*
X90625000Y-24875000D02*
X90625000Y-25000000D01*
X90625000Y-25000000D02*
X90500000Y-25000000D01*
X90500000Y-25000000D02*
X90500000Y-25125000D01*
X90500000Y-25125000D02*
X90375000Y-25125000D01*
X90375000Y-25125000D02*
X90375000Y-25250000D01*
X90375000Y-25250000D02*
X90250000Y-25250000D01*
X90250000Y-25250000D02*
X90250000Y-25375000D01*
X90250000Y-25375000D02*
X90125000Y-25375000D01*
X90125000Y-25375000D02*
X90125000Y-25625000D01*
X90125000Y-25625000D02*
X90000000Y-25625000D01*
X90000000Y-25625000D02*
X90000000Y-25750000D01*
X90000000Y-25750000D02*
X89875000Y-25750000D01*
X89875000Y-25750000D02*
X89875000Y-25875000D01*
X89875000Y-25875000D02*
X89750000Y-25875000D01*
X89750000Y-25875000D02*
X89750000Y-26000000D01*
X89750000Y-26000000D02*
X89500000Y-26000000D01*
X89500000Y-26000000D02*
X89500000Y-26125000D01*
X89500000Y-26125000D02*
X89375000Y-26125000D01*
X89375000Y-26125000D02*
X89375000Y-26250000D01*
X89375000Y-26250000D02*
X89250000Y-26250000D01*
X89250000Y-26250000D02*
X89250000Y-26375000D01*
X89250000Y-26375000D02*
X89125000Y-26375000D01*
X89125000Y-26375000D02*
X89125000Y-26500000D01*
X89125000Y-26500000D02*
X89000000Y-26500000D01*
X89000000Y-26500000D02*
X89000000Y-26625000D01*
X89000000Y-26625000D02*
X88875000Y-26625000D01*
X88875000Y-26625000D02*
X88875000Y-26750000D01*
X88875000Y-26750000D02*
X88750000Y-26750000D01*
X88750000Y-26750000D02*
X88750000Y-26875000D01*
X88750000Y-26875000D02*
X88625000Y-26875000D01*
X88625000Y-26875000D02*
X88625000Y-27000000D01*
X88625000Y-27000000D02*
X88500000Y-27000000D01*
X88500000Y-27000000D02*
X88500000Y-27125000D01*
X88500000Y-27125000D02*
X88375000Y-27125000D01*
X88375000Y-27125000D02*
X88375000Y-27250000D01*
X88375000Y-27250000D02*
X88250000Y-27250000D01*
X88250000Y-27250000D02*
X88250000Y-27375000D01*
X88250000Y-27375000D02*
X88125000Y-27375000D01*
X88125000Y-27375000D02*
X88125000Y-27500000D01*
X88125000Y-27500000D02*
X88000000Y-27500000D01*
X88000000Y-27500000D02*
X88000000Y-27625000D01*
X88000000Y-27625000D02*
X87875000Y-27625000D01*
X87875000Y-27625000D02*
X87875000Y-27750000D01*
X87875000Y-27750000D02*
X87750000Y-27750000D01*
X87750000Y-27750000D02*
X87750000Y-27875000D01*
X87750000Y-27875000D02*
X87625000Y-27875000D01*
X87625000Y-27875000D02*
X87625000Y-28000000D01*
X87625000Y-28000000D02*
X87500000Y-28000000D01*
X87500000Y-28000000D02*
X87500000Y-28125000D01*
%TO.N,PN_NSS*%
X108625000Y-17500000D02*
X99875000Y-17500000D01*
X99875000Y-17500000D02*
X99875000Y-17625000D01*
X99875000Y-17625000D02*
X99750000Y-17625000D01*
X99750000Y-17625000D02*
X99750000Y-17750000D01*
X99750000Y-17750000D02*
X99625000Y-17750000D01*
X99625000Y-17750000D02*
X99625000Y-17875000D01*
X99625000Y-17875000D02*
X99375000Y-17875000D01*
X99375000Y-17875000D02*
X99375000Y-18000000D01*
X99375000Y-18000000D02*
X98250000Y-18000000D01*
X98250000Y-18000000D02*
X98250000Y-18125000D01*
X98250000Y-18125000D02*
X98125000Y-18125000D01*
X98125000Y-18125000D02*
X98125000Y-18250000D01*
X98125000Y-18250000D02*
X98000000Y-18250000D01*
X98000000Y-18250000D02*
X98000000Y-18375000D01*
X98000000Y-18375000D02*
X97875000Y-18375000D01*
X97875000Y-18375000D02*
X97875000Y-18500000D01*
X97875000Y-18500000D02*
X97750000Y-18500000D01*
X97750000Y-18500000D02*
X97750000Y-18625000D01*
X97750000Y-18625000D02*
X97625000Y-18625000D01*
X97625000Y-18625000D02*
X97625000Y-18750000D01*
X97625000Y-18750000D02*
X97500000Y-18750000D01*
X97500000Y-18750000D02*
X97500000Y-18875000D01*
X97500000Y-18875000D02*
X97375000Y-18875000D01*
X97375000Y-18875000D02*
X97375000Y-19000000D01*
X97375000Y-19000000D02*
X97250000Y-19000000D01*
X97250000Y-19000000D02*
X97250000Y-19125000D01*
X97250000Y-19125000D02*
X97125000Y-19125000D01*
X97125000Y-19125000D02*
X97125000Y-19250000D01*
X97125000Y-19250000D02*
X97000000Y-19250000D01*
X97000000Y-19250000D02*
X97000000Y-19375000D01*
X97000000Y-19375000D02*
X96875000Y-19375000D01*
X96875000Y-19375000D02*
X96875000Y-19500000D01*
X96875000Y-19500000D02*
X96750000Y-19500000D01*
X96750000Y-19500000D02*
X96750000Y-19625000D01*
X96750000Y-19625000D02*
X96625000Y-19625000D01*
X96625000Y-19625000D02*
X96625000Y-19750000D01*
X96625000Y-19750000D02*
X96500000Y-19750000D01*
X96500000Y-19750000D02*
X96500000Y-19875000D01*
X96500000Y-19875000D02*
X96375000Y-19875000D01*
X96375000Y-19875000D02*
X96375000Y-20000000D01*
X96375000Y-20000000D02*
X96250000Y-20000000D01*
X96250000Y-20000000D02*
X96250000Y-20125000D01*
X96250000Y-20125000D02*
X96125000Y-20125000D01*
X96125000Y-20125000D02*
X96125000Y-20250000D01*
X96125000Y-20250000D02*
X96000000Y-20250000D01*
X96000000Y-20250000D02*
X96000000Y-20375000D01*
X96000000Y-20375000D02*
X95875000Y-20375000D01*
X95875000Y-20375000D02*
X95875000Y-20500000D01*
X95875000Y-20500000D02*
X95750000Y-20500000D01*
X95750000Y-20500000D02*
X95750000Y-20625000D01*
X95750000Y-20625000D02*
X95625000Y-20625000D01*
X95625000Y-20625000D02*
X95625000Y-20750000D01*
X95625000Y-20750000D02*
X95500000Y-20750000D01*
X95500000Y-20750000D02*
X95500000Y-20875000D01*
X95500000Y-20875000D02*
X95375000Y-20875000D01*
X95375000Y-20875000D02*
X95375000Y-21000000D01*
X95375000Y-21000000D02*
X95250000Y-21000000D01*
X95250000Y-21000000D02*
X95250000Y-21125000D01*
X95250000Y-21125000D02*
X95125000Y-21125000D01*
X95125000Y-21125000D02*
X95125000Y-21250000D01*
X95125000Y-21250000D02*
X95000000Y-21250000D01*
X95000000Y-21250000D02*
X95000000Y-21375000D01*
X95000000Y-21375000D02*
X94875000Y-21375000D01*
X94875000Y-21375000D02*
X94875000Y-21500000D01*
X94875000Y-21500000D02*
X94750000Y-21500000D01*
X94750000Y-21500000D02*
X94750000Y-21625000D01*
X94750000Y-21625000D02*
X94625000Y-21625000D01*
X94625000Y-21625000D02*
X94625000Y-21750000D01*
X94625000Y-21750000D02*
X94500000Y-21750000D01*
X94500000Y-21750000D02*
X94500000Y-21875000D01*
X94500000Y-21875000D02*
X94375000Y-21875000D01*
X94375000Y-21875000D02*
X94375000Y-22000000D01*
X94375000Y-22000000D02*
X94250000Y-22000000D01*
X94250000Y-22000000D02*
X94250000Y-22125000D01*
X94250000Y-22125000D02*
X94125000Y-22125000D01*
X94125000Y-22125000D02*
X94125000Y-22250000D01*
X94125000Y-22250000D02*
X94000000Y-22250000D01*
X94000000Y-22250000D02*
X94000000Y-22375000D01*
X94000000Y-22375000D02*
X93875000Y-22375000D01*
X93875000Y-22375000D02*
X93875000Y-22500000D01*
X93875000Y-22500000D02*
X93750000Y-22500000D01*
X93750000Y-22500000D02*
X93750000Y-24375000D01*
X93750000Y-24375000D02*
X93625000Y-24375000D01*
X93625000Y-24375000D02*
X93625000Y-24625000D01*
X93625000Y-24625000D02*
X93500000Y-24625000D01*
X93500000Y-24625000D02*
X93500000Y-24750000D01*
X93500000Y-24750000D02*
X93375000Y-24750000D01*
X93375000Y-24750000D02*
X93375000Y-24875000D01*
X93375000Y-24875000D02*
X93250000Y-24875000D01*
X93250000Y-24875000D02*
X93250000Y-25000000D01*
X93250000Y-25000000D02*
X93000000Y-25000000D01*
X93000000Y-25000000D02*
X93000000Y-25125000D01*
X93000000Y-25125000D02*
X91125000Y-25125000D01*
X91125000Y-25125000D02*
X91125000Y-25250000D01*
X91125000Y-25250000D02*
X91000000Y-25250000D01*
X91000000Y-25250000D02*
X91000000Y-25375000D01*
X91000000Y-25375000D02*
X90875000Y-25375000D01*
X90875000Y-25375000D02*
X90875000Y-25500000D01*
X90875000Y-25500000D02*
X90750000Y-25500000D01*
X90750000Y-25500000D02*
X90750000Y-25625000D01*
X90750000Y-25625000D02*
X90625000Y-25625000D01*
X90625000Y-25625000D02*
X90625000Y-25750000D01*
X90625000Y-25750000D02*
X90500000Y-25750000D01*
X90500000Y-25750000D02*
X90500000Y-26000000D01*
X90500000Y-26000000D02*
X90375000Y-26000000D01*
X90375000Y-26000000D02*
X90375000Y-26125000D01*
X90375000Y-26125000D02*
X90250000Y-26125000D01*
X90250000Y-26125000D02*
X90250000Y-26250000D01*
X90250000Y-26250000D02*
X90125000Y-26250000D01*
X90125000Y-26250000D02*
X90125000Y-26375000D01*
X90125000Y-26375000D02*
X89875000Y-26375000D01*
X89875000Y-26375000D02*
X89875000Y-26500000D01*
X89875000Y-26500000D02*
X89750000Y-26500000D01*
X89750000Y-26500000D02*
X89750000Y-26625000D01*
X89750000Y-26625000D02*
X89625000Y-26625000D01*
X89625000Y-26625000D02*
X89625000Y-26750000D01*
X89625000Y-26750000D02*
X89500000Y-26750000D01*
X89500000Y-26750000D02*
X89500000Y-26875000D01*
X89500000Y-26875000D02*
X89375000Y-26875000D01*
X89375000Y-26875000D02*
X89375000Y-27000000D01*
X89375000Y-27000000D02*
X89250000Y-27000000D01*
X89250000Y-27000000D02*
X89250000Y-27125000D01*
X89250000Y-27125000D02*
X89125000Y-27125000D01*
X89125000Y-27125000D02*
X89125000Y-27250000D01*
X89125000Y-27250000D02*
X89000000Y-27250000D01*
X89000000Y-27250000D02*
X89000000Y-27375000D01*
X89000000Y-27375000D02*
X88875000Y-27375000D01*
X88875000Y-27375000D02*
X88875000Y-27500000D01*
X88875000Y-27500000D02*
X88750000Y-27500000D01*
X88750000Y-27500000D02*
X88750000Y-27625000D01*
X88750000Y-27625000D02*
X88625000Y-27625000D01*
X88625000Y-27625000D02*
X88625000Y-27750000D01*
X88625000Y-27750000D02*
X88500000Y-27750000D01*
X88500000Y-27750000D02*
X88500000Y-27875000D01*
X88500000Y-27875000D02*
X88375000Y-27875000D01*
X88375000Y-27875000D02*
X88375000Y-28000000D01*
X88375000Y-28000000D02*
X88250000Y-28000000D01*
X88250000Y-28000000D02*
X88250000Y-28125000D01*
X88250000Y-28125000D02*
X88125000Y-28125000D01*
X88125000Y-28125000D02*
X88125000Y-28375000D01*
X88125000Y-28375000D02*
X88000000Y-28375000D01*
X88000000Y-28375000D02*
X88000000Y-28500000D01*
X88000000Y-28500000D02*
X87875000Y-28500000D01*
X87875000Y-28500000D02*
X87875000Y-28625000D01*
X87875000Y-28625000D02*
X87750000Y-28625000D01*
X87750000Y-28625000D02*
X87750000Y-28750000D01*
X87750000Y-28750000D02*
X82625000Y-28750000D01*
%TO.N,PN_SCK*%
X109000000Y-16875000D02*
X109000000Y-17125000D01*
X109000000Y-17125000D02*
X109125000Y-17125000D01*
X109125000Y-17125000D02*
X109125000Y-17250000D01*
X109125000Y-17250000D02*
X109250000Y-17250000D01*
X109250000Y-17250000D02*
X109250000Y-17750000D01*
X109250000Y-17750000D02*
X109125000Y-17750000D01*
X109125000Y-17750000D02*
X109125000Y-17875000D01*
X109125000Y-17875000D02*
X109000000Y-17875000D01*
X109000000Y-17875000D02*
X109000000Y-18000000D01*
X109000000Y-18000000D02*
X108875000Y-18000000D01*
X108875000Y-18000000D02*
X108875000Y-18125000D01*
X108875000Y-18125000D02*
X100000000Y-18125000D01*
X100000000Y-18125000D02*
X100000000Y-18250000D01*
X100000000Y-18250000D02*
X99750000Y-18250000D01*
X99750000Y-18250000D02*
X99750000Y-18375000D01*
X99750000Y-18375000D02*
X99500000Y-18375000D01*
X99500000Y-18375000D02*
X99500000Y-18500000D01*
X99500000Y-18500000D02*
X98500000Y-18500000D01*
X98500000Y-18500000D02*
X98500000Y-18625000D01*
X98500000Y-18625000D02*
X98375000Y-18625000D01*
X98375000Y-18625000D02*
X98375000Y-18750000D01*
X98375000Y-18750000D02*
X98250000Y-18750000D01*
X98250000Y-18750000D02*
X98250000Y-18875000D01*
X98250000Y-18875000D02*
X98125000Y-18875000D01*
X98125000Y-18875000D02*
X98125000Y-19000000D01*
X98125000Y-19000000D02*
X98000000Y-19000000D01*
X98000000Y-19000000D02*
X98000000Y-19125000D01*
X98000000Y-19125000D02*
X97875000Y-19125000D01*
X97875000Y-19125000D02*
X97875000Y-19250000D01*
X97875000Y-19250000D02*
X97750000Y-19250000D01*
X97750000Y-19250000D02*
X97750000Y-19375000D01*
X97750000Y-19375000D02*
X97625000Y-19375000D01*
X97625000Y-19375000D02*
X97625000Y-19500000D01*
X97625000Y-19500000D02*
X97500000Y-19500000D01*
X97500000Y-19500000D02*
X97500000Y-19625000D01*
X97500000Y-19625000D02*
X97375000Y-19625000D01*
X97375000Y-19625000D02*
X97375000Y-19750000D01*
X97375000Y-19750000D02*
X97250000Y-19750000D01*
X97250000Y-19750000D02*
X97250000Y-19875000D01*
X97250000Y-19875000D02*
X97125000Y-19875000D01*
X97125000Y-19875000D02*
X97125000Y-20000000D01*
X97125000Y-20000000D02*
X97000000Y-20000000D01*
X97000000Y-20000000D02*
X97000000Y-20125000D01*
X97000000Y-20125000D02*
X96875000Y-20125000D01*
X96875000Y-20125000D02*
X96875000Y-20250000D01*
X96875000Y-20250000D02*
X96750000Y-20250000D01*
X96750000Y-20250000D02*
X96750000Y-20375000D01*
X96750000Y-20375000D02*
X96625000Y-20375000D01*
X96625000Y-20375000D02*
X96625000Y-20500000D01*
X96625000Y-20500000D02*
X96500000Y-20500000D01*
X96500000Y-20500000D02*
X96500000Y-20625000D01*
X96500000Y-20625000D02*
X96375000Y-20625000D01*
X96375000Y-20625000D02*
X96375000Y-20750000D01*
X96375000Y-20750000D02*
X96250000Y-20750000D01*
X96250000Y-20750000D02*
X96250000Y-20875000D01*
X96250000Y-20875000D02*
X96125000Y-20875000D01*
X96125000Y-20875000D02*
X96125000Y-21000000D01*
X96125000Y-21000000D02*
X96000000Y-21000000D01*
X96000000Y-21000000D02*
X96000000Y-21125000D01*
X96000000Y-21125000D02*
X95875000Y-21125000D01*
X95875000Y-21125000D02*
X95875000Y-21250000D01*
X95875000Y-21250000D02*
X95750000Y-21250000D01*
X95750000Y-21250000D02*
X95750000Y-21375000D01*
X95750000Y-21375000D02*
X95625000Y-21375000D01*
X95625000Y-21375000D02*
X95625000Y-21500000D01*
X95625000Y-21500000D02*
X95500000Y-21500000D01*
X95500000Y-21500000D02*
X95500000Y-21625000D01*
X95500000Y-21625000D02*
X95375000Y-21625000D01*
X95375000Y-21625000D02*
X95375000Y-21750000D01*
X95375000Y-21750000D02*
X95250000Y-21750000D01*
X95250000Y-21750000D02*
X95250000Y-21875000D01*
X95250000Y-21875000D02*
X95125000Y-21875000D01*
X95125000Y-21875000D02*
X95125000Y-22000000D01*
X95125000Y-22000000D02*
X95000000Y-22000000D01*
X95000000Y-22000000D02*
X95000000Y-22125000D01*
X95000000Y-22125000D02*
X94875000Y-22125000D01*
X94875000Y-22125000D02*
X94875000Y-22250000D01*
X94875000Y-22250000D02*
X94750000Y-22250000D01*
X94750000Y-22250000D02*
X94750000Y-22375000D01*
X94750000Y-22375000D02*
X94625000Y-22375000D01*
X94625000Y-22375000D02*
X94625000Y-22500000D01*
X94625000Y-22500000D02*
X94500000Y-22500000D01*
X94500000Y-22500000D02*
X94500000Y-22625000D01*
X94500000Y-22625000D02*
X94375000Y-22625000D01*
X94375000Y-22625000D02*
X94375000Y-22750000D01*
X94375000Y-22750000D02*
X94250000Y-22750000D01*
X94250000Y-22750000D02*
X94250000Y-24500000D01*
X94250000Y-24500000D02*
X94125000Y-24500000D01*
X94125000Y-24500000D02*
X94125000Y-24750000D01*
X94125000Y-24750000D02*
X94000000Y-24750000D01*
X94000000Y-24750000D02*
X94000000Y-25000000D01*
X94000000Y-25000000D02*
X93875000Y-25000000D01*
X93875000Y-25000000D02*
X93875000Y-25125000D01*
X93875000Y-25125000D02*
X93750000Y-25125000D01*
X93750000Y-25125000D02*
X93750000Y-25250000D01*
X93750000Y-25250000D02*
X93625000Y-25250000D01*
X93625000Y-25250000D02*
X93625000Y-25375000D01*
X93625000Y-25375000D02*
X93375000Y-25375000D01*
X93375000Y-25375000D02*
X93375000Y-25500000D01*
X93375000Y-25500000D02*
X93125000Y-25500000D01*
X93125000Y-25500000D02*
X93125000Y-25625000D01*
X93125000Y-25625000D02*
X91375000Y-25625000D01*
X91375000Y-25625000D02*
X91375000Y-25750000D01*
X91375000Y-25750000D02*
X91250000Y-25750000D01*
X91250000Y-25750000D02*
X91250000Y-26000000D01*
%TO.N,SERVO_EN*%
X122875000Y-19875000D02*
X122875000Y-20875000D01*
X122875000Y-20875000D02*
X122750000Y-20875000D01*
X122750000Y-20875000D02*
X122750000Y-36625000D01*
X122750000Y-36625000D02*
X122625000Y-36625000D01*
X122625000Y-36625000D02*
X122625000Y-36750000D01*
X122625000Y-36750000D02*
X122500000Y-36750000D01*
X122500000Y-36750000D02*
X122500000Y-36875000D01*
X122500000Y-36875000D02*
X122375000Y-36875000D01*
X122375000Y-36875000D02*
X122375000Y-37000000D01*
%TO.N,UART_RX*%
X109500000Y-11875000D02*
X109500000Y-12750000D01*
X109500000Y-12750000D02*
X109625000Y-12750000D01*
X109625000Y-12750000D02*
X109625000Y-14500000D01*
X109625000Y-14500000D02*
X109875000Y-14500000D01*
X109875000Y-14500000D02*
X109875000Y-14625000D01*
X109875000Y-14625000D02*
X110000000Y-14625000D01*
X110000000Y-14625000D02*
X110000000Y-14750000D01*
X110000000Y-14750000D02*
X110125000Y-14750000D01*
X110125000Y-14750000D02*
X110125000Y-14875000D01*
X110125000Y-14875000D02*
X110250000Y-14875000D01*
X110250000Y-14875000D02*
X110250000Y-18250000D01*
X110250000Y-18250000D02*
X109625000Y-18250000D01*
%TO.N,UART_TX*%
X110125000Y-12375000D02*
X110125000Y-13875000D01*
X110125000Y-13875000D02*
X110250000Y-13875000D01*
X102375000Y-18875000D02*
X100875000Y-18875000D01*
X100875000Y-18875000D02*
X100875000Y-19000000D01*
X100875000Y-19000000D02*
X100750000Y-19000000D01*
X100750000Y-19000000D02*
X100750000Y-19125000D01*
X100750000Y-19125000D02*
X100625000Y-19125000D01*
X100625000Y-19125000D02*
X100625000Y-19250000D01*
X100625000Y-19250000D02*
X100500000Y-19250000D01*
X100500000Y-19250000D02*
X100500000Y-24375000D01*
X100500000Y-24375000D02*
X100875000Y-24375000D01*
X100875000Y-24375000D02*
X100875000Y-24500000D01*
X100875000Y-24500000D02*
X101000000Y-24500000D01*
X101000000Y-24500000D02*
X101000000Y-24625000D01*
X101000000Y-24625000D02*
X101125000Y-24625000D01*
X101125000Y-24625000D02*
X101125000Y-24750000D01*
X101125000Y-24750000D02*
X101250000Y-24750000D01*
X101250000Y-24750000D02*
X101250000Y-28125000D01*
X101250000Y-28125000D02*
X101375000Y-28125000D01*
X101375000Y-28125000D02*
X101375000Y-28250000D01*
X101375000Y-28250000D02*
X101500000Y-28250000D01*
X101500000Y-28250000D02*
X101500000Y-28375000D01*
X101500000Y-28375000D02*
X101625000Y-28375000D01*
X101625000Y-28375000D02*
X101625000Y-28500000D01*
X101625000Y-28500000D02*
X101750000Y-28500000D01*
X101750000Y-28500000D02*
X101750000Y-28625000D01*
X101750000Y-28625000D02*
X101875000Y-28625000D01*
X101875000Y-28625000D02*
X101875000Y-28750000D01*
X101875000Y-28750000D02*
X102000000Y-28750000D01*
X102000000Y-28750000D02*
X102000000Y-28875000D01*
X102000000Y-28875000D02*
X102125000Y-28875000D01*
X102125000Y-28875000D02*
X102125000Y-29000000D01*
X102125000Y-29000000D02*
X102250000Y-29000000D01*
X102250000Y-29000000D02*
X102250000Y-29125000D01*
X102250000Y-29125000D02*
X102375000Y-29125000D01*
X102375000Y-29125000D02*
X102375000Y-29250000D01*
X102375000Y-29250000D02*
X102500000Y-29250000D01*
X102500000Y-29250000D02*
X102500000Y-29375000D01*
X102500000Y-29375000D02*
X102625000Y-29375000D01*
X102625000Y-29375000D02*
X102625000Y-29500000D01*
X102625000Y-29500000D02*
X102750000Y-29500000D01*
X102750000Y-29500000D02*
X102750000Y-29625000D01*
X102750000Y-29625000D02*
X102875000Y-29625000D01*
X102875000Y-29625000D02*
X102875000Y-29750000D01*
X102875000Y-29750000D02*
X103000000Y-29750000D01*
%TO.N,PN_MOSI*%
X110875000Y-14250000D02*
X110875000Y-12375000D01*
X109625000Y-10625000D02*
X91125000Y-10625000D01*
X91125000Y-10625000D02*
X91125000Y-10375000D01*
X91125000Y-10375000D02*
X91000000Y-10375000D01*
X91000000Y-10375000D02*
X91000000Y-10250000D01*
X91000000Y-10250000D02*
X90875000Y-10250000D01*
X90875000Y-10250000D02*
X90875000Y-10125000D01*
X90875000Y-10125000D02*
X90750000Y-10125000D01*
X90750000Y-10125000D02*
X90750000Y-10000000D01*
X90750000Y-10000000D02*
X90250000Y-10000000D01*
X90250000Y-10000000D02*
X90250000Y-10125000D01*
X90250000Y-10125000D02*
X90125000Y-10125000D01*
X90125000Y-10125000D02*
X90125000Y-10250000D01*
X90125000Y-10250000D02*
X90000000Y-10250000D01*
X90000000Y-10250000D02*
X90000000Y-10375000D01*
X90000000Y-10375000D02*
X89875000Y-10375000D01*
X89875000Y-10375000D02*
X89875000Y-10875000D01*
X89875000Y-10875000D02*
X89750000Y-10875000D01*
X89750000Y-10875000D02*
X89750000Y-22250000D01*
X89750000Y-22250000D02*
X89625000Y-22250000D01*
%TD*%
M02*
