%TF.GenerationSoftware,KiCad,Pcbnew,10.0.6-10.0.6~ubuntu24.04.1*%
%TF.CreationDate,2026-09-01T03:22:53+00:00*%
%TF.ProjectId,HomeKey-Lock-RevA-PN7161,486f6d65-4b65-4792-9d4c-6f636b2d5265,A*%
%TF.SameCoordinates,Original*%
%TF.FileFunction,Legend,Top*%
%TF.FilePolarity,Positive*%
%FSLAX46Y46*%
G04 Gerber Fmt 4.6, Leading zero omitted, Abs format (unit mm)*
G04 Created by KiCad (PCBNEW 10.0.6-10.0.6~ubuntu24.04.1) date 2026-09-01 03:22:53*
%MOMM*%
%LPD*%
G01*
G04 APERTURE LIST*
G04 Aperture macros list*
%AMRoundRect*
0 Rectangle with rounded corners*
0 $1 Rounding radius*
0 $2 $3 $4 $5 $6 $7 $8 $9 X,Y pos of 4 corners*
0 Add a 4 corners polygon primitive as box body*
4,1,4,$2,$3,$4,$5,$6,$7,$8,$9,$2,$3,0*
0 Add four circle primitives for the rounded corners*
1,1,$1+$1,$2,$3*
1,1,$1+$1,$4,$5*
1,1,$1+$1,$6,$7*
1,1,$1+$1,$8,$9*
0 Add four rect primitives between the rounded corners*
20,1,$1+$1,$2,$3,$4,$5,0*
20,1,$1+$1,$4,$5,$6,$7,0*
20,1,$1+$1,$6,$7,$8,$9,0*
20,1,$1+$1,$8,$9,$2,$3,0*%
%AMFreePoly0*
4,1,17,0.335278,0.685443,0.349923,0.650088,0.349923,-0.649935,0.335278,-0.685290,0.299923,-0.699935,0.000318,-0.699935,-0.000051,-0.700088,-0.300050,-0.700088,-0.335405,-0.685443,-0.350050,-0.650088,-0.350050,0.649935,-0.335405,0.685290,-0.300050,0.699935,-0.000445,0.699935,-0.000076,0.700088,0.299923,0.700088,0.335278,0.685443,0.335278,0.685443,$1*%
%AMFreePoly1*
4,1,13,0.335227,0.685443,0.349872,0.650088,0.349872,-0.649884,0.335227,-0.685239,0.299872,-0.699884,-0.300152,-0.699884,-0.335507,-0.685239,-0.350152,-0.649884,-0.350152,0.650088,-0.335507,0.685443,-0.300152,0.700088,0.299872,0.700088,0.335227,0.685443,0.335227,0.685443,$1*%
%AMFreePoly2*
4,1,17,0.335431,0.685290,0.350076,0.649935,0.350076,-0.650037,0.335431,-0.685392,0.300076,-0.700037,0.000187,-0.700037,0.000127,-0.700062,-0.299898,-0.700062,-0.335253,-0.685417,-0.349898,-0.650062,-0.349898,0.649910,-0.335253,0.685265,-0.299898,0.699910,-0.000009,0.699910,0.000051,0.699935,0.300076,0.699935,0.335431,0.685290,0.335431,0.685290,$1*%
%AMFreePoly3*
4,1,6,0.725000,-0.725000,-0.725000,-0.725000,-0.725000,0.125000,-0.125000,0.725000,0.725000,0.725000,0.725000,-0.725000,0.725000,-0.725000,$1*%
G04 Aperture macros list end*
%ADD10C,0.150000*%
%ADD11C,0.120000*%
%ADD12C,0.060000*%
%ADD13C,0.000000*%
%ADD14C,0.300000*%
%ADD15C,0.250000*%
%ADD16C,0.200000*%
%ADD17R,3.000000X3.000000*%
%ADD18C,3.000000*%
%ADD19R,1.407000X3.499000*%
%ADD20R,2.192000X2.047000*%
%ADD21O,0.588000X1.800000*%
%ADD22RoundRect,0.200000X-0.200000X-0.275000X0.200000X-0.275000X0.200000X0.275000X-0.200000X0.275000X0*%
%ADD23R,1.300000X1.300000*%
%ADD24RoundRect,0.250000X1.100000X-0.325000X1.100000X0.325000X-1.100000X0.325000X-1.100000X-0.325000X0*%
%ADD25RoundRect,0.225000X-0.225000X-0.250000X0.225000X-0.250000X0.225000X0.250000X-0.225000X0.250000X0*%
%ADD26R,0.550000X1.200000*%
%ADD27RoundRect,0.250000X0.650000X-0.325000X0.650000X0.325000X-0.650000X0.325000X-0.650000X-0.325000X0*%
%ADD28R,2.350000X3.500000*%
%ADD29R,1.200000X0.950000*%
%ADD30R,0.300000X1.300000*%
%ADD31FreePoly0,180.000000*%
%ADD32FreePoly1,180.000000*%
%ADD33FreePoly2,180.000000*%
%ADD34O,1.200000X1.800000*%
%ADD35O,1.200000X2.000000*%
%ADD36C,0.600000*%
%ADD37RoundRect,0.200000X0.275000X-0.200000X0.275000X0.200000X-0.275000X0.200000X-0.275000X-0.200000X0*%
%ADD38R,1.100000X0.600000*%
%ADD39R,0.550000X1.100000*%
%ADD40R,0.800000X0.400000*%
%ADD41R,0.400000X0.800000*%
%ADD42FreePoly3,0.000000*%
%ADD43R,1.450000X1.450000*%
%ADD44R,0.700000X0.700000*%
%ADD45RoundRect,0.225000X0.250000X-0.225000X0.250000X0.225000X-0.250000X0.225000X-0.250000X-0.225000X0*%
%ADD46R,1.600000X1.400000*%
%ADD47RoundRect,0.218750X-0.256250X0.218750X-0.256250X-0.218750X0.256250X-0.218750X0.256250X0.218750X0*%
%ADD48R,0.290000X0.900000*%
%ADD49R,0.900000X0.290000*%
%ADD50R,4.100000X4.100000*%
%ADD51R,1.400000X1.200000*%
%ADD52RoundRect,0.225000X0.225000X0.250000X-0.225000X0.250000X-0.225000X-0.250000X0.225000X-0.250000X0*%
%ADD53RoundRect,0.218750X0.218750X0.256250X-0.218750X0.256250X-0.218750X-0.256250X0.218750X-0.256250X0*%
%ADD54RoundRect,0.200000X0.200000X0.275000X-0.200000X0.275000X-0.200000X-0.275000X0.200000X-0.275000X0*%
%ADD55R,1.700000X1.700000*%
%ADD56O,1.700000X1.700000*%
%ADD57R,1.200000X1.200000*%
%ADD58C,1.200000*%
%ADD59R,4.200000X1.400000*%
%ADD60C,1.000000*%
%ADD61C,3.200000*%
G04 APERTURE END LIST*
D10*
X10452380Y-11954819D02*
X10452380Y-10954819D01*
X10452380Y-10954819D02*
X11023808Y-11954819D01*
X11023808Y-11954819D02*
X11023808Y-10954819D01*
X11833332Y-11431009D02*
X11499999Y-11431009D01*
X11499999Y-11954819D02*
X11499999Y-10954819D01*
X11499999Y-10954819D02*
X11976189Y-10954819D01*
X12928570Y-11859580D02*
X12880951Y-11907200D01*
X12880951Y-11907200D02*
X12738094Y-11954819D01*
X12738094Y-11954819D02*
X12642856Y-11954819D01*
X12642856Y-11954819D02*
X12499999Y-11907200D01*
X12499999Y-11907200D02*
X12404761Y-11811961D01*
X12404761Y-11811961D02*
X12357142Y-11716723D01*
X12357142Y-11716723D02*
X12309523Y-11526247D01*
X12309523Y-11526247D02*
X12309523Y-11383390D01*
X12309523Y-11383390D02*
X12357142Y-11192914D01*
X12357142Y-11192914D02*
X12404761Y-11097676D01*
X12404761Y-11097676D02*
X12499999Y-11002438D01*
X12499999Y-11002438D02*
X12642856Y-10954819D01*
X12642856Y-10954819D02*
X12738094Y-10954819D01*
X12738094Y-10954819D02*
X12880951Y-11002438D01*
X12880951Y-11002438D02*
X12928570Y-11050057D01*
X14071428Y-11669104D02*
X14547618Y-11669104D01*
X13976190Y-11954819D02*
X14309523Y-10954819D01*
X14309523Y-10954819D02*
X14642856Y-11954819D01*
X14976190Y-11954819D02*
X14976190Y-10954819D01*
X14976190Y-10954819D02*
X15547618Y-11954819D01*
X15547618Y-11954819D02*
X15547618Y-10954819D01*
X15880952Y-10954819D02*
X16452380Y-10954819D01*
X16166666Y-11954819D02*
X16166666Y-10954819D01*
X16785714Y-11431009D02*
X17119047Y-11431009D01*
X17261904Y-11954819D02*
X16785714Y-11954819D01*
X16785714Y-11954819D02*
X16785714Y-10954819D01*
X16785714Y-10954819D02*
X17261904Y-10954819D01*
X17690476Y-11954819D02*
X17690476Y-10954819D01*
X17690476Y-10954819D02*
X18261904Y-11954819D01*
X18261904Y-11954819D02*
X18261904Y-10954819D01*
X18738095Y-11954819D02*
X18738095Y-10954819D01*
X18738095Y-10954819D02*
X19309523Y-11954819D01*
X19309523Y-11954819D02*
X19309523Y-10954819D01*
X19738095Y-11669104D02*
X20214285Y-11669104D01*
X19642857Y-11954819D02*
X19976190Y-10954819D01*
X19976190Y-10954819D02*
X20309523Y-11954819D01*
X21309524Y-11621485D02*
X22166667Y-11621485D01*
X23309524Y-11954819D02*
X23309524Y-10954819D01*
X23309524Y-10954819D02*
X23880952Y-11954819D01*
X23880952Y-11954819D02*
X23880952Y-10954819D01*
X24547619Y-10954819D02*
X24738095Y-10954819D01*
X24738095Y-10954819D02*
X24833333Y-11002438D01*
X24833333Y-11002438D02*
X24928571Y-11097676D01*
X24928571Y-11097676D02*
X24976190Y-11288152D01*
X24976190Y-11288152D02*
X24976190Y-11621485D01*
X24976190Y-11621485D02*
X24928571Y-11811961D01*
X24928571Y-11811961D02*
X24833333Y-11907200D01*
X24833333Y-11907200D02*
X24738095Y-11954819D01*
X24738095Y-11954819D02*
X24547619Y-11954819D01*
X24547619Y-11954819D02*
X24452381Y-11907200D01*
X24452381Y-11907200D02*
X24357143Y-11811961D01*
X24357143Y-11811961D02*
X24309524Y-11621485D01*
X24309524Y-11621485D02*
X24309524Y-11288152D01*
X24309524Y-11288152D02*
X24357143Y-11097676D01*
X24357143Y-11097676D02*
X24452381Y-11002438D01*
X24452381Y-11002438D02*
X24547619Y-10954819D01*
X26166667Y-11954819D02*
X26166667Y-10954819D01*
X26166667Y-10954819D02*
X26500000Y-11669104D01*
X26500000Y-11669104D02*
X26833333Y-10954819D01*
X26833333Y-10954819D02*
X26833333Y-11954819D01*
X27309524Y-11431009D02*
X27642857Y-11431009D01*
X27785714Y-11954819D02*
X27309524Y-11954819D01*
X27309524Y-11954819D02*
X27309524Y-10954819D01*
X27309524Y-10954819D02*
X27785714Y-10954819D01*
X28071429Y-10954819D02*
X28642857Y-10954819D01*
X28357143Y-11954819D02*
X28357143Y-10954819D01*
X28928572Y-11669104D02*
X29404762Y-11669104D01*
X28833334Y-11954819D02*
X29166667Y-10954819D01*
X29166667Y-10954819D02*
X29500000Y-11954819D01*
X30309524Y-11954819D02*
X29833334Y-11954819D01*
X29833334Y-11954819D02*
X29833334Y-10954819D01*
X32119048Y-10907200D02*
X31261906Y-12192914D01*
X33214287Y-11954819D02*
X33214287Y-10954819D01*
X33214287Y-10954819D02*
X33785715Y-11954819D01*
X33785715Y-11954819D02*
X33785715Y-10954819D01*
X34452382Y-10954819D02*
X34642858Y-10954819D01*
X34642858Y-10954819D02*
X34738096Y-11002438D01*
X34738096Y-11002438D02*
X34833334Y-11097676D01*
X34833334Y-11097676D02*
X34880953Y-11288152D01*
X34880953Y-11288152D02*
X34880953Y-11621485D01*
X34880953Y-11621485D02*
X34833334Y-11811961D01*
X34833334Y-11811961D02*
X34738096Y-11907200D01*
X34738096Y-11907200D02*
X34642858Y-11954819D01*
X34642858Y-11954819D02*
X34452382Y-11954819D01*
X34452382Y-11954819D02*
X34357144Y-11907200D01*
X34357144Y-11907200D02*
X34261906Y-11811961D01*
X34261906Y-11811961D02*
X34214287Y-11621485D01*
X34214287Y-11621485D02*
X34214287Y-11288152D01*
X34214287Y-11288152D02*
X34261906Y-11097676D01*
X34261906Y-11097676D02*
X34357144Y-11002438D01*
X34357144Y-11002438D02*
X34452382Y-10954819D01*
X36642858Y-11859580D02*
X36595239Y-11907200D01*
X36595239Y-11907200D02*
X36452382Y-11954819D01*
X36452382Y-11954819D02*
X36357144Y-11954819D01*
X36357144Y-11954819D02*
X36214287Y-11907200D01*
X36214287Y-11907200D02*
X36119049Y-11811961D01*
X36119049Y-11811961D02*
X36071430Y-11716723D01*
X36071430Y-11716723D02*
X36023811Y-11526247D01*
X36023811Y-11526247D02*
X36023811Y-11383390D01*
X36023811Y-11383390D02*
X36071430Y-11192914D01*
X36071430Y-11192914D02*
X36119049Y-11097676D01*
X36119049Y-11097676D02*
X36214287Y-11002438D01*
X36214287Y-11002438D02*
X36357144Y-10954819D01*
X36357144Y-10954819D02*
X36452382Y-10954819D01*
X36452382Y-10954819D02*
X36595239Y-11002438D01*
X36595239Y-11002438D02*
X36642858Y-11050057D01*
X37261906Y-10954819D02*
X37452382Y-10954819D01*
X37452382Y-10954819D02*
X37547620Y-11002438D01*
X37547620Y-11002438D02*
X37642858Y-11097676D01*
X37642858Y-11097676D02*
X37690477Y-11288152D01*
X37690477Y-11288152D02*
X37690477Y-11621485D01*
X37690477Y-11621485D02*
X37642858Y-11811961D01*
X37642858Y-11811961D02*
X37547620Y-11907200D01*
X37547620Y-11907200D02*
X37452382Y-11954819D01*
X37452382Y-11954819D02*
X37261906Y-11954819D01*
X37261906Y-11954819D02*
X37166668Y-11907200D01*
X37166668Y-11907200D02*
X37071430Y-11811961D01*
X37071430Y-11811961D02*
X37023811Y-11621485D01*
X37023811Y-11621485D02*
X37023811Y-11288152D01*
X37023811Y-11288152D02*
X37071430Y-11097676D01*
X37071430Y-11097676D02*
X37166668Y-11002438D01*
X37166668Y-11002438D02*
X37261906Y-10954819D01*
X38119049Y-11954819D02*
X38119049Y-10954819D01*
X38119049Y-10954819D02*
X38500001Y-10954819D01*
X38500001Y-10954819D02*
X38595239Y-11002438D01*
X38595239Y-11002438D02*
X38642858Y-11050057D01*
X38642858Y-11050057D02*
X38690477Y-11145295D01*
X38690477Y-11145295D02*
X38690477Y-11288152D01*
X38690477Y-11288152D02*
X38642858Y-11383390D01*
X38642858Y-11383390D02*
X38595239Y-11431009D01*
X38595239Y-11431009D02*
X38500001Y-11478628D01*
X38500001Y-11478628D02*
X38119049Y-11478628D01*
X39119049Y-11954819D02*
X39119049Y-10954819D01*
X39119049Y-10954819D02*
X39500001Y-10954819D01*
X39500001Y-10954819D02*
X39595239Y-11002438D01*
X39595239Y-11002438D02*
X39642858Y-11050057D01*
X39642858Y-11050057D02*
X39690477Y-11145295D01*
X39690477Y-11145295D02*
X39690477Y-11288152D01*
X39690477Y-11288152D02*
X39642858Y-11383390D01*
X39642858Y-11383390D02*
X39595239Y-11431009D01*
X39595239Y-11431009D02*
X39500001Y-11478628D01*
X39500001Y-11478628D02*
X39119049Y-11478628D01*
X40119049Y-11431009D02*
X40452382Y-11431009D01*
X40595239Y-11954819D02*
X40119049Y-11954819D01*
X40119049Y-11954819D02*
X40119049Y-10954819D01*
X40119049Y-10954819D02*
X40595239Y-10954819D01*
X41595239Y-11954819D02*
X41261906Y-11478628D01*
X41023811Y-11954819D02*
X41023811Y-10954819D01*
X41023811Y-10954819D02*
X41404763Y-10954819D01*
X41404763Y-10954819D02*
X41500001Y-11002438D01*
X41500001Y-11002438D02*
X41547620Y-11050057D01*
X41547620Y-11050057D02*
X41595239Y-11145295D01*
X41595239Y-11145295D02*
X41595239Y-11288152D01*
X41595239Y-11288152D02*
X41547620Y-11383390D01*
X41547620Y-11383390D02*
X41500001Y-11431009D01*
X41500001Y-11431009D02*
X41404763Y-11478628D01*
X41404763Y-11478628D02*
X41023811Y-11478628D01*
X55742857Y-73047342D02*
X55742857Y-71847342D01*
X55742857Y-72418771D02*
X56428571Y-72418771D01*
X56428571Y-73047342D02*
X56428571Y-71847342D01*
X57171428Y-73047342D02*
X57057143Y-72990200D01*
X57057143Y-72990200D02*
X57000000Y-72933057D01*
X57000000Y-72933057D02*
X56942857Y-72818771D01*
X56942857Y-72818771D02*
X56942857Y-72475914D01*
X56942857Y-72475914D02*
X57000000Y-72361628D01*
X57000000Y-72361628D02*
X57057143Y-72304485D01*
X57057143Y-72304485D02*
X57171428Y-72247342D01*
X57171428Y-72247342D02*
X57342857Y-72247342D01*
X57342857Y-72247342D02*
X57457143Y-72304485D01*
X57457143Y-72304485D02*
X57514286Y-72361628D01*
X57514286Y-72361628D02*
X57571428Y-72475914D01*
X57571428Y-72475914D02*
X57571428Y-72818771D01*
X57571428Y-72818771D02*
X57514286Y-72933057D01*
X57514286Y-72933057D02*
X57457143Y-72990200D01*
X57457143Y-72990200D02*
X57342857Y-73047342D01*
X57342857Y-73047342D02*
X57171428Y-73047342D01*
X58085714Y-73047342D02*
X58085714Y-72247342D01*
X58085714Y-72361628D02*
X58142857Y-72304485D01*
X58142857Y-72304485D02*
X58257142Y-72247342D01*
X58257142Y-72247342D02*
X58428571Y-72247342D01*
X58428571Y-72247342D02*
X58542857Y-72304485D01*
X58542857Y-72304485D02*
X58600000Y-72418771D01*
X58600000Y-72418771D02*
X58600000Y-73047342D01*
X58600000Y-72418771D02*
X58657142Y-72304485D01*
X58657142Y-72304485D02*
X58771428Y-72247342D01*
X58771428Y-72247342D02*
X58942857Y-72247342D01*
X58942857Y-72247342D02*
X59057142Y-72304485D01*
X59057142Y-72304485D02*
X59114285Y-72418771D01*
X59114285Y-72418771D02*
X59114285Y-73047342D01*
X60142857Y-72990200D02*
X60028571Y-73047342D01*
X60028571Y-73047342D02*
X59800000Y-73047342D01*
X59800000Y-73047342D02*
X59685714Y-72990200D01*
X59685714Y-72990200D02*
X59628571Y-72875914D01*
X59628571Y-72875914D02*
X59628571Y-72418771D01*
X59628571Y-72418771D02*
X59685714Y-72304485D01*
X59685714Y-72304485D02*
X59800000Y-72247342D01*
X59800000Y-72247342D02*
X60028571Y-72247342D01*
X60028571Y-72247342D02*
X60142857Y-72304485D01*
X60142857Y-72304485D02*
X60200000Y-72418771D01*
X60200000Y-72418771D02*
X60200000Y-72533057D01*
X60200000Y-72533057D02*
X59628571Y-72647342D01*
X60714285Y-73047342D02*
X60714285Y-71847342D01*
X61399999Y-73047342D02*
X60885713Y-72361628D01*
X61399999Y-71847342D02*
X60714285Y-72533057D01*
X62371428Y-72990200D02*
X62257142Y-73047342D01*
X62257142Y-73047342D02*
X62028571Y-73047342D01*
X62028571Y-73047342D02*
X61914285Y-72990200D01*
X61914285Y-72990200D02*
X61857142Y-72875914D01*
X61857142Y-72875914D02*
X61857142Y-72418771D01*
X61857142Y-72418771D02*
X61914285Y-72304485D01*
X61914285Y-72304485D02*
X62028571Y-72247342D01*
X62028571Y-72247342D02*
X62257142Y-72247342D01*
X62257142Y-72247342D02*
X62371428Y-72304485D01*
X62371428Y-72304485D02*
X62428571Y-72418771D01*
X62428571Y-72418771D02*
X62428571Y-72533057D01*
X62428571Y-72533057D02*
X61857142Y-72647342D01*
X62828570Y-72247342D02*
X63114284Y-73047342D01*
X63399999Y-72247342D02*
X63114284Y-73047342D01*
X63114284Y-73047342D02*
X62999999Y-73333057D01*
X62999999Y-73333057D02*
X62942856Y-73390200D01*
X62942856Y-73390200D02*
X62828570Y-73447342D01*
X65342856Y-73047342D02*
X64771428Y-73047342D01*
X64771428Y-73047342D02*
X64771428Y-71847342D01*
X65914285Y-73047342D02*
X65800000Y-72990200D01*
X65800000Y-72990200D02*
X65742857Y-72933057D01*
X65742857Y-72933057D02*
X65685714Y-72818771D01*
X65685714Y-72818771D02*
X65685714Y-72475914D01*
X65685714Y-72475914D02*
X65742857Y-72361628D01*
X65742857Y-72361628D02*
X65800000Y-72304485D01*
X65800000Y-72304485D02*
X65914285Y-72247342D01*
X65914285Y-72247342D02*
X66085714Y-72247342D01*
X66085714Y-72247342D02*
X66200000Y-72304485D01*
X66200000Y-72304485D02*
X66257143Y-72361628D01*
X66257143Y-72361628D02*
X66314285Y-72475914D01*
X66314285Y-72475914D02*
X66314285Y-72818771D01*
X66314285Y-72818771D02*
X66257143Y-72933057D01*
X66257143Y-72933057D02*
X66200000Y-72990200D01*
X66200000Y-72990200D02*
X66085714Y-73047342D01*
X66085714Y-73047342D02*
X65914285Y-73047342D01*
X67342857Y-72990200D02*
X67228571Y-73047342D01*
X67228571Y-73047342D02*
X66999999Y-73047342D01*
X66999999Y-73047342D02*
X66885714Y-72990200D01*
X66885714Y-72990200D02*
X66828571Y-72933057D01*
X66828571Y-72933057D02*
X66771428Y-72818771D01*
X66771428Y-72818771D02*
X66771428Y-72475914D01*
X66771428Y-72475914D02*
X66828571Y-72361628D01*
X66828571Y-72361628D02*
X66885714Y-72304485D01*
X66885714Y-72304485D02*
X66999999Y-72247342D01*
X66999999Y-72247342D02*
X67228571Y-72247342D01*
X67228571Y-72247342D02*
X67342857Y-72304485D01*
X67857142Y-73047342D02*
X67857142Y-71847342D01*
X67971428Y-72590200D02*
X68314285Y-73047342D01*
X68314285Y-72247342D02*
X67857142Y-72704485D01*
X70428571Y-73047342D02*
X70028571Y-72475914D01*
X69742857Y-73047342D02*
X69742857Y-71847342D01*
X69742857Y-71847342D02*
X70200000Y-71847342D01*
X70200000Y-71847342D02*
X70314285Y-71904485D01*
X70314285Y-71904485D02*
X70371428Y-71961628D01*
X70371428Y-71961628D02*
X70428571Y-72075914D01*
X70428571Y-72075914D02*
X70428571Y-72247342D01*
X70428571Y-72247342D02*
X70371428Y-72361628D01*
X70371428Y-72361628D02*
X70314285Y-72418771D01*
X70314285Y-72418771D02*
X70200000Y-72475914D01*
X70200000Y-72475914D02*
X69742857Y-72475914D01*
X71400000Y-72990200D02*
X71285714Y-73047342D01*
X71285714Y-73047342D02*
X71057143Y-73047342D01*
X71057143Y-73047342D02*
X70942857Y-72990200D01*
X70942857Y-72990200D02*
X70885714Y-72875914D01*
X70885714Y-72875914D02*
X70885714Y-72418771D01*
X70885714Y-72418771D02*
X70942857Y-72304485D01*
X70942857Y-72304485D02*
X71057143Y-72247342D01*
X71057143Y-72247342D02*
X71285714Y-72247342D01*
X71285714Y-72247342D02*
X71400000Y-72304485D01*
X71400000Y-72304485D02*
X71457143Y-72418771D01*
X71457143Y-72418771D02*
X71457143Y-72533057D01*
X71457143Y-72533057D02*
X70885714Y-72647342D01*
X71857142Y-72247342D02*
X72142856Y-73047342D01*
X72142856Y-73047342D02*
X72428571Y-72247342D01*
X73742857Y-72704485D02*
X74314286Y-72704485D01*
X73628571Y-73047342D02*
X74028571Y-71847342D01*
X74028571Y-71847342D02*
X74428571Y-73047342D01*
X19159522Y-62385427D02*
X19159522Y-61535427D01*
X19159522Y-61535427D02*
X19483332Y-61535427D01*
X19483332Y-61535427D02*
X19564284Y-61575903D01*
X19564284Y-61575903D02*
X19604761Y-61616379D01*
X19604761Y-61616379D02*
X19645237Y-61697331D01*
X19645237Y-61697331D02*
X19645237Y-61818760D01*
X19645237Y-61818760D02*
X19604761Y-61899712D01*
X19604761Y-61899712D02*
X19564284Y-61940189D01*
X19564284Y-61940189D02*
X19483332Y-61980665D01*
X19483332Y-61980665D02*
X19159522Y-61980665D01*
X20009522Y-62385427D02*
X20009522Y-61535427D01*
X20009522Y-61535427D02*
X20495237Y-62385427D01*
X20495237Y-62385427D02*
X20495237Y-61535427D01*
X20819046Y-61535427D02*
X21385713Y-61535427D01*
X21385713Y-61535427D02*
X21021427Y-62385427D01*
X22154761Y-62385427D02*
X21669046Y-62385427D01*
X21911903Y-62385427D02*
X21911903Y-61535427D01*
X21911903Y-61535427D02*
X21830951Y-61656855D01*
X21830951Y-61656855D02*
X21749999Y-61737808D01*
X21749999Y-61737808D02*
X21669046Y-61778284D01*
X22883332Y-61535427D02*
X22721427Y-61535427D01*
X22721427Y-61535427D02*
X22640475Y-61575903D01*
X22640475Y-61575903D02*
X22599999Y-61616379D01*
X22599999Y-61616379D02*
X22519046Y-61737808D01*
X22519046Y-61737808D02*
X22478570Y-61899712D01*
X22478570Y-61899712D02*
X22478570Y-62223522D01*
X22478570Y-62223522D02*
X22519046Y-62304474D01*
X22519046Y-62304474D02*
X22559523Y-62344951D01*
X22559523Y-62344951D02*
X22640475Y-62385427D01*
X22640475Y-62385427D02*
X22802380Y-62385427D01*
X22802380Y-62385427D02*
X22883332Y-62344951D01*
X22883332Y-62344951D02*
X22923808Y-62304474D01*
X22923808Y-62304474D02*
X22964285Y-62223522D01*
X22964285Y-62223522D02*
X22964285Y-62021141D01*
X22964285Y-62021141D02*
X22923808Y-61940189D01*
X22923808Y-61940189D02*
X22883332Y-61899712D01*
X22883332Y-61899712D02*
X22802380Y-61859236D01*
X22802380Y-61859236D02*
X22640475Y-61859236D01*
X22640475Y-61859236D02*
X22559523Y-61899712D01*
X22559523Y-61899712D02*
X22519046Y-61940189D01*
X22519046Y-61940189D02*
X22478570Y-62021141D01*
X23773809Y-62385427D02*
X23288094Y-62385427D01*
X23530951Y-62385427D02*
X23530951Y-61535427D01*
X23530951Y-61535427D02*
X23449999Y-61656855D01*
X23449999Y-61656855D02*
X23369047Y-61737808D01*
X23369047Y-61737808D02*
X23288094Y-61778284D01*
X24785713Y-62061617D02*
X25433333Y-62061617D01*
X25109523Y-62385427D02*
X25109523Y-61737808D01*
X26485713Y-61940189D02*
X26769047Y-61940189D01*
X26890475Y-62385427D02*
X26485713Y-62385427D01*
X26485713Y-62385427D02*
X26485713Y-61535427D01*
X26485713Y-61535427D02*
X26890475Y-61535427D01*
X27214285Y-62344951D02*
X27335714Y-62385427D01*
X27335714Y-62385427D02*
X27538095Y-62385427D01*
X27538095Y-62385427D02*
X27619047Y-62344951D01*
X27619047Y-62344951D02*
X27659523Y-62304474D01*
X27659523Y-62304474D02*
X27700000Y-62223522D01*
X27700000Y-62223522D02*
X27700000Y-62142570D01*
X27700000Y-62142570D02*
X27659523Y-62061617D01*
X27659523Y-62061617D02*
X27619047Y-62021141D01*
X27619047Y-62021141D02*
X27538095Y-61980665D01*
X27538095Y-61980665D02*
X27376190Y-61940189D01*
X27376190Y-61940189D02*
X27295238Y-61899712D01*
X27295238Y-61899712D02*
X27254761Y-61859236D01*
X27254761Y-61859236D02*
X27214285Y-61778284D01*
X27214285Y-61778284D02*
X27214285Y-61697331D01*
X27214285Y-61697331D02*
X27254761Y-61616379D01*
X27254761Y-61616379D02*
X27295238Y-61575903D01*
X27295238Y-61575903D02*
X27376190Y-61535427D01*
X27376190Y-61535427D02*
X27578571Y-61535427D01*
X27578571Y-61535427D02*
X27700000Y-61575903D01*
X28064285Y-62385427D02*
X28064285Y-61535427D01*
X28064285Y-61535427D02*
X28388095Y-61535427D01*
X28388095Y-61535427D02*
X28469047Y-61575903D01*
X28469047Y-61575903D02*
X28509524Y-61616379D01*
X28509524Y-61616379D02*
X28550000Y-61697331D01*
X28550000Y-61697331D02*
X28550000Y-61818760D01*
X28550000Y-61818760D02*
X28509524Y-61899712D01*
X28509524Y-61899712D02*
X28469047Y-61940189D01*
X28469047Y-61940189D02*
X28388095Y-61980665D01*
X28388095Y-61980665D02*
X28064285Y-61980665D01*
X28833333Y-61535427D02*
X29359524Y-61535427D01*
X29359524Y-61535427D02*
X29076190Y-61859236D01*
X29076190Y-61859236D02*
X29197619Y-61859236D01*
X29197619Y-61859236D02*
X29278571Y-61899712D01*
X29278571Y-61899712D02*
X29319047Y-61940189D01*
X29319047Y-61940189D02*
X29359524Y-62021141D01*
X29359524Y-62021141D02*
X29359524Y-62223522D01*
X29359524Y-62223522D02*
X29319047Y-62304474D01*
X29319047Y-62304474D02*
X29278571Y-62344951D01*
X29278571Y-62344951D02*
X29197619Y-62385427D01*
X29197619Y-62385427D02*
X28954762Y-62385427D01*
X28954762Y-62385427D02*
X28873809Y-62344951D01*
X28873809Y-62344951D02*
X28833333Y-62304474D01*
X29683333Y-61616379D02*
X29723809Y-61575903D01*
X29723809Y-61575903D02*
X29804762Y-61535427D01*
X29804762Y-61535427D02*
X30007143Y-61535427D01*
X30007143Y-61535427D02*
X30088095Y-61575903D01*
X30088095Y-61575903D02*
X30128571Y-61616379D01*
X30128571Y-61616379D02*
X30169048Y-61697331D01*
X30169048Y-61697331D02*
X30169048Y-61778284D01*
X30169048Y-61778284D02*
X30128571Y-61899712D01*
X30128571Y-61899712D02*
X29642857Y-62385427D01*
X29642857Y-62385427D02*
X30169048Y-62385427D01*
X30533333Y-62061617D02*
X31180953Y-62061617D01*
X32071429Y-62304474D02*
X32030953Y-62344951D01*
X32030953Y-62344951D02*
X31909524Y-62385427D01*
X31909524Y-62385427D02*
X31828572Y-62385427D01*
X31828572Y-62385427D02*
X31707143Y-62344951D01*
X31707143Y-62344951D02*
X31626191Y-62263998D01*
X31626191Y-62263998D02*
X31585714Y-62183046D01*
X31585714Y-62183046D02*
X31545238Y-62021141D01*
X31545238Y-62021141D02*
X31545238Y-61899712D01*
X31545238Y-61899712D02*
X31585714Y-61737808D01*
X31585714Y-61737808D02*
X31626191Y-61656855D01*
X31626191Y-61656855D02*
X31707143Y-61575903D01*
X31707143Y-61575903D02*
X31828572Y-61535427D01*
X31828572Y-61535427D02*
X31909524Y-61535427D01*
X31909524Y-61535427D02*
X32030953Y-61575903D01*
X32030953Y-61575903D02*
X32071429Y-61616379D01*
X32800000Y-61535427D02*
X32638095Y-61535427D01*
X32638095Y-61535427D02*
X32557143Y-61575903D01*
X32557143Y-61575903D02*
X32516667Y-61616379D01*
X32516667Y-61616379D02*
X32435714Y-61737808D01*
X32435714Y-61737808D02*
X32395238Y-61899712D01*
X32395238Y-61899712D02*
X32395238Y-62223522D01*
X32395238Y-62223522D02*
X32435714Y-62304474D01*
X32435714Y-62304474D02*
X32476191Y-62344951D01*
X32476191Y-62344951D02*
X32557143Y-62385427D01*
X32557143Y-62385427D02*
X32719048Y-62385427D01*
X32719048Y-62385427D02*
X32800000Y-62344951D01*
X32800000Y-62344951D02*
X32840476Y-62304474D01*
X32840476Y-62304474D02*
X32880953Y-62223522D01*
X32880953Y-62223522D02*
X32880953Y-62021141D01*
X32880953Y-62021141D02*
X32840476Y-61940189D01*
X32840476Y-61940189D02*
X32800000Y-61899712D01*
X32800000Y-61899712D02*
X32719048Y-61859236D01*
X32719048Y-61859236D02*
X32557143Y-61859236D01*
X32557143Y-61859236D02*
X32476191Y-61899712D01*
X32476191Y-61899712D02*
X32435714Y-61940189D01*
X32435714Y-61940189D02*
X32395238Y-62021141D01*
X85842856Y-63443247D02*
X85957142Y-63481342D01*
X85957142Y-63481342D02*
X85995237Y-63519438D01*
X85995237Y-63519438D02*
X86033333Y-63595628D01*
X86033333Y-63595628D02*
X86033333Y-63709914D01*
X86033333Y-63709914D02*
X85995237Y-63786104D01*
X85995237Y-63786104D02*
X85957142Y-63824200D01*
X85957142Y-63824200D02*
X85880952Y-63862295D01*
X85880952Y-63862295D02*
X85576190Y-63862295D01*
X85576190Y-63862295D02*
X85576190Y-63062295D01*
X85576190Y-63062295D02*
X85842856Y-63062295D01*
X85842856Y-63062295D02*
X85919047Y-63100390D01*
X85919047Y-63100390D02*
X85957142Y-63138485D01*
X85957142Y-63138485D02*
X85995237Y-63214676D01*
X85995237Y-63214676D02*
X85995237Y-63290866D01*
X85995237Y-63290866D02*
X85957142Y-63367057D01*
X85957142Y-63367057D02*
X85919047Y-63405152D01*
X85919047Y-63405152D02*
X85842856Y-63443247D01*
X85842856Y-63443247D02*
X85576190Y-63443247D01*
X86338094Y-63633723D02*
X86719047Y-63633723D01*
X86261904Y-63862295D02*
X86528571Y-63062295D01*
X86528571Y-63062295D02*
X86795237Y-63862295D01*
X86947618Y-63062295D02*
X87404761Y-63062295D01*
X87176189Y-63862295D02*
X87176189Y-63062295D01*
X88204761Y-63062295D02*
X88699999Y-63062295D01*
X88699999Y-63062295D02*
X88433333Y-63367057D01*
X88433333Y-63367057D02*
X88547618Y-63367057D01*
X88547618Y-63367057D02*
X88623809Y-63405152D01*
X88623809Y-63405152D02*
X88661904Y-63443247D01*
X88661904Y-63443247D02*
X88699999Y-63519438D01*
X88699999Y-63519438D02*
X88699999Y-63709914D01*
X88699999Y-63709914D02*
X88661904Y-63786104D01*
X88661904Y-63786104D02*
X88623809Y-63824200D01*
X88623809Y-63824200D02*
X88547618Y-63862295D01*
X88547618Y-63862295D02*
X88319047Y-63862295D01*
X88319047Y-63862295D02*
X88242856Y-63824200D01*
X88242856Y-63824200D02*
X88204761Y-63786104D01*
X89004761Y-63824200D02*
X89119047Y-63862295D01*
X89119047Y-63862295D02*
X89309523Y-63862295D01*
X89309523Y-63862295D02*
X89385714Y-63824200D01*
X89385714Y-63824200D02*
X89423809Y-63786104D01*
X89423809Y-63786104D02*
X89461904Y-63709914D01*
X89461904Y-63709914D02*
X89461904Y-63633723D01*
X89461904Y-63633723D02*
X89423809Y-63557533D01*
X89423809Y-63557533D02*
X89385714Y-63519438D01*
X89385714Y-63519438D02*
X89309523Y-63481342D01*
X89309523Y-63481342D02*
X89157142Y-63443247D01*
X89157142Y-63443247D02*
X89080952Y-63405152D01*
X89080952Y-63405152D02*
X89042857Y-63367057D01*
X89042857Y-63367057D02*
X89004761Y-63290866D01*
X89004761Y-63290866D02*
X89004761Y-63214676D01*
X89004761Y-63214676D02*
X89042857Y-63138485D01*
X89042857Y-63138485D02*
X89080952Y-63100390D01*
X89080952Y-63100390D02*
X89157142Y-63062295D01*
X89157142Y-63062295D02*
X89347619Y-63062295D01*
X89347619Y-63062295D02*
X89461904Y-63100390D01*
X146824200Y-41752381D02*
X146862295Y-41638095D01*
X146862295Y-41638095D02*
X146862295Y-41447619D01*
X146862295Y-41447619D02*
X146824200Y-41371428D01*
X146824200Y-41371428D02*
X146786104Y-41333333D01*
X146786104Y-41333333D02*
X146709914Y-41295238D01*
X146709914Y-41295238D02*
X146633723Y-41295238D01*
X146633723Y-41295238D02*
X146557533Y-41333333D01*
X146557533Y-41333333D02*
X146519438Y-41371428D01*
X146519438Y-41371428D02*
X146481342Y-41447619D01*
X146481342Y-41447619D02*
X146443247Y-41600000D01*
X146443247Y-41600000D02*
X146405152Y-41676190D01*
X146405152Y-41676190D02*
X146367057Y-41714285D01*
X146367057Y-41714285D02*
X146290866Y-41752381D01*
X146290866Y-41752381D02*
X146214676Y-41752381D01*
X146214676Y-41752381D02*
X146138485Y-41714285D01*
X146138485Y-41714285D02*
X146100390Y-41676190D01*
X146100390Y-41676190D02*
X146062295Y-41600000D01*
X146062295Y-41600000D02*
X146062295Y-41409523D01*
X146062295Y-41409523D02*
X146100390Y-41295238D01*
X146443247Y-40952380D02*
X146443247Y-40685714D01*
X146862295Y-40571428D02*
X146862295Y-40952380D01*
X146862295Y-40952380D02*
X146062295Y-40952380D01*
X146062295Y-40952380D02*
X146062295Y-40571428D01*
X146862295Y-39771427D02*
X146481342Y-40038094D01*
X146862295Y-40228570D02*
X146062295Y-40228570D01*
X146062295Y-40228570D02*
X146062295Y-39923808D01*
X146062295Y-39923808D02*
X146100390Y-39847618D01*
X146100390Y-39847618D02*
X146138485Y-39809523D01*
X146138485Y-39809523D02*
X146214676Y-39771427D01*
X146214676Y-39771427D02*
X146328961Y-39771427D01*
X146328961Y-39771427D02*
X146405152Y-39809523D01*
X146405152Y-39809523D02*
X146443247Y-39847618D01*
X146443247Y-39847618D02*
X146481342Y-39923808D01*
X146481342Y-39923808D02*
X146481342Y-40228570D01*
X146062295Y-39542856D02*
X146862295Y-39276189D01*
X146862295Y-39276189D02*
X146062295Y-39009523D01*
X146062295Y-38590475D02*
X146062295Y-38438094D01*
X146062295Y-38438094D02*
X146100390Y-38361904D01*
X146100390Y-38361904D02*
X146176580Y-38285713D01*
X146176580Y-38285713D02*
X146328961Y-38247618D01*
X146328961Y-38247618D02*
X146595628Y-38247618D01*
X146595628Y-38247618D02*
X146748009Y-38285713D01*
X146748009Y-38285713D02*
X146824200Y-38361904D01*
X146824200Y-38361904D02*
X146862295Y-38438094D01*
X146862295Y-38438094D02*
X146862295Y-38590475D01*
X146862295Y-38590475D02*
X146824200Y-38666666D01*
X146824200Y-38666666D02*
X146748009Y-38742856D01*
X146748009Y-38742856D02*
X146595628Y-38780952D01*
X146595628Y-38780952D02*
X146328961Y-38780952D01*
X146328961Y-38780952D02*
X146176580Y-38742856D01*
X146176580Y-38742856D02*
X146100390Y-38666666D01*
X146100390Y-38666666D02*
X146062295Y-38590475D01*
X129142858Y-10262295D02*
X129142858Y-10909914D01*
X129142858Y-10909914D02*
X129180953Y-10986104D01*
X129180953Y-10986104D02*
X129219048Y-11024200D01*
X129219048Y-11024200D02*
X129295239Y-11062295D01*
X129295239Y-11062295D02*
X129447620Y-11062295D01*
X129447620Y-11062295D02*
X129523810Y-11024200D01*
X129523810Y-11024200D02*
X129561905Y-10986104D01*
X129561905Y-10986104D02*
X129600001Y-10909914D01*
X129600001Y-10909914D02*
X129600001Y-10262295D01*
X129942857Y-11024200D02*
X130057143Y-11062295D01*
X130057143Y-11062295D02*
X130247619Y-11062295D01*
X130247619Y-11062295D02*
X130323810Y-11024200D01*
X130323810Y-11024200D02*
X130361905Y-10986104D01*
X130361905Y-10986104D02*
X130400000Y-10909914D01*
X130400000Y-10909914D02*
X130400000Y-10833723D01*
X130400000Y-10833723D02*
X130361905Y-10757533D01*
X130361905Y-10757533D02*
X130323810Y-10719438D01*
X130323810Y-10719438D02*
X130247619Y-10681342D01*
X130247619Y-10681342D02*
X130095238Y-10643247D01*
X130095238Y-10643247D02*
X130019048Y-10605152D01*
X130019048Y-10605152D02*
X129980953Y-10567057D01*
X129980953Y-10567057D02*
X129942857Y-10490866D01*
X129942857Y-10490866D02*
X129942857Y-10414676D01*
X129942857Y-10414676D02*
X129980953Y-10338485D01*
X129980953Y-10338485D02*
X130019048Y-10300390D01*
X130019048Y-10300390D02*
X130095238Y-10262295D01*
X130095238Y-10262295D02*
X130285715Y-10262295D01*
X130285715Y-10262295D02*
X130400000Y-10300390D01*
X131009524Y-10643247D02*
X131123810Y-10681342D01*
X131123810Y-10681342D02*
X131161905Y-10719438D01*
X131161905Y-10719438D02*
X131200001Y-10795628D01*
X131200001Y-10795628D02*
X131200001Y-10909914D01*
X131200001Y-10909914D02*
X131161905Y-10986104D01*
X131161905Y-10986104D02*
X131123810Y-11024200D01*
X131123810Y-11024200D02*
X131047620Y-11062295D01*
X131047620Y-11062295D02*
X130742858Y-11062295D01*
X130742858Y-11062295D02*
X130742858Y-10262295D01*
X130742858Y-10262295D02*
X131009524Y-10262295D01*
X131009524Y-10262295D02*
X131085715Y-10300390D01*
X131085715Y-10300390D02*
X131123810Y-10338485D01*
X131123810Y-10338485D02*
X131161905Y-10414676D01*
X131161905Y-10414676D02*
X131161905Y-10490866D01*
X131161905Y-10490866D02*
X131123810Y-10567057D01*
X131123810Y-10567057D02*
X131085715Y-10605152D01*
X131085715Y-10605152D02*
X131009524Y-10643247D01*
X131009524Y-10643247D02*
X130742858Y-10643247D01*
X132533334Y-11062295D02*
X132152382Y-11062295D01*
X132152382Y-11062295D02*
X132152382Y-10262295D01*
X132952382Y-10262295D02*
X133104763Y-10262295D01*
X133104763Y-10262295D02*
X133180953Y-10300390D01*
X133180953Y-10300390D02*
X133257144Y-10376580D01*
X133257144Y-10376580D02*
X133295239Y-10528961D01*
X133295239Y-10528961D02*
X133295239Y-10795628D01*
X133295239Y-10795628D02*
X133257144Y-10948009D01*
X133257144Y-10948009D02*
X133180953Y-11024200D01*
X133180953Y-11024200D02*
X133104763Y-11062295D01*
X133104763Y-11062295D02*
X132952382Y-11062295D01*
X132952382Y-11062295D02*
X132876191Y-11024200D01*
X132876191Y-11024200D02*
X132800001Y-10948009D01*
X132800001Y-10948009D02*
X132761905Y-10795628D01*
X132761905Y-10795628D02*
X132761905Y-10528961D01*
X132761905Y-10528961D02*
X132800001Y-10376580D01*
X132800001Y-10376580D02*
X132876191Y-10300390D01*
X132876191Y-10300390D02*
X132952382Y-10262295D01*
X134057143Y-10300390D02*
X133980953Y-10262295D01*
X133980953Y-10262295D02*
X133866667Y-10262295D01*
X133866667Y-10262295D02*
X133752381Y-10300390D01*
X133752381Y-10300390D02*
X133676191Y-10376580D01*
X133676191Y-10376580D02*
X133638096Y-10452771D01*
X133638096Y-10452771D02*
X133600000Y-10605152D01*
X133600000Y-10605152D02*
X133600000Y-10719438D01*
X133600000Y-10719438D02*
X133638096Y-10871819D01*
X133638096Y-10871819D02*
X133676191Y-10948009D01*
X133676191Y-10948009D02*
X133752381Y-11024200D01*
X133752381Y-11024200D02*
X133866667Y-11062295D01*
X133866667Y-11062295D02*
X133942858Y-11062295D01*
X133942858Y-11062295D02*
X134057143Y-11024200D01*
X134057143Y-11024200D02*
X134095239Y-10986104D01*
X134095239Y-10986104D02*
X134095239Y-10719438D01*
X134095239Y-10719438D02*
X133942858Y-10719438D01*
X134438096Y-11062295D02*
X134438096Y-10262295D01*
X135276191Y-10986104D02*
X135238095Y-11024200D01*
X135238095Y-11024200D02*
X135123810Y-11062295D01*
X135123810Y-11062295D02*
X135047619Y-11062295D01*
X135047619Y-11062295D02*
X134933333Y-11024200D01*
X134933333Y-11024200D02*
X134857143Y-10948009D01*
X134857143Y-10948009D02*
X134819048Y-10871819D01*
X134819048Y-10871819D02*
X134780952Y-10719438D01*
X134780952Y-10719438D02*
X134780952Y-10605152D01*
X134780952Y-10605152D02*
X134819048Y-10452771D01*
X134819048Y-10452771D02*
X134857143Y-10376580D01*
X134857143Y-10376580D02*
X134933333Y-10300390D01*
X134933333Y-10300390D02*
X135047619Y-10262295D01*
X135047619Y-10262295D02*
X135123810Y-10262295D01*
X135123810Y-10262295D02*
X135238095Y-10300390D01*
X135238095Y-10300390D02*
X135276191Y-10338485D01*
X136380953Y-10262295D02*
X136533334Y-10262295D01*
X136533334Y-10262295D02*
X136609524Y-10300390D01*
X136609524Y-10300390D02*
X136685715Y-10376580D01*
X136685715Y-10376580D02*
X136723810Y-10528961D01*
X136723810Y-10528961D02*
X136723810Y-10795628D01*
X136723810Y-10795628D02*
X136685715Y-10948009D01*
X136685715Y-10948009D02*
X136609524Y-11024200D01*
X136609524Y-11024200D02*
X136533334Y-11062295D01*
X136533334Y-11062295D02*
X136380953Y-11062295D01*
X136380953Y-11062295D02*
X136304762Y-11024200D01*
X136304762Y-11024200D02*
X136228572Y-10948009D01*
X136228572Y-10948009D02*
X136190476Y-10795628D01*
X136190476Y-10795628D02*
X136190476Y-10528961D01*
X136190476Y-10528961D02*
X136228572Y-10376580D01*
X136228572Y-10376580D02*
X136304762Y-10300390D01*
X136304762Y-10300390D02*
X136380953Y-10262295D01*
X137066667Y-11062295D02*
X137066667Y-10262295D01*
X137066667Y-10262295D02*
X137523810Y-11062295D01*
X137523810Y-11062295D02*
X137523810Y-10262295D01*
X138285714Y-11062295D02*
X137904762Y-11062295D01*
X137904762Y-11062295D02*
X137904762Y-10262295D01*
X138704762Y-10681342D02*
X138704762Y-11062295D01*
X138438095Y-10262295D02*
X138704762Y-10681342D01*
X138704762Y-10681342D02*
X138971428Y-10262295D01*
X89706666Y-63374819D02*
X89706666Y-64089104D01*
X89706666Y-64089104D02*
X89659047Y-64231961D01*
X89659047Y-64231961D02*
X89563809Y-64327200D01*
X89563809Y-64327200D02*
X89420952Y-64374819D01*
X89420952Y-64374819D02*
X89325714Y-64374819D01*
X90706666Y-64374819D02*
X90135238Y-64374819D01*
X90420952Y-64374819D02*
X90420952Y-63374819D01*
X90420952Y-63374819D02*
X90325714Y-63517676D01*
X90325714Y-63517676D02*
X90230476Y-63612914D01*
X90230476Y-63612914D02*
X90135238Y-63660533D01*
X97166666Y-57931009D02*
X96833333Y-57931009D01*
X96833333Y-58454819D02*
X96833333Y-57454819D01*
X96833333Y-57454819D02*
X97309523Y-57454819D01*
X98214285Y-58454819D02*
X97642857Y-58454819D01*
X97928571Y-58454819D02*
X97928571Y-57454819D01*
X97928571Y-57454819D02*
X97833333Y-57597676D01*
X97833333Y-57597676D02*
X97738095Y-57692914D01*
X97738095Y-57692914D02*
X97642857Y-57740533D01*
X114333333Y-58024819D02*
X114000000Y-57548628D01*
X113761905Y-58024819D02*
X113761905Y-57024819D01*
X113761905Y-57024819D02*
X114142857Y-57024819D01*
X114142857Y-57024819D02*
X114238095Y-57072438D01*
X114238095Y-57072438D02*
X114285714Y-57120057D01*
X114285714Y-57120057D02*
X114333333Y-57215295D01*
X114333333Y-57215295D02*
X114333333Y-57358152D01*
X114333333Y-57358152D02*
X114285714Y-57453390D01*
X114285714Y-57453390D02*
X114238095Y-57501009D01*
X114238095Y-57501009D02*
X114142857Y-57548628D01*
X114142857Y-57548628D02*
X113761905Y-57548628D01*
X115285714Y-58024819D02*
X114714286Y-58024819D01*
X115000000Y-58024819D02*
X115000000Y-57024819D01*
X115000000Y-57024819D02*
X114904762Y-57167676D01*
X114904762Y-57167676D02*
X114809524Y-57262914D01*
X114809524Y-57262914D02*
X114714286Y-57310533D01*
X112059580Y-68166666D02*
X112107200Y-68214285D01*
X112107200Y-68214285D02*
X112154819Y-68357142D01*
X112154819Y-68357142D02*
X112154819Y-68452380D01*
X112154819Y-68452380D02*
X112107200Y-68595237D01*
X112107200Y-68595237D02*
X112011961Y-68690475D01*
X112011961Y-68690475D02*
X111916723Y-68738094D01*
X111916723Y-68738094D02*
X111726247Y-68785713D01*
X111726247Y-68785713D02*
X111583390Y-68785713D01*
X111583390Y-68785713D02*
X111392914Y-68738094D01*
X111392914Y-68738094D02*
X111297676Y-68690475D01*
X111297676Y-68690475D02*
X111202438Y-68595237D01*
X111202438Y-68595237D02*
X111154819Y-68452380D01*
X111154819Y-68452380D02*
X111154819Y-68357142D01*
X111154819Y-68357142D02*
X111202438Y-68214285D01*
X111202438Y-68214285D02*
X111250057Y-68166666D01*
X112154819Y-67214285D02*
X112154819Y-67785713D01*
X112154819Y-67499999D02*
X111154819Y-67499999D01*
X111154819Y-67499999D02*
X111297676Y-67595237D01*
X111297676Y-67595237D02*
X111392914Y-67690475D01*
X111392914Y-67690475D02*
X111440533Y-67785713D01*
X103033333Y-53629580D02*
X102985714Y-53677200D01*
X102985714Y-53677200D02*
X102842857Y-53724819D01*
X102842857Y-53724819D02*
X102747619Y-53724819D01*
X102747619Y-53724819D02*
X102604762Y-53677200D01*
X102604762Y-53677200D02*
X102509524Y-53581961D01*
X102509524Y-53581961D02*
X102461905Y-53486723D01*
X102461905Y-53486723D02*
X102414286Y-53296247D01*
X102414286Y-53296247D02*
X102414286Y-53153390D01*
X102414286Y-53153390D02*
X102461905Y-52962914D01*
X102461905Y-52962914D02*
X102509524Y-52867676D01*
X102509524Y-52867676D02*
X102604762Y-52772438D01*
X102604762Y-52772438D02*
X102747619Y-52724819D01*
X102747619Y-52724819D02*
X102842857Y-52724819D01*
X102842857Y-52724819D02*
X102985714Y-52772438D01*
X102985714Y-52772438D02*
X103033333Y-52820057D01*
X103414286Y-52820057D02*
X103461905Y-52772438D01*
X103461905Y-52772438D02*
X103557143Y-52724819D01*
X103557143Y-52724819D02*
X103795238Y-52724819D01*
X103795238Y-52724819D02*
X103890476Y-52772438D01*
X103890476Y-52772438D02*
X103938095Y-52820057D01*
X103938095Y-52820057D02*
X103985714Y-52915295D01*
X103985714Y-52915295D02*
X103985714Y-53010533D01*
X103985714Y-53010533D02*
X103938095Y-53153390D01*
X103938095Y-53153390D02*
X103366667Y-53724819D01*
X103366667Y-53724819D02*
X103985714Y-53724819D01*
X99238095Y-47754819D02*
X99238095Y-48564342D01*
X99238095Y-48564342D02*
X99285714Y-48659580D01*
X99285714Y-48659580D02*
X99333333Y-48707200D01*
X99333333Y-48707200D02*
X99428571Y-48754819D01*
X99428571Y-48754819D02*
X99619047Y-48754819D01*
X99619047Y-48754819D02*
X99714285Y-48707200D01*
X99714285Y-48707200D02*
X99761904Y-48659580D01*
X99761904Y-48659580D02*
X99809523Y-48564342D01*
X99809523Y-48564342D02*
X99809523Y-47754819D01*
X100809523Y-48754819D02*
X100238095Y-48754819D01*
X100523809Y-48754819D02*
X100523809Y-47754819D01*
X100523809Y-47754819D02*
X100428571Y-47897676D01*
X100428571Y-47897676D02*
X100333333Y-47992914D01*
X100333333Y-47992914D02*
X100238095Y-48040533D01*
X92509580Y-53666666D02*
X92557200Y-53714285D01*
X92557200Y-53714285D02*
X92604819Y-53857142D01*
X92604819Y-53857142D02*
X92604819Y-53952380D01*
X92604819Y-53952380D02*
X92557200Y-54095237D01*
X92557200Y-54095237D02*
X92461961Y-54190475D01*
X92461961Y-54190475D02*
X92366723Y-54238094D01*
X92366723Y-54238094D02*
X92176247Y-54285713D01*
X92176247Y-54285713D02*
X92033390Y-54285713D01*
X92033390Y-54285713D02*
X91842914Y-54238094D01*
X91842914Y-54238094D02*
X91747676Y-54190475D01*
X91747676Y-54190475D02*
X91652438Y-54095237D01*
X91652438Y-54095237D02*
X91604819Y-53952380D01*
X91604819Y-53952380D02*
X91604819Y-53857142D01*
X91604819Y-53857142D02*
X91652438Y-53714285D01*
X91652438Y-53714285D02*
X91700057Y-53666666D01*
X91604819Y-53333332D02*
X91604819Y-52714285D01*
X91604819Y-52714285D02*
X91985771Y-53047618D01*
X91985771Y-53047618D02*
X91985771Y-52904761D01*
X91985771Y-52904761D02*
X92033390Y-52809523D01*
X92033390Y-52809523D02*
X92081009Y-52761904D01*
X92081009Y-52761904D02*
X92176247Y-52714285D01*
X92176247Y-52714285D02*
X92414342Y-52714285D01*
X92414342Y-52714285D02*
X92509580Y-52761904D01*
X92509580Y-52761904D02*
X92557200Y-52809523D01*
X92557200Y-52809523D02*
X92604819Y-52904761D01*
X92604819Y-52904761D02*
X92604819Y-53190475D01*
X92604819Y-53190475D02*
X92557200Y-53285713D01*
X92557200Y-53285713D02*
X92509580Y-53333332D01*
X104833333Y-47929580D02*
X104785714Y-47977200D01*
X104785714Y-47977200D02*
X104642857Y-48024819D01*
X104642857Y-48024819D02*
X104547619Y-48024819D01*
X104547619Y-48024819D02*
X104404762Y-47977200D01*
X104404762Y-47977200D02*
X104309524Y-47881961D01*
X104309524Y-47881961D02*
X104261905Y-47786723D01*
X104261905Y-47786723D02*
X104214286Y-47596247D01*
X104214286Y-47596247D02*
X104214286Y-47453390D01*
X104214286Y-47453390D02*
X104261905Y-47262914D01*
X104261905Y-47262914D02*
X104309524Y-47167676D01*
X104309524Y-47167676D02*
X104404762Y-47072438D01*
X104404762Y-47072438D02*
X104547619Y-47024819D01*
X104547619Y-47024819D02*
X104642857Y-47024819D01*
X104642857Y-47024819D02*
X104785714Y-47072438D01*
X104785714Y-47072438D02*
X104833333Y-47120057D01*
X105690476Y-47358152D02*
X105690476Y-48024819D01*
X105452381Y-46977200D02*
X105214286Y-47691485D01*
X105214286Y-47691485D02*
X105833333Y-47691485D01*
X110333333Y-49954819D02*
X109857143Y-49954819D01*
X109857143Y-49954819D02*
X109857143Y-48954819D01*
X111190476Y-49954819D02*
X110619048Y-49954819D01*
X110904762Y-49954819D02*
X110904762Y-48954819D01*
X110904762Y-48954819D02*
X110809524Y-49097676D01*
X110809524Y-49097676D02*
X110714286Y-49192914D01*
X110714286Y-49192914D02*
X110619048Y-49240533D01*
X117509580Y-55666666D02*
X117557200Y-55714285D01*
X117557200Y-55714285D02*
X117604819Y-55857142D01*
X117604819Y-55857142D02*
X117604819Y-55952380D01*
X117604819Y-55952380D02*
X117557200Y-56095237D01*
X117557200Y-56095237D02*
X117461961Y-56190475D01*
X117461961Y-56190475D02*
X117366723Y-56238094D01*
X117366723Y-56238094D02*
X117176247Y-56285713D01*
X117176247Y-56285713D02*
X117033390Y-56285713D01*
X117033390Y-56285713D02*
X116842914Y-56238094D01*
X116842914Y-56238094D02*
X116747676Y-56190475D01*
X116747676Y-56190475D02*
X116652438Y-56095237D01*
X116652438Y-56095237D02*
X116604819Y-55952380D01*
X116604819Y-55952380D02*
X116604819Y-55857142D01*
X116604819Y-55857142D02*
X116652438Y-55714285D01*
X116652438Y-55714285D02*
X116700057Y-55666666D01*
X116604819Y-54809523D02*
X116604819Y-54999999D01*
X116604819Y-54999999D02*
X116652438Y-55095237D01*
X116652438Y-55095237D02*
X116700057Y-55142856D01*
X116700057Y-55142856D02*
X116842914Y-55238094D01*
X116842914Y-55238094D02*
X117033390Y-55285713D01*
X117033390Y-55285713D02*
X117414342Y-55285713D01*
X117414342Y-55285713D02*
X117509580Y-55238094D01*
X117509580Y-55238094D02*
X117557200Y-55190475D01*
X117557200Y-55190475D02*
X117604819Y-55095237D01*
X117604819Y-55095237D02*
X117604819Y-54904761D01*
X117604819Y-54904761D02*
X117557200Y-54809523D01*
X117557200Y-54809523D02*
X117509580Y-54761904D01*
X117509580Y-54761904D02*
X117414342Y-54714285D01*
X117414342Y-54714285D02*
X117176247Y-54714285D01*
X117176247Y-54714285D02*
X117081009Y-54761904D01*
X117081009Y-54761904D02*
X117033390Y-54809523D01*
X117033390Y-54809523D02*
X116985771Y-54904761D01*
X116985771Y-54904761D02*
X116985771Y-55095237D01*
X116985771Y-55095237D02*
X117033390Y-55190475D01*
X117033390Y-55190475D02*
X117081009Y-55238094D01*
X117081009Y-55238094D02*
X117176247Y-55285713D01*
X120261905Y-41954819D02*
X120261905Y-40954819D01*
X120261905Y-40954819D02*
X120500000Y-40954819D01*
X120500000Y-40954819D02*
X120642857Y-41002438D01*
X120642857Y-41002438D02*
X120738095Y-41097676D01*
X120738095Y-41097676D02*
X120785714Y-41192914D01*
X120785714Y-41192914D02*
X120833333Y-41383390D01*
X120833333Y-41383390D02*
X120833333Y-41526247D01*
X120833333Y-41526247D02*
X120785714Y-41716723D01*
X120785714Y-41716723D02*
X120738095Y-41811961D01*
X120738095Y-41811961D02*
X120642857Y-41907200D01*
X120642857Y-41907200D02*
X120500000Y-41954819D01*
X120500000Y-41954819D02*
X120261905Y-41954819D01*
X121166667Y-40954819D02*
X121785714Y-40954819D01*
X121785714Y-40954819D02*
X121452381Y-41335771D01*
X121452381Y-41335771D02*
X121595238Y-41335771D01*
X121595238Y-41335771D02*
X121690476Y-41383390D01*
X121690476Y-41383390D02*
X121738095Y-41431009D01*
X121738095Y-41431009D02*
X121785714Y-41526247D01*
X121785714Y-41526247D02*
X121785714Y-41764342D01*
X121785714Y-41764342D02*
X121738095Y-41859580D01*
X121738095Y-41859580D02*
X121690476Y-41907200D01*
X121690476Y-41907200D02*
X121595238Y-41954819D01*
X121595238Y-41954819D02*
X121309524Y-41954819D01*
X121309524Y-41954819D02*
X121214286Y-41907200D01*
X121214286Y-41907200D02*
X121166667Y-41859580D01*
X133666666Y-11228819D02*
X133666666Y-11943104D01*
X133666666Y-11943104D02*
X133619047Y-12085961D01*
X133619047Y-12085961D02*
X133523809Y-12181200D01*
X133523809Y-12181200D02*
X133380952Y-12228819D01*
X133380952Y-12228819D02*
X133285714Y-12228819D01*
X134095238Y-11324057D02*
X134142857Y-11276438D01*
X134142857Y-11276438D02*
X134238095Y-11228819D01*
X134238095Y-11228819D02*
X134476190Y-11228819D01*
X134476190Y-11228819D02*
X134571428Y-11276438D01*
X134571428Y-11276438D02*
X134619047Y-11324057D01*
X134619047Y-11324057D02*
X134666666Y-11419295D01*
X134666666Y-11419295D02*
X134666666Y-11514533D01*
X134666666Y-11514533D02*
X134619047Y-11657390D01*
X134619047Y-11657390D02*
X134047619Y-12228819D01*
X134047619Y-12228819D02*
X134666666Y-12228819D01*
X121238095Y-5504819D02*
X121238095Y-6314342D01*
X121238095Y-6314342D02*
X121285714Y-6409580D01*
X121285714Y-6409580D02*
X121333333Y-6457200D01*
X121333333Y-6457200D02*
X121428571Y-6504819D01*
X121428571Y-6504819D02*
X121619047Y-6504819D01*
X121619047Y-6504819D02*
X121714285Y-6457200D01*
X121714285Y-6457200D02*
X121761904Y-6409580D01*
X121761904Y-6409580D02*
X121809523Y-6314342D01*
X121809523Y-6314342D02*
X121809523Y-5504819D01*
X122238095Y-5600057D02*
X122285714Y-5552438D01*
X122285714Y-5552438D02*
X122380952Y-5504819D01*
X122380952Y-5504819D02*
X122619047Y-5504819D01*
X122619047Y-5504819D02*
X122714285Y-5552438D01*
X122714285Y-5552438D02*
X122761904Y-5600057D01*
X122761904Y-5600057D02*
X122809523Y-5695295D01*
X122809523Y-5695295D02*
X122809523Y-5790533D01*
X122809523Y-5790533D02*
X122761904Y-5933390D01*
X122761904Y-5933390D02*
X122190476Y-6504819D01*
X122190476Y-6504819D02*
X122809523Y-6504819D01*
X115833333Y-8524819D02*
X115500000Y-8048628D01*
X115261905Y-8524819D02*
X115261905Y-7524819D01*
X115261905Y-7524819D02*
X115642857Y-7524819D01*
X115642857Y-7524819D02*
X115738095Y-7572438D01*
X115738095Y-7572438D02*
X115785714Y-7620057D01*
X115785714Y-7620057D02*
X115833333Y-7715295D01*
X115833333Y-7715295D02*
X115833333Y-7858152D01*
X115833333Y-7858152D02*
X115785714Y-7953390D01*
X115785714Y-7953390D02*
X115738095Y-8001009D01*
X115738095Y-8001009D02*
X115642857Y-8048628D01*
X115642857Y-8048628D02*
X115261905Y-8048628D01*
X116690476Y-7858152D02*
X116690476Y-8524819D01*
X116452381Y-7477200D02*
X116214286Y-8191485D01*
X116214286Y-8191485D02*
X116833333Y-8191485D01*
X115833333Y-13024819D02*
X115500000Y-12548628D01*
X115261905Y-13024819D02*
X115261905Y-12024819D01*
X115261905Y-12024819D02*
X115642857Y-12024819D01*
X115642857Y-12024819D02*
X115738095Y-12072438D01*
X115738095Y-12072438D02*
X115785714Y-12120057D01*
X115785714Y-12120057D02*
X115833333Y-12215295D01*
X115833333Y-12215295D02*
X115833333Y-12358152D01*
X115833333Y-12358152D02*
X115785714Y-12453390D01*
X115785714Y-12453390D02*
X115738095Y-12501009D01*
X115738095Y-12501009D02*
X115642857Y-12548628D01*
X115642857Y-12548628D02*
X115261905Y-12548628D01*
X116738095Y-12024819D02*
X116261905Y-12024819D01*
X116261905Y-12024819D02*
X116214286Y-12501009D01*
X116214286Y-12501009D02*
X116261905Y-12453390D01*
X116261905Y-12453390D02*
X116357143Y-12405771D01*
X116357143Y-12405771D02*
X116595238Y-12405771D01*
X116595238Y-12405771D02*
X116690476Y-12453390D01*
X116690476Y-12453390D02*
X116738095Y-12501009D01*
X116738095Y-12501009D02*
X116785714Y-12596247D01*
X116785714Y-12596247D02*
X116785714Y-12834342D01*
X116785714Y-12834342D02*
X116738095Y-12929580D01*
X116738095Y-12929580D02*
X116690476Y-12977200D01*
X116690476Y-12977200D02*
X116595238Y-13024819D01*
X116595238Y-13024819D02*
X116357143Y-13024819D01*
X116357143Y-13024819D02*
X116261905Y-12977200D01*
X116261905Y-12977200D02*
X116214286Y-12929580D01*
X99238095Y-29754819D02*
X99238095Y-30564342D01*
X99238095Y-30564342D02*
X99285714Y-30659580D01*
X99285714Y-30659580D02*
X99333333Y-30707200D01*
X99333333Y-30707200D02*
X99428571Y-30754819D01*
X99428571Y-30754819D02*
X99619047Y-30754819D01*
X99619047Y-30754819D02*
X99714285Y-30707200D01*
X99714285Y-30707200D02*
X99761904Y-30659580D01*
X99761904Y-30659580D02*
X99809523Y-30564342D01*
X99809523Y-30564342D02*
X99809523Y-29754819D01*
X100190476Y-29754819D02*
X100809523Y-29754819D01*
X100809523Y-29754819D02*
X100476190Y-30135771D01*
X100476190Y-30135771D02*
X100619047Y-30135771D01*
X100619047Y-30135771D02*
X100714285Y-30183390D01*
X100714285Y-30183390D02*
X100761904Y-30231009D01*
X100761904Y-30231009D02*
X100809523Y-30326247D01*
X100809523Y-30326247D02*
X100809523Y-30564342D01*
X100809523Y-30564342D02*
X100761904Y-30659580D01*
X100761904Y-30659580D02*
X100714285Y-30707200D01*
X100714285Y-30707200D02*
X100619047Y-30754819D01*
X100619047Y-30754819D02*
X100333333Y-30754819D01*
X100333333Y-30754819D02*
X100238095Y-30707200D01*
X100238095Y-30707200D02*
X100190476Y-30659580D01*
X110333333Y-31954819D02*
X109857143Y-31954819D01*
X109857143Y-31954819D02*
X109857143Y-30954819D01*
X110619048Y-31050057D02*
X110666667Y-31002438D01*
X110666667Y-31002438D02*
X110761905Y-30954819D01*
X110761905Y-30954819D02*
X111000000Y-30954819D01*
X111000000Y-30954819D02*
X111095238Y-31002438D01*
X111095238Y-31002438D02*
X111142857Y-31050057D01*
X111142857Y-31050057D02*
X111190476Y-31145295D01*
X111190476Y-31145295D02*
X111190476Y-31240533D01*
X111190476Y-31240533D02*
X111142857Y-31383390D01*
X111142857Y-31383390D02*
X110571429Y-31954819D01*
X110571429Y-31954819D02*
X111190476Y-31954819D01*
X98238095Y-17454819D02*
X98238095Y-18264342D01*
X98238095Y-18264342D02*
X98285714Y-18359580D01*
X98285714Y-18359580D02*
X98333333Y-18407200D01*
X98333333Y-18407200D02*
X98428571Y-18454819D01*
X98428571Y-18454819D02*
X98619047Y-18454819D01*
X98619047Y-18454819D02*
X98714285Y-18407200D01*
X98714285Y-18407200D02*
X98761904Y-18359580D01*
X98761904Y-18359580D02*
X98809523Y-18264342D01*
X98809523Y-18264342D02*
X98809523Y-17454819D01*
X99714285Y-17788152D02*
X99714285Y-18454819D01*
X99476190Y-17407200D02*
X99238095Y-18121485D01*
X99238095Y-18121485D02*
X99857142Y-18121485D01*
X94238094Y-2819104D02*
X94714284Y-2819104D01*
X94142856Y-3104819D02*
X94476189Y-2104819D01*
X94476189Y-2104819D02*
X94809522Y-3104819D01*
X95142856Y-2438152D02*
X95142856Y-3104819D01*
X95142856Y-2533390D02*
X95190475Y-2485771D01*
X95190475Y-2485771D02*
X95285713Y-2438152D01*
X95285713Y-2438152D02*
X95428570Y-2438152D01*
X95428570Y-2438152D02*
X95523808Y-2485771D01*
X95523808Y-2485771D02*
X95571427Y-2581009D01*
X95571427Y-2581009D02*
X95571427Y-3104819D01*
X95904761Y-2438152D02*
X96285713Y-2438152D01*
X96047618Y-2104819D02*
X96047618Y-2961961D01*
X96047618Y-2961961D02*
X96095237Y-3057200D01*
X96095237Y-3057200D02*
X96190475Y-3104819D01*
X96190475Y-3104819D02*
X96285713Y-3104819D01*
X96999999Y-3057200D02*
X96904761Y-3104819D01*
X96904761Y-3104819D02*
X96714285Y-3104819D01*
X96714285Y-3104819D02*
X96619047Y-3057200D01*
X96619047Y-3057200D02*
X96571428Y-2961961D01*
X96571428Y-2961961D02*
X96571428Y-2581009D01*
X96571428Y-2581009D02*
X96619047Y-2485771D01*
X96619047Y-2485771D02*
X96714285Y-2438152D01*
X96714285Y-2438152D02*
X96904761Y-2438152D01*
X96904761Y-2438152D02*
X96999999Y-2485771D01*
X96999999Y-2485771D02*
X97047618Y-2581009D01*
X97047618Y-2581009D02*
X97047618Y-2676247D01*
X97047618Y-2676247D02*
X96571428Y-2771485D01*
X97476190Y-2438152D02*
X97476190Y-3104819D01*
X97476190Y-2533390D02*
X97523809Y-2485771D01*
X97523809Y-2485771D02*
X97619047Y-2438152D01*
X97619047Y-2438152D02*
X97761904Y-2438152D01*
X97761904Y-2438152D02*
X97857142Y-2485771D01*
X97857142Y-2485771D02*
X97904761Y-2581009D01*
X97904761Y-2581009D02*
X97904761Y-3104819D01*
X98380952Y-2438152D02*
X98380952Y-3104819D01*
X98380952Y-2533390D02*
X98428571Y-2485771D01*
X98428571Y-2485771D02*
X98523809Y-2438152D01*
X98523809Y-2438152D02*
X98666666Y-2438152D01*
X98666666Y-2438152D02*
X98761904Y-2485771D01*
X98761904Y-2485771D02*
X98809523Y-2581009D01*
X98809523Y-2581009D02*
X98809523Y-3104819D01*
X99714285Y-3104819D02*
X99714285Y-2581009D01*
X99714285Y-2581009D02*
X99666666Y-2485771D01*
X99666666Y-2485771D02*
X99571428Y-2438152D01*
X99571428Y-2438152D02*
X99380952Y-2438152D01*
X99380952Y-2438152D02*
X99285714Y-2485771D01*
X99714285Y-3057200D02*
X99619047Y-3104819D01*
X99619047Y-3104819D02*
X99380952Y-3104819D01*
X99380952Y-3104819D02*
X99285714Y-3057200D01*
X99285714Y-3057200D02*
X99238095Y-2961961D01*
X99238095Y-2961961D02*
X99238095Y-2866723D01*
X99238095Y-2866723D02*
X99285714Y-2771485D01*
X99285714Y-2771485D02*
X99380952Y-2723866D01*
X99380952Y-2723866D02*
X99619047Y-2723866D01*
X99619047Y-2723866D02*
X99714285Y-2676247D01*
X100904762Y-2819104D02*
X101380952Y-2819104D01*
X100809524Y-3104819D02*
X101142857Y-2104819D01*
X101142857Y-2104819D02*
X101476190Y-3104819D01*
X101809524Y-3104819D02*
X101809524Y-2438152D01*
X101809524Y-2628628D02*
X101857143Y-2533390D01*
X101857143Y-2533390D02*
X101904762Y-2485771D01*
X101904762Y-2485771D02*
X102000000Y-2438152D01*
X102000000Y-2438152D02*
X102095238Y-2438152D01*
X102809524Y-3057200D02*
X102714286Y-3104819D01*
X102714286Y-3104819D02*
X102523810Y-3104819D01*
X102523810Y-3104819D02*
X102428572Y-3057200D01*
X102428572Y-3057200D02*
X102380953Y-2961961D01*
X102380953Y-2961961D02*
X102380953Y-2581009D01*
X102380953Y-2581009D02*
X102428572Y-2485771D01*
X102428572Y-2485771D02*
X102523810Y-2438152D01*
X102523810Y-2438152D02*
X102714286Y-2438152D01*
X102714286Y-2438152D02*
X102809524Y-2485771D01*
X102809524Y-2485771D02*
X102857143Y-2581009D01*
X102857143Y-2581009D02*
X102857143Y-2676247D01*
X102857143Y-2676247D02*
X102380953Y-2771485D01*
X103714286Y-3104819D02*
X103714286Y-2581009D01*
X103714286Y-2581009D02*
X103666667Y-2485771D01*
X103666667Y-2485771D02*
X103571429Y-2438152D01*
X103571429Y-2438152D02*
X103380953Y-2438152D01*
X103380953Y-2438152D02*
X103285715Y-2485771D01*
X103714286Y-3057200D02*
X103619048Y-3104819D01*
X103619048Y-3104819D02*
X103380953Y-3104819D01*
X103380953Y-3104819D02*
X103285715Y-3057200D01*
X103285715Y-3057200D02*
X103238096Y-2961961D01*
X103238096Y-2961961D02*
X103238096Y-2866723D01*
X103238096Y-2866723D02*
X103285715Y-2771485D01*
X103285715Y-2771485D02*
X103380953Y-2723866D01*
X103380953Y-2723866D02*
X103619048Y-2723866D01*
X103619048Y-2723866D02*
X103714286Y-2676247D01*
X101833333Y-20024819D02*
X101500000Y-19548628D01*
X101261905Y-20024819D02*
X101261905Y-19024819D01*
X101261905Y-19024819D02*
X101642857Y-19024819D01*
X101642857Y-19024819D02*
X101738095Y-19072438D01*
X101738095Y-19072438D02*
X101785714Y-19120057D01*
X101785714Y-19120057D02*
X101833333Y-19215295D01*
X101833333Y-19215295D02*
X101833333Y-19358152D01*
X101833333Y-19358152D02*
X101785714Y-19453390D01*
X101785714Y-19453390D02*
X101738095Y-19501009D01*
X101738095Y-19501009D02*
X101642857Y-19548628D01*
X101642857Y-19548628D02*
X101261905Y-19548628D01*
X102690476Y-19024819D02*
X102500000Y-19024819D01*
X102500000Y-19024819D02*
X102404762Y-19072438D01*
X102404762Y-19072438D02*
X102357143Y-19120057D01*
X102357143Y-19120057D02*
X102261905Y-19262914D01*
X102261905Y-19262914D02*
X102214286Y-19453390D01*
X102214286Y-19453390D02*
X102214286Y-19834342D01*
X102214286Y-19834342D02*
X102261905Y-19929580D01*
X102261905Y-19929580D02*
X102309524Y-19977200D01*
X102309524Y-19977200D02*
X102404762Y-20024819D01*
X102404762Y-20024819D02*
X102595238Y-20024819D01*
X102595238Y-20024819D02*
X102690476Y-19977200D01*
X102690476Y-19977200D02*
X102738095Y-19929580D01*
X102738095Y-19929580D02*
X102785714Y-19834342D01*
X102785714Y-19834342D02*
X102785714Y-19596247D01*
X102785714Y-19596247D02*
X102738095Y-19501009D01*
X102738095Y-19501009D02*
X102690476Y-19453390D01*
X102690476Y-19453390D02*
X102595238Y-19405771D01*
X102595238Y-19405771D02*
X102404762Y-19405771D01*
X102404762Y-19405771D02*
X102309524Y-19453390D01*
X102309524Y-19453390D02*
X102261905Y-19501009D01*
X102261905Y-19501009D02*
X102214286Y-19596247D01*
X111666667Y-19207200D02*
X111809524Y-19254819D01*
X111809524Y-19254819D02*
X112047619Y-19254819D01*
X112047619Y-19254819D02*
X112142857Y-19207200D01*
X112142857Y-19207200D02*
X112190476Y-19159580D01*
X112190476Y-19159580D02*
X112238095Y-19064342D01*
X112238095Y-19064342D02*
X112238095Y-18969104D01*
X112238095Y-18969104D02*
X112190476Y-18873866D01*
X112190476Y-18873866D02*
X112142857Y-18826247D01*
X112142857Y-18826247D02*
X112047619Y-18778628D01*
X112047619Y-18778628D02*
X111857143Y-18731009D01*
X111857143Y-18731009D02*
X111761905Y-18683390D01*
X111761905Y-18683390D02*
X111714286Y-18635771D01*
X111714286Y-18635771D02*
X111666667Y-18540533D01*
X111666667Y-18540533D02*
X111666667Y-18445295D01*
X111666667Y-18445295D02*
X111714286Y-18350057D01*
X111714286Y-18350057D02*
X111761905Y-18302438D01*
X111761905Y-18302438D02*
X111857143Y-18254819D01*
X111857143Y-18254819D02*
X112095238Y-18254819D01*
X112095238Y-18254819D02*
X112238095Y-18302438D01*
X112571429Y-18254819D02*
X112809524Y-19254819D01*
X112809524Y-19254819D02*
X113000000Y-18540533D01*
X113000000Y-18540533D02*
X113190476Y-19254819D01*
X113190476Y-19254819D02*
X113428572Y-18254819D01*
X114333333Y-19254819D02*
X113761905Y-19254819D01*
X114047619Y-19254819D02*
X114047619Y-18254819D01*
X114047619Y-18254819D02*
X113952381Y-18397676D01*
X113952381Y-18397676D02*
X113857143Y-18492914D01*
X113857143Y-18492914D02*
X113761905Y-18540533D01*
X119024819Y-17666666D02*
X118548628Y-17999999D01*
X119024819Y-18238094D02*
X118024819Y-18238094D01*
X118024819Y-18238094D02*
X118024819Y-17857142D01*
X118024819Y-17857142D02*
X118072438Y-17761904D01*
X118072438Y-17761904D02*
X118120057Y-17714285D01*
X118120057Y-17714285D02*
X118215295Y-17666666D01*
X118215295Y-17666666D02*
X118358152Y-17666666D01*
X118358152Y-17666666D02*
X118453390Y-17714285D01*
X118453390Y-17714285D02*
X118501009Y-17761904D01*
X118501009Y-17761904D02*
X118548628Y-17857142D01*
X118548628Y-17857142D02*
X118548628Y-18238094D01*
X118024819Y-17333332D02*
X118024819Y-16666666D01*
X118024819Y-16666666D02*
X119024819Y-17095237D01*
X122666667Y-19207200D02*
X122809524Y-19254819D01*
X122809524Y-19254819D02*
X123047619Y-19254819D01*
X123047619Y-19254819D02*
X123142857Y-19207200D01*
X123142857Y-19207200D02*
X123190476Y-19159580D01*
X123190476Y-19159580D02*
X123238095Y-19064342D01*
X123238095Y-19064342D02*
X123238095Y-18969104D01*
X123238095Y-18969104D02*
X123190476Y-18873866D01*
X123190476Y-18873866D02*
X123142857Y-18826247D01*
X123142857Y-18826247D02*
X123047619Y-18778628D01*
X123047619Y-18778628D02*
X122857143Y-18731009D01*
X122857143Y-18731009D02*
X122761905Y-18683390D01*
X122761905Y-18683390D02*
X122714286Y-18635771D01*
X122714286Y-18635771D02*
X122666667Y-18540533D01*
X122666667Y-18540533D02*
X122666667Y-18445295D01*
X122666667Y-18445295D02*
X122714286Y-18350057D01*
X122714286Y-18350057D02*
X122761905Y-18302438D01*
X122761905Y-18302438D02*
X122857143Y-18254819D01*
X122857143Y-18254819D02*
X123095238Y-18254819D01*
X123095238Y-18254819D02*
X123238095Y-18302438D01*
X123571429Y-18254819D02*
X123809524Y-19254819D01*
X123809524Y-19254819D02*
X124000000Y-18540533D01*
X124000000Y-18540533D02*
X124190476Y-19254819D01*
X124190476Y-19254819D02*
X124428572Y-18254819D01*
X124761905Y-18350057D02*
X124809524Y-18302438D01*
X124809524Y-18302438D02*
X124904762Y-18254819D01*
X124904762Y-18254819D02*
X125142857Y-18254819D01*
X125142857Y-18254819D02*
X125238095Y-18302438D01*
X125238095Y-18302438D02*
X125285714Y-18350057D01*
X125285714Y-18350057D02*
X125333333Y-18445295D01*
X125333333Y-18445295D02*
X125333333Y-18540533D01*
X125333333Y-18540533D02*
X125285714Y-18683390D01*
X125285714Y-18683390D02*
X124714286Y-19254819D01*
X124714286Y-19254819D02*
X125333333Y-19254819D01*
X134666667Y-19207200D02*
X134809524Y-19254819D01*
X134809524Y-19254819D02*
X135047619Y-19254819D01*
X135047619Y-19254819D02*
X135142857Y-19207200D01*
X135142857Y-19207200D02*
X135190476Y-19159580D01*
X135190476Y-19159580D02*
X135238095Y-19064342D01*
X135238095Y-19064342D02*
X135238095Y-18969104D01*
X135238095Y-18969104D02*
X135190476Y-18873866D01*
X135190476Y-18873866D02*
X135142857Y-18826247D01*
X135142857Y-18826247D02*
X135047619Y-18778628D01*
X135047619Y-18778628D02*
X134857143Y-18731009D01*
X134857143Y-18731009D02*
X134761905Y-18683390D01*
X134761905Y-18683390D02*
X134714286Y-18635771D01*
X134714286Y-18635771D02*
X134666667Y-18540533D01*
X134666667Y-18540533D02*
X134666667Y-18445295D01*
X134666667Y-18445295D02*
X134714286Y-18350057D01*
X134714286Y-18350057D02*
X134761905Y-18302438D01*
X134761905Y-18302438D02*
X134857143Y-18254819D01*
X134857143Y-18254819D02*
X135095238Y-18254819D01*
X135095238Y-18254819D02*
X135238095Y-18302438D01*
X135571429Y-18254819D02*
X135809524Y-19254819D01*
X135809524Y-19254819D02*
X136000000Y-18540533D01*
X136000000Y-18540533D02*
X136190476Y-19254819D01*
X136190476Y-19254819D02*
X136428572Y-18254819D01*
X136714286Y-18254819D02*
X137333333Y-18254819D01*
X137333333Y-18254819D02*
X137000000Y-18635771D01*
X137000000Y-18635771D02*
X137142857Y-18635771D01*
X137142857Y-18635771D02*
X137238095Y-18683390D01*
X137238095Y-18683390D02*
X137285714Y-18731009D01*
X137285714Y-18731009D02*
X137333333Y-18826247D01*
X137333333Y-18826247D02*
X137333333Y-19064342D01*
X137333333Y-19064342D02*
X137285714Y-19159580D01*
X137285714Y-19159580D02*
X137238095Y-19207200D01*
X137238095Y-19207200D02*
X137142857Y-19254819D01*
X137142857Y-19254819D02*
X136857143Y-19254819D01*
X136857143Y-19254819D02*
X136761905Y-19207200D01*
X136761905Y-19207200D02*
X136714286Y-19159580D01*
X98357142Y-23929580D02*
X98309523Y-23977200D01*
X98309523Y-23977200D02*
X98166666Y-24024819D01*
X98166666Y-24024819D02*
X98071428Y-24024819D01*
X98071428Y-24024819D02*
X97928571Y-23977200D01*
X97928571Y-23977200D02*
X97833333Y-23881961D01*
X97833333Y-23881961D02*
X97785714Y-23786723D01*
X97785714Y-23786723D02*
X97738095Y-23596247D01*
X97738095Y-23596247D02*
X97738095Y-23453390D01*
X97738095Y-23453390D02*
X97785714Y-23262914D01*
X97785714Y-23262914D02*
X97833333Y-23167676D01*
X97833333Y-23167676D02*
X97928571Y-23072438D01*
X97928571Y-23072438D02*
X98071428Y-23024819D01*
X98071428Y-23024819D02*
X98166666Y-23024819D01*
X98166666Y-23024819D02*
X98309523Y-23072438D01*
X98309523Y-23072438D02*
X98357142Y-23120057D01*
X99309523Y-24024819D02*
X98738095Y-24024819D01*
X99023809Y-24024819D02*
X99023809Y-23024819D01*
X99023809Y-23024819D02*
X98928571Y-23167676D01*
X98928571Y-23167676D02*
X98833333Y-23262914D01*
X98833333Y-23262914D02*
X98738095Y-23310533D01*
X100166666Y-23358152D02*
X100166666Y-24024819D01*
X99928571Y-22977200D02*
X99690476Y-23691485D01*
X99690476Y-23691485D02*
X100309523Y-23691485D01*
X78190476Y-45004819D02*
X78857142Y-46004819D01*
X78857142Y-45004819D02*
X78190476Y-46004819D01*
X79761904Y-46004819D02*
X79190476Y-46004819D01*
X79476190Y-46004819D02*
X79476190Y-45004819D01*
X79476190Y-45004819D02*
X79380952Y-45147676D01*
X79380952Y-45147676D02*
X79285714Y-45242914D01*
X79285714Y-45242914D02*
X79190476Y-45290533D01*
X69357142Y-40039580D02*
X69309523Y-40087200D01*
X69309523Y-40087200D02*
X69166666Y-40134819D01*
X69166666Y-40134819D02*
X69071428Y-40134819D01*
X69071428Y-40134819D02*
X68928571Y-40087200D01*
X68928571Y-40087200D02*
X68833333Y-39991961D01*
X68833333Y-39991961D02*
X68785714Y-39896723D01*
X68785714Y-39896723D02*
X68738095Y-39706247D01*
X68738095Y-39706247D02*
X68738095Y-39563390D01*
X68738095Y-39563390D02*
X68785714Y-39372914D01*
X68785714Y-39372914D02*
X68833333Y-39277676D01*
X68833333Y-39277676D02*
X68928571Y-39182438D01*
X68928571Y-39182438D02*
X69071428Y-39134819D01*
X69071428Y-39134819D02*
X69166666Y-39134819D01*
X69166666Y-39134819D02*
X69309523Y-39182438D01*
X69309523Y-39182438D02*
X69357142Y-39230057D01*
X69738095Y-39230057D02*
X69785714Y-39182438D01*
X69785714Y-39182438D02*
X69880952Y-39134819D01*
X69880952Y-39134819D02*
X70119047Y-39134819D01*
X70119047Y-39134819D02*
X70214285Y-39182438D01*
X70214285Y-39182438D02*
X70261904Y-39230057D01*
X70261904Y-39230057D02*
X70309523Y-39325295D01*
X70309523Y-39325295D02*
X70309523Y-39420533D01*
X70309523Y-39420533D02*
X70261904Y-39563390D01*
X70261904Y-39563390D02*
X69690476Y-40134819D01*
X69690476Y-40134819D02*
X70309523Y-40134819D01*
X71166666Y-39134819D02*
X70976190Y-39134819D01*
X70976190Y-39134819D02*
X70880952Y-39182438D01*
X70880952Y-39182438D02*
X70833333Y-39230057D01*
X70833333Y-39230057D02*
X70738095Y-39372914D01*
X70738095Y-39372914D02*
X70690476Y-39563390D01*
X70690476Y-39563390D02*
X70690476Y-39944342D01*
X70690476Y-39944342D02*
X70738095Y-40039580D01*
X70738095Y-40039580D02*
X70785714Y-40087200D01*
X70785714Y-40087200D02*
X70880952Y-40134819D01*
X70880952Y-40134819D02*
X71071428Y-40134819D01*
X71071428Y-40134819D02*
X71166666Y-40087200D01*
X71166666Y-40087200D02*
X71214285Y-40039580D01*
X71214285Y-40039580D02*
X71261904Y-39944342D01*
X71261904Y-39944342D02*
X71261904Y-39706247D01*
X71261904Y-39706247D02*
X71214285Y-39611009D01*
X71214285Y-39611009D02*
X71166666Y-39563390D01*
X71166666Y-39563390D02*
X71071428Y-39515771D01*
X71071428Y-39515771D02*
X70880952Y-39515771D01*
X70880952Y-39515771D02*
X70785714Y-39563390D01*
X70785714Y-39563390D02*
X70738095Y-39611009D01*
X70738095Y-39611009D02*
X70690476Y-39706247D01*
X66333333Y-41884819D02*
X65857143Y-41884819D01*
X65857143Y-41884819D02*
X65857143Y-40884819D01*
X66571429Y-40884819D02*
X67190476Y-40884819D01*
X67190476Y-40884819D02*
X66857143Y-41265771D01*
X66857143Y-41265771D02*
X67000000Y-41265771D01*
X67000000Y-41265771D02*
X67095238Y-41313390D01*
X67095238Y-41313390D02*
X67142857Y-41361009D01*
X67142857Y-41361009D02*
X67190476Y-41456247D01*
X67190476Y-41456247D02*
X67190476Y-41694342D01*
X67190476Y-41694342D02*
X67142857Y-41789580D01*
X67142857Y-41789580D02*
X67095238Y-41837200D01*
X67095238Y-41837200D02*
X67000000Y-41884819D01*
X67000000Y-41884819D02*
X66714286Y-41884819D01*
X66714286Y-41884819D02*
X66619048Y-41837200D01*
X66619048Y-41837200D02*
X66571429Y-41789580D01*
X66333333Y-36884819D02*
X65857143Y-36884819D01*
X65857143Y-36884819D02*
X65857143Y-35884819D01*
X67095238Y-36218152D02*
X67095238Y-36884819D01*
X66857143Y-35837200D02*
X66619048Y-36551485D01*
X66619048Y-36551485D02*
X67238095Y-36551485D01*
X57057142Y-36789580D02*
X57009523Y-36837200D01*
X57009523Y-36837200D02*
X56866666Y-36884819D01*
X56866666Y-36884819D02*
X56771428Y-36884819D01*
X56771428Y-36884819D02*
X56628571Y-36837200D01*
X56628571Y-36837200D02*
X56533333Y-36741961D01*
X56533333Y-36741961D02*
X56485714Y-36646723D01*
X56485714Y-36646723D02*
X56438095Y-36456247D01*
X56438095Y-36456247D02*
X56438095Y-36313390D01*
X56438095Y-36313390D02*
X56485714Y-36122914D01*
X56485714Y-36122914D02*
X56533333Y-36027676D01*
X56533333Y-36027676D02*
X56628571Y-35932438D01*
X56628571Y-35932438D02*
X56771428Y-35884819D01*
X56771428Y-35884819D02*
X56866666Y-35884819D01*
X56866666Y-35884819D02*
X57009523Y-35932438D01*
X57009523Y-35932438D02*
X57057142Y-35980057D01*
X57390476Y-35884819D02*
X58009523Y-35884819D01*
X58009523Y-35884819D02*
X57676190Y-36265771D01*
X57676190Y-36265771D02*
X57819047Y-36265771D01*
X57819047Y-36265771D02*
X57914285Y-36313390D01*
X57914285Y-36313390D02*
X57961904Y-36361009D01*
X57961904Y-36361009D02*
X58009523Y-36456247D01*
X58009523Y-36456247D02*
X58009523Y-36694342D01*
X58009523Y-36694342D02*
X57961904Y-36789580D01*
X57961904Y-36789580D02*
X57914285Y-36837200D01*
X57914285Y-36837200D02*
X57819047Y-36884819D01*
X57819047Y-36884819D02*
X57533333Y-36884819D01*
X57533333Y-36884819D02*
X57438095Y-36837200D01*
X57438095Y-36837200D02*
X57390476Y-36789580D01*
X58628571Y-35884819D02*
X58723809Y-35884819D01*
X58723809Y-35884819D02*
X58819047Y-35932438D01*
X58819047Y-35932438D02*
X58866666Y-35980057D01*
X58866666Y-35980057D02*
X58914285Y-36075295D01*
X58914285Y-36075295D02*
X58961904Y-36265771D01*
X58961904Y-36265771D02*
X58961904Y-36503866D01*
X58961904Y-36503866D02*
X58914285Y-36694342D01*
X58914285Y-36694342D02*
X58866666Y-36789580D01*
X58866666Y-36789580D02*
X58819047Y-36837200D01*
X58819047Y-36837200D02*
X58723809Y-36884819D01*
X58723809Y-36884819D02*
X58628571Y-36884819D01*
X58628571Y-36884819D02*
X58533333Y-36837200D01*
X58533333Y-36837200D02*
X58485714Y-36789580D01*
X58485714Y-36789580D02*
X58438095Y-36694342D01*
X58438095Y-36694342D02*
X58390476Y-36503866D01*
X58390476Y-36503866D02*
X58390476Y-36265771D01*
X58390476Y-36265771D02*
X58438095Y-36075295D01*
X58438095Y-36075295D02*
X58485714Y-35980057D01*
X58485714Y-35980057D02*
X58533333Y-35932438D01*
X58533333Y-35932438D02*
X58628571Y-35884819D01*
X72457142Y-45789580D02*
X72409523Y-45837200D01*
X72409523Y-45837200D02*
X72266666Y-45884819D01*
X72266666Y-45884819D02*
X72171428Y-45884819D01*
X72171428Y-45884819D02*
X72028571Y-45837200D01*
X72028571Y-45837200D02*
X71933333Y-45741961D01*
X71933333Y-45741961D02*
X71885714Y-45646723D01*
X71885714Y-45646723D02*
X71838095Y-45456247D01*
X71838095Y-45456247D02*
X71838095Y-45313390D01*
X71838095Y-45313390D02*
X71885714Y-45122914D01*
X71885714Y-45122914D02*
X71933333Y-45027676D01*
X71933333Y-45027676D02*
X72028571Y-44932438D01*
X72028571Y-44932438D02*
X72171428Y-44884819D01*
X72171428Y-44884819D02*
X72266666Y-44884819D01*
X72266666Y-44884819D02*
X72409523Y-44932438D01*
X72409523Y-44932438D02*
X72457142Y-44980057D01*
X72790476Y-44884819D02*
X73409523Y-44884819D01*
X73409523Y-44884819D02*
X73076190Y-45265771D01*
X73076190Y-45265771D02*
X73219047Y-45265771D01*
X73219047Y-45265771D02*
X73314285Y-45313390D01*
X73314285Y-45313390D02*
X73361904Y-45361009D01*
X73361904Y-45361009D02*
X73409523Y-45456247D01*
X73409523Y-45456247D02*
X73409523Y-45694342D01*
X73409523Y-45694342D02*
X73361904Y-45789580D01*
X73361904Y-45789580D02*
X73314285Y-45837200D01*
X73314285Y-45837200D02*
X73219047Y-45884819D01*
X73219047Y-45884819D02*
X72933333Y-45884819D01*
X72933333Y-45884819D02*
X72838095Y-45837200D01*
X72838095Y-45837200D02*
X72790476Y-45789580D01*
X73742857Y-44884819D02*
X74409523Y-44884819D01*
X74409523Y-44884819D02*
X73980952Y-45884819D01*
X72457142Y-32789580D02*
X72409523Y-32837200D01*
X72409523Y-32837200D02*
X72266666Y-32884819D01*
X72266666Y-32884819D02*
X72171428Y-32884819D01*
X72171428Y-32884819D02*
X72028571Y-32837200D01*
X72028571Y-32837200D02*
X71933333Y-32741961D01*
X71933333Y-32741961D02*
X71885714Y-32646723D01*
X71885714Y-32646723D02*
X71838095Y-32456247D01*
X71838095Y-32456247D02*
X71838095Y-32313390D01*
X71838095Y-32313390D02*
X71885714Y-32122914D01*
X71885714Y-32122914D02*
X71933333Y-32027676D01*
X71933333Y-32027676D02*
X72028571Y-31932438D01*
X72028571Y-31932438D02*
X72171428Y-31884819D01*
X72171428Y-31884819D02*
X72266666Y-31884819D01*
X72266666Y-31884819D02*
X72409523Y-31932438D01*
X72409523Y-31932438D02*
X72457142Y-31980057D01*
X72790476Y-31884819D02*
X73409523Y-31884819D01*
X73409523Y-31884819D02*
X73076190Y-32265771D01*
X73076190Y-32265771D02*
X73219047Y-32265771D01*
X73219047Y-32265771D02*
X73314285Y-32313390D01*
X73314285Y-32313390D02*
X73361904Y-32361009D01*
X73361904Y-32361009D02*
X73409523Y-32456247D01*
X73409523Y-32456247D02*
X73409523Y-32694342D01*
X73409523Y-32694342D02*
X73361904Y-32789580D01*
X73361904Y-32789580D02*
X73314285Y-32837200D01*
X73314285Y-32837200D02*
X73219047Y-32884819D01*
X73219047Y-32884819D02*
X72933333Y-32884819D01*
X72933333Y-32884819D02*
X72838095Y-32837200D01*
X72838095Y-32837200D02*
X72790476Y-32789580D01*
X73980952Y-32313390D02*
X73885714Y-32265771D01*
X73885714Y-32265771D02*
X73838095Y-32218152D01*
X73838095Y-32218152D02*
X73790476Y-32122914D01*
X73790476Y-32122914D02*
X73790476Y-32075295D01*
X73790476Y-32075295D02*
X73838095Y-31980057D01*
X73838095Y-31980057D02*
X73885714Y-31932438D01*
X73885714Y-31932438D02*
X73980952Y-31884819D01*
X73980952Y-31884819D02*
X74171428Y-31884819D01*
X74171428Y-31884819D02*
X74266666Y-31932438D01*
X74266666Y-31932438D02*
X74314285Y-31980057D01*
X74314285Y-31980057D02*
X74361904Y-32075295D01*
X74361904Y-32075295D02*
X74361904Y-32122914D01*
X74361904Y-32122914D02*
X74314285Y-32218152D01*
X74314285Y-32218152D02*
X74266666Y-32265771D01*
X74266666Y-32265771D02*
X74171428Y-32313390D01*
X74171428Y-32313390D02*
X73980952Y-32313390D01*
X73980952Y-32313390D02*
X73885714Y-32361009D01*
X73885714Y-32361009D02*
X73838095Y-32408628D01*
X73838095Y-32408628D02*
X73790476Y-32503866D01*
X73790476Y-32503866D02*
X73790476Y-32694342D01*
X73790476Y-32694342D02*
X73838095Y-32789580D01*
X73838095Y-32789580D02*
X73885714Y-32837200D01*
X73885714Y-32837200D02*
X73980952Y-32884819D01*
X73980952Y-32884819D02*
X74171428Y-32884819D01*
X74171428Y-32884819D02*
X74266666Y-32837200D01*
X74266666Y-32837200D02*
X74314285Y-32789580D01*
X74314285Y-32789580D02*
X74361904Y-32694342D01*
X74361904Y-32694342D02*
X74361904Y-32503866D01*
X74361904Y-32503866D02*
X74314285Y-32408628D01*
X74314285Y-32408628D02*
X74266666Y-32361009D01*
X74266666Y-32361009D02*
X74171428Y-32313390D01*
X53557142Y-41884819D02*
X53223809Y-41408628D01*
X52985714Y-41884819D02*
X52985714Y-40884819D01*
X52985714Y-40884819D02*
X53366666Y-40884819D01*
X53366666Y-40884819D02*
X53461904Y-40932438D01*
X53461904Y-40932438D02*
X53509523Y-40980057D01*
X53509523Y-40980057D02*
X53557142Y-41075295D01*
X53557142Y-41075295D02*
X53557142Y-41218152D01*
X53557142Y-41218152D02*
X53509523Y-41313390D01*
X53509523Y-41313390D02*
X53461904Y-41361009D01*
X53461904Y-41361009D02*
X53366666Y-41408628D01*
X53366666Y-41408628D02*
X52985714Y-41408628D01*
X54509523Y-41884819D02*
X53938095Y-41884819D01*
X54223809Y-41884819D02*
X54223809Y-40884819D01*
X54223809Y-40884819D02*
X54128571Y-41027676D01*
X54128571Y-41027676D02*
X54033333Y-41122914D01*
X54033333Y-41122914D02*
X53938095Y-41170533D01*
X55080952Y-41313390D02*
X54985714Y-41265771D01*
X54985714Y-41265771D02*
X54938095Y-41218152D01*
X54938095Y-41218152D02*
X54890476Y-41122914D01*
X54890476Y-41122914D02*
X54890476Y-41075295D01*
X54890476Y-41075295D02*
X54938095Y-40980057D01*
X54938095Y-40980057D02*
X54985714Y-40932438D01*
X54985714Y-40932438D02*
X55080952Y-40884819D01*
X55080952Y-40884819D02*
X55271428Y-40884819D01*
X55271428Y-40884819D02*
X55366666Y-40932438D01*
X55366666Y-40932438D02*
X55414285Y-40980057D01*
X55414285Y-40980057D02*
X55461904Y-41075295D01*
X55461904Y-41075295D02*
X55461904Y-41122914D01*
X55461904Y-41122914D02*
X55414285Y-41218152D01*
X55414285Y-41218152D02*
X55366666Y-41265771D01*
X55366666Y-41265771D02*
X55271428Y-41313390D01*
X55271428Y-41313390D02*
X55080952Y-41313390D01*
X55080952Y-41313390D02*
X54985714Y-41361009D01*
X54985714Y-41361009D02*
X54938095Y-41408628D01*
X54938095Y-41408628D02*
X54890476Y-41503866D01*
X54890476Y-41503866D02*
X54890476Y-41694342D01*
X54890476Y-41694342D02*
X54938095Y-41789580D01*
X54938095Y-41789580D02*
X54985714Y-41837200D01*
X54985714Y-41837200D02*
X55080952Y-41884819D01*
X55080952Y-41884819D02*
X55271428Y-41884819D01*
X55271428Y-41884819D02*
X55366666Y-41837200D01*
X55366666Y-41837200D02*
X55414285Y-41789580D01*
X55414285Y-41789580D02*
X55461904Y-41694342D01*
X55461904Y-41694342D02*
X55461904Y-41503866D01*
X55461904Y-41503866D02*
X55414285Y-41408628D01*
X55414285Y-41408628D02*
X55366666Y-41361009D01*
X55366666Y-41361009D02*
X55271428Y-41313390D01*
X53557142Y-36884819D02*
X53223809Y-36408628D01*
X52985714Y-36884819D02*
X52985714Y-35884819D01*
X52985714Y-35884819D02*
X53366666Y-35884819D01*
X53366666Y-35884819D02*
X53461904Y-35932438D01*
X53461904Y-35932438D02*
X53509523Y-35980057D01*
X53509523Y-35980057D02*
X53557142Y-36075295D01*
X53557142Y-36075295D02*
X53557142Y-36218152D01*
X53557142Y-36218152D02*
X53509523Y-36313390D01*
X53509523Y-36313390D02*
X53461904Y-36361009D01*
X53461904Y-36361009D02*
X53366666Y-36408628D01*
X53366666Y-36408628D02*
X52985714Y-36408628D01*
X54509523Y-36884819D02*
X53938095Y-36884819D01*
X54223809Y-36884819D02*
X54223809Y-35884819D01*
X54223809Y-35884819D02*
X54128571Y-36027676D01*
X54128571Y-36027676D02*
X54033333Y-36122914D01*
X54033333Y-36122914D02*
X53938095Y-36170533D01*
X54985714Y-36884819D02*
X55176190Y-36884819D01*
X55176190Y-36884819D02*
X55271428Y-36837200D01*
X55271428Y-36837200D02*
X55319047Y-36789580D01*
X55319047Y-36789580D02*
X55414285Y-36646723D01*
X55414285Y-36646723D02*
X55461904Y-36456247D01*
X55461904Y-36456247D02*
X55461904Y-36075295D01*
X55461904Y-36075295D02*
X55414285Y-35980057D01*
X55414285Y-35980057D02*
X55366666Y-35932438D01*
X55366666Y-35932438D02*
X55271428Y-35884819D01*
X55271428Y-35884819D02*
X55080952Y-35884819D01*
X55080952Y-35884819D02*
X54985714Y-35932438D01*
X54985714Y-35932438D02*
X54938095Y-35980057D01*
X54938095Y-35980057D02*
X54890476Y-36075295D01*
X54890476Y-36075295D02*
X54890476Y-36313390D01*
X54890476Y-36313390D02*
X54938095Y-36408628D01*
X54938095Y-36408628D02*
X54985714Y-36456247D01*
X54985714Y-36456247D02*
X55080952Y-36503866D01*
X55080952Y-36503866D02*
X55271428Y-36503866D01*
X55271428Y-36503866D02*
X55366666Y-36456247D01*
X55366666Y-36456247D02*
X55414285Y-36408628D01*
X55414285Y-36408628D02*
X55461904Y-36313390D01*
X69057142Y-45884819D02*
X68723809Y-45408628D01*
X68485714Y-45884819D02*
X68485714Y-44884819D01*
X68485714Y-44884819D02*
X68866666Y-44884819D01*
X68866666Y-44884819D02*
X68961904Y-44932438D01*
X68961904Y-44932438D02*
X69009523Y-44980057D01*
X69009523Y-44980057D02*
X69057142Y-45075295D01*
X69057142Y-45075295D02*
X69057142Y-45218152D01*
X69057142Y-45218152D02*
X69009523Y-45313390D01*
X69009523Y-45313390D02*
X68961904Y-45361009D01*
X68961904Y-45361009D02*
X68866666Y-45408628D01*
X68866666Y-45408628D02*
X68485714Y-45408628D01*
X69438095Y-44980057D02*
X69485714Y-44932438D01*
X69485714Y-44932438D02*
X69580952Y-44884819D01*
X69580952Y-44884819D02*
X69819047Y-44884819D01*
X69819047Y-44884819D02*
X69914285Y-44932438D01*
X69914285Y-44932438D02*
X69961904Y-44980057D01*
X69961904Y-44980057D02*
X70009523Y-45075295D01*
X70009523Y-45075295D02*
X70009523Y-45170533D01*
X70009523Y-45170533D02*
X69961904Y-45313390D01*
X69961904Y-45313390D02*
X69390476Y-45884819D01*
X69390476Y-45884819D02*
X70009523Y-45884819D01*
X70628571Y-44884819D02*
X70723809Y-44884819D01*
X70723809Y-44884819D02*
X70819047Y-44932438D01*
X70819047Y-44932438D02*
X70866666Y-44980057D01*
X70866666Y-44980057D02*
X70914285Y-45075295D01*
X70914285Y-45075295D02*
X70961904Y-45265771D01*
X70961904Y-45265771D02*
X70961904Y-45503866D01*
X70961904Y-45503866D02*
X70914285Y-45694342D01*
X70914285Y-45694342D02*
X70866666Y-45789580D01*
X70866666Y-45789580D02*
X70819047Y-45837200D01*
X70819047Y-45837200D02*
X70723809Y-45884819D01*
X70723809Y-45884819D02*
X70628571Y-45884819D01*
X70628571Y-45884819D02*
X70533333Y-45837200D01*
X70533333Y-45837200D02*
X70485714Y-45789580D01*
X70485714Y-45789580D02*
X70438095Y-45694342D01*
X70438095Y-45694342D02*
X70390476Y-45503866D01*
X70390476Y-45503866D02*
X70390476Y-45265771D01*
X70390476Y-45265771D02*
X70438095Y-45075295D01*
X70438095Y-45075295D02*
X70485714Y-44980057D01*
X70485714Y-44980057D02*
X70533333Y-44932438D01*
X70533333Y-44932438D02*
X70628571Y-44884819D01*
X69057142Y-32884819D02*
X68723809Y-32408628D01*
X68485714Y-32884819D02*
X68485714Y-31884819D01*
X68485714Y-31884819D02*
X68866666Y-31884819D01*
X68866666Y-31884819D02*
X68961904Y-31932438D01*
X68961904Y-31932438D02*
X69009523Y-31980057D01*
X69009523Y-31980057D02*
X69057142Y-32075295D01*
X69057142Y-32075295D02*
X69057142Y-32218152D01*
X69057142Y-32218152D02*
X69009523Y-32313390D01*
X69009523Y-32313390D02*
X68961904Y-32361009D01*
X68961904Y-32361009D02*
X68866666Y-32408628D01*
X68866666Y-32408628D02*
X68485714Y-32408628D01*
X69438095Y-31980057D02*
X69485714Y-31932438D01*
X69485714Y-31932438D02*
X69580952Y-31884819D01*
X69580952Y-31884819D02*
X69819047Y-31884819D01*
X69819047Y-31884819D02*
X69914285Y-31932438D01*
X69914285Y-31932438D02*
X69961904Y-31980057D01*
X69961904Y-31980057D02*
X70009523Y-32075295D01*
X70009523Y-32075295D02*
X70009523Y-32170533D01*
X70009523Y-32170533D02*
X69961904Y-32313390D01*
X69961904Y-32313390D02*
X69390476Y-32884819D01*
X69390476Y-32884819D02*
X70009523Y-32884819D01*
X70961904Y-32884819D02*
X70390476Y-32884819D01*
X70676190Y-32884819D02*
X70676190Y-31884819D01*
X70676190Y-31884819D02*
X70580952Y-32027676D01*
X70580952Y-32027676D02*
X70485714Y-32122914D01*
X70485714Y-32122914D02*
X70390476Y-32170533D01*
X50057142Y-41884819D02*
X49723809Y-41408628D01*
X49485714Y-41884819D02*
X49485714Y-40884819D01*
X49485714Y-40884819D02*
X49866666Y-40884819D01*
X49866666Y-40884819D02*
X49961904Y-40932438D01*
X49961904Y-40932438D02*
X50009523Y-40980057D01*
X50009523Y-40980057D02*
X50057142Y-41075295D01*
X50057142Y-41075295D02*
X50057142Y-41218152D01*
X50057142Y-41218152D02*
X50009523Y-41313390D01*
X50009523Y-41313390D02*
X49961904Y-41361009D01*
X49961904Y-41361009D02*
X49866666Y-41408628D01*
X49866666Y-41408628D02*
X49485714Y-41408628D01*
X50438095Y-40980057D02*
X50485714Y-40932438D01*
X50485714Y-40932438D02*
X50580952Y-40884819D01*
X50580952Y-40884819D02*
X50819047Y-40884819D01*
X50819047Y-40884819D02*
X50914285Y-40932438D01*
X50914285Y-40932438D02*
X50961904Y-40980057D01*
X50961904Y-40980057D02*
X51009523Y-41075295D01*
X51009523Y-41075295D02*
X51009523Y-41170533D01*
X51009523Y-41170533D02*
X50961904Y-41313390D01*
X50961904Y-41313390D02*
X50390476Y-41884819D01*
X50390476Y-41884819D02*
X51009523Y-41884819D01*
X51390476Y-40980057D02*
X51438095Y-40932438D01*
X51438095Y-40932438D02*
X51533333Y-40884819D01*
X51533333Y-40884819D02*
X51771428Y-40884819D01*
X51771428Y-40884819D02*
X51866666Y-40932438D01*
X51866666Y-40932438D02*
X51914285Y-40980057D01*
X51914285Y-40980057D02*
X51961904Y-41075295D01*
X51961904Y-41075295D02*
X51961904Y-41170533D01*
X51961904Y-41170533D02*
X51914285Y-41313390D01*
X51914285Y-41313390D02*
X51342857Y-41884819D01*
X51342857Y-41884819D02*
X51961904Y-41884819D01*
X50057142Y-36884819D02*
X49723809Y-36408628D01*
X49485714Y-36884819D02*
X49485714Y-35884819D01*
X49485714Y-35884819D02*
X49866666Y-35884819D01*
X49866666Y-35884819D02*
X49961904Y-35932438D01*
X49961904Y-35932438D02*
X50009523Y-35980057D01*
X50009523Y-35980057D02*
X50057142Y-36075295D01*
X50057142Y-36075295D02*
X50057142Y-36218152D01*
X50057142Y-36218152D02*
X50009523Y-36313390D01*
X50009523Y-36313390D02*
X49961904Y-36361009D01*
X49961904Y-36361009D02*
X49866666Y-36408628D01*
X49866666Y-36408628D02*
X49485714Y-36408628D01*
X50438095Y-35980057D02*
X50485714Y-35932438D01*
X50485714Y-35932438D02*
X50580952Y-35884819D01*
X50580952Y-35884819D02*
X50819047Y-35884819D01*
X50819047Y-35884819D02*
X50914285Y-35932438D01*
X50914285Y-35932438D02*
X50961904Y-35980057D01*
X50961904Y-35980057D02*
X51009523Y-36075295D01*
X51009523Y-36075295D02*
X51009523Y-36170533D01*
X51009523Y-36170533D02*
X50961904Y-36313390D01*
X50961904Y-36313390D02*
X50390476Y-36884819D01*
X50390476Y-36884819D02*
X51009523Y-36884819D01*
X51342857Y-35884819D02*
X51961904Y-35884819D01*
X51961904Y-35884819D02*
X51628571Y-36265771D01*
X51628571Y-36265771D02*
X51771428Y-36265771D01*
X51771428Y-36265771D02*
X51866666Y-36313390D01*
X51866666Y-36313390D02*
X51914285Y-36361009D01*
X51914285Y-36361009D02*
X51961904Y-36456247D01*
X51961904Y-36456247D02*
X51961904Y-36694342D01*
X51961904Y-36694342D02*
X51914285Y-36789580D01*
X51914285Y-36789580D02*
X51866666Y-36837200D01*
X51866666Y-36837200D02*
X51771428Y-36884819D01*
X51771428Y-36884819D02*
X51485714Y-36884819D01*
X51485714Y-36884819D02*
X51390476Y-36837200D01*
X51390476Y-36837200D02*
X51342857Y-36789580D01*
X50857142Y-51024819D02*
X50523809Y-50548628D01*
X50285714Y-51024819D02*
X50285714Y-50024819D01*
X50285714Y-50024819D02*
X50666666Y-50024819D01*
X50666666Y-50024819D02*
X50761904Y-50072438D01*
X50761904Y-50072438D02*
X50809523Y-50120057D01*
X50809523Y-50120057D02*
X50857142Y-50215295D01*
X50857142Y-50215295D02*
X50857142Y-50358152D01*
X50857142Y-50358152D02*
X50809523Y-50453390D01*
X50809523Y-50453390D02*
X50761904Y-50501009D01*
X50761904Y-50501009D02*
X50666666Y-50548628D01*
X50666666Y-50548628D02*
X50285714Y-50548628D01*
X51238095Y-50120057D02*
X51285714Y-50072438D01*
X51285714Y-50072438D02*
X51380952Y-50024819D01*
X51380952Y-50024819D02*
X51619047Y-50024819D01*
X51619047Y-50024819D02*
X51714285Y-50072438D01*
X51714285Y-50072438D02*
X51761904Y-50120057D01*
X51761904Y-50120057D02*
X51809523Y-50215295D01*
X51809523Y-50215295D02*
X51809523Y-50310533D01*
X51809523Y-50310533D02*
X51761904Y-50453390D01*
X51761904Y-50453390D02*
X51190476Y-51024819D01*
X51190476Y-51024819D02*
X51809523Y-51024819D01*
X52666666Y-50358152D02*
X52666666Y-51024819D01*
X52428571Y-49977200D02*
X52190476Y-50691485D01*
X52190476Y-50691485D02*
X52809523Y-50691485D01*
X50857142Y-48024819D02*
X50523809Y-47548628D01*
X50285714Y-48024819D02*
X50285714Y-47024819D01*
X50285714Y-47024819D02*
X50666666Y-47024819D01*
X50666666Y-47024819D02*
X50761904Y-47072438D01*
X50761904Y-47072438D02*
X50809523Y-47120057D01*
X50809523Y-47120057D02*
X50857142Y-47215295D01*
X50857142Y-47215295D02*
X50857142Y-47358152D01*
X50857142Y-47358152D02*
X50809523Y-47453390D01*
X50809523Y-47453390D02*
X50761904Y-47501009D01*
X50761904Y-47501009D02*
X50666666Y-47548628D01*
X50666666Y-47548628D02*
X50285714Y-47548628D01*
X51238095Y-47120057D02*
X51285714Y-47072438D01*
X51285714Y-47072438D02*
X51380952Y-47024819D01*
X51380952Y-47024819D02*
X51619047Y-47024819D01*
X51619047Y-47024819D02*
X51714285Y-47072438D01*
X51714285Y-47072438D02*
X51761904Y-47120057D01*
X51761904Y-47120057D02*
X51809523Y-47215295D01*
X51809523Y-47215295D02*
X51809523Y-47310533D01*
X51809523Y-47310533D02*
X51761904Y-47453390D01*
X51761904Y-47453390D02*
X51190476Y-48024819D01*
X51190476Y-48024819D02*
X51809523Y-48024819D01*
X52714285Y-47024819D02*
X52238095Y-47024819D01*
X52238095Y-47024819D02*
X52190476Y-47501009D01*
X52190476Y-47501009D02*
X52238095Y-47453390D01*
X52238095Y-47453390D02*
X52333333Y-47405771D01*
X52333333Y-47405771D02*
X52571428Y-47405771D01*
X52571428Y-47405771D02*
X52666666Y-47453390D01*
X52666666Y-47453390D02*
X52714285Y-47501009D01*
X52714285Y-47501009D02*
X52761904Y-47596247D01*
X52761904Y-47596247D02*
X52761904Y-47834342D01*
X52761904Y-47834342D02*
X52714285Y-47929580D01*
X52714285Y-47929580D02*
X52666666Y-47977200D01*
X52666666Y-47977200D02*
X52571428Y-48024819D01*
X52571428Y-48024819D02*
X52333333Y-48024819D01*
X52333333Y-48024819D02*
X52238095Y-47977200D01*
X52238095Y-47977200D02*
X52190476Y-47929580D01*
X55624819Y-50833333D02*
X56339104Y-50833333D01*
X56339104Y-50833333D02*
X56481961Y-50880952D01*
X56481961Y-50880952D02*
X56577200Y-50976190D01*
X56577200Y-50976190D02*
X56624819Y-51119047D01*
X56624819Y-51119047D02*
X56624819Y-51214285D01*
X55624819Y-50452380D02*
X55624819Y-49833333D01*
X55624819Y-49833333D02*
X56005771Y-50166666D01*
X56005771Y-50166666D02*
X56005771Y-50023809D01*
X56005771Y-50023809D02*
X56053390Y-49928571D01*
X56053390Y-49928571D02*
X56101009Y-49880952D01*
X56101009Y-49880952D02*
X56196247Y-49833333D01*
X56196247Y-49833333D02*
X56434342Y-49833333D01*
X56434342Y-49833333D02*
X56529580Y-49880952D01*
X56529580Y-49880952D02*
X56577200Y-49928571D01*
X56577200Y-49928571D02*
X56624819Y-50023809D01*
X56624819Y-50023809D02*
X56624819Y-50309523D01*
X56624819Y-50309523D02*
X56577200Y-50404761D01*
X56577200Y-50404761D02*
X56529580Y-50452380D01*
X23833333Y-14669104D02*
X24309523Y-14669104D01*
X23738095Y-14954819D02*
X24071428Y-13954819D01*
X24071428Y-13954819D02*
X24404761Y-14954819D01*
X24738095Y-14431009D02*
X25071428Y-14431009D01*
X25214285Y-14954819D02*
X24738095Y-14954819D01*
X24738095Y-14954819D02*
X24738095Y-13954819D01*
X24738095Y-13954819D02*
X25214285Y-13954819D01*
X26166666Y-14954819D02*
X25595238Y-14954819D01*
X25880952Y-14954819D02*
X25880952Y-13954819D01*
X25880952Y-13954819D02*
X25785714Y-14097676D01*
X25785714Y-14097676D02*
X25690476Y-14192914D01*
X25690476Y-14192914D02*
X25595238Y-14240533D01*
X127238095Y-45004819D02*
X127238095Y-45814342D01*
X127238095Y-45814342D02*
X127285714Y-45909580D01*
X127285714Y-45909580D02*
X127333333Y-45957200D01*
X127333333Y-45957200D02*
X127428571Y-46004819D01*
X127428571Y-46004819D02*
X127619047Y-46004819D01*
X127619047Y-46004819D02*
X127714285Y-45957200D01*
X127714285Y-45957200D02*
X127761904Y-45909580D01*
X127761904Y-45909580D02*
X127809523Y-45814342D01*
X127809523Y-45814342D02*
X127809523Y-45004819D01*
X128714285Y-45004819D02*
X128523809Y-45004819D01*
X128523809Y-45004819D02*
X128428571Y-45052438D01*
X128428571Y-45052438D02*
X128380952Y-45100057D01*
X128380952Y-45100057D02*
X128285714Y-45242914D01*
X128285714Y-45242914D02*
X128238095Y-45433390D01*
X128238095Y-45433390D02*
X128238095Y-45814342D01*
X128238095Y-45814342D02*
X128285714Y-45909580D01*
X128285714Y-45909580D02*
X128333333Y-45957200D01*
X128333333Y-45957200D02*
X128428571Y-46004819D01*
X128428571Y-46004819D02*
X128619047Y-46004819D01*
X128619047Y-46004819D02*
X128714285Y-45957200D01*
X128714285Y-45957200D02*
X128761904Y-45909580D01*
X128761904Y-45909580D02*
X128809523Y-45814342D01*
X128809523Y-45814342D02*
X128809523Y-45576247D01*
X128809523Y-45576247D02*
X128761904Y-45481009D01*
X128761904Y-45481009D02*
X128714285Y-45433390D01*
X128714285Y-45433390D02*
X128619047Y-45385771D01*
X128619047Y-45385771D02*
X128428571Y-45385771D01*
X128428571Y-45385771D02*
X128333333Y-45433390D01*
X128333333Y-45433390D02*
X128285714Y-45481009D01*
X128285714Y-45481009D02*
X128238095Y-45576247D01*
X123357142Y-36024819D02*
X123023809Y-35548628D01*
X122785714Y-36024819D02*
X122785714Y-35024819D01*
X122785714Y-35024819D02*
X123166666Y-35024819D01*
X123166666Y-35024819D02*
X123261904Y-35072438D01*
X123261904Y-35072438D02*
X123309523Y-35120057D01*
X123309523Y-35120057D02*
X123357142Y-35215295D01*
X123357142Y-35215295D02*
X123357142Y-35358152D01*
X123357142Y-35358152D02*
X123309523Y-35453390D01*
X123309523Y-35453390D02*
X123261904Y-35501009D01*
X123261904Y-35501009D02*
X123166666Y-35548628D01*
X123166666Y-35548628D02*
X122785714Y-35548628D01*
X123738095Y-35120057D02*
X123785714Y-35072438D01*
X123785714Y-35072438D02*
X123880952Y-35024819D01*
X123880952Y-35024819D02*
X124119047Y-35024819D01*
X124119047Y-35024819D02*
X124214285Y-35072438D01*
X124214285Y-35072438D02*
X124261904Y-35120057D01*
X124261904Y-35120057D02*
X124309523Y-35215295D01*
X124309523Y-35215295D02*
X124309523Y-35310533D01*
X124309523Y-35310533D02*
X124261904Y-35453390D01*
X124261904Y-35453390D02*
X123690476Y-36024819D01*
X123690476Y-36024819D02*
X124309523Y-36024819D01*
X125166666Y-35024819D02*
X124976190Y-35024819D01*
X124976190Y-35024819D02*
X124880952Y-35072438D01*
X124880952Y-35072438D02*
X124833333Y-35120057D01*
X124833333Y-35120057D02*
X124738095Y-35262914D01*
X124738095Y-35262914D02*
X124690476Y-35453390D01*
X124690476Y-35453390D02*
X124690476Y-35834342D01*
X124690476Y-35834342D02*
X124738095Y-35929580D01*
X124738095Y-35929580D02*
X124785714Y-35977200D01*
X124785714Y-35977200D02*
X124880952Y-36024819D01*
X124880952Y-36024819D02*
X125071428Y-36024819D01*
X125071428Y-36024819D02*
X125166666Y-35977200D01*
X125166666Y-35977200D02*
X125214285Y-35929580D01*
X125214285Y-35929580D02*
X125261904Y-35834342D01*
X125261904Y-35834342D02*
X125261904Y-35596247D01*
X125261904Y-35596247D02*
X125214285Y-35501009D01*
X125214285Y-35501009D02*
X125166666Y-35453390D01*
X125166666Y-35453390D02*
X125071428Y-35405771D01*
X125071428Y-35405771D02*
X124880952Y-35405771D01*
X124880952Y-35405771D02*
X124785714Y-35453390D01*
X124785714Y-35453390D02*
X124738095Y-35501009D01*
X124738095Y-35501009D02*
X124690476Y-35596247D01*
X127357142Y-36024819D02*
X127023809Y-35548628D01*
X126785714Y-36024819D02*
X126785714Y-35024819D01*
X126785714Y-35024819D02*
X127166666Y-35024819D01*
X127166666Y-35024819D02*
X127261904Y-35072438D01*
X127261904Y-35072438D02*
X127309523Y-35120057D01*
X127309523Y-35120057D02*
X127357142Y-35215295D01*
X127357142Y-35215295D02*
X127357142Y-35358152D01*
X127357142Y-35358152D02*
X127309523Y-35453390D01*
X127309523Y-35453390D02*
X127261904Y-35501009D01*
X127261904Y-35501009D02*
X127166666Y-35548628D01*
X127166666Y-35548628D02*
X126785714Y-35548628D01*
X127738095Y-35120057D02*
X127785714Y-35072438D01*
X127785714Y-35072438D02*
X127880952Y-35024819D01*
X127880952Y-35024819D02*
X128119047Y-35024819D01*
X128119047Y-35024819D02*
X128214285Y-35072438D01*
X128214285Y-35072438D02*
X128261904Y-35120057D01*
X128261904Y-35120057D02*
X128309523Y-35215295D01*
X128309523Y-35215295D02*
X128309523Y-35310533D01*
X128309523Y-35310533D02*
X128261904Y-35453390D01*
X128261904Y-35453390D02*
X127690476Y-36024819D01*
X127690476Y-36024819D02*
X128309523Y-36024819D01*
X128642857Y-35024819D02*
X129309523Y-35024819D01*
X129309523Y-35024819D02*
X128880952Y-36024819D01*
X131357142Y-44429580D02*
X131309523Y-44477200D01*
X131309523Y-44477200D02*
X131166666Y-44524819D01*
X131166666Y-44524819D02*
X131071428Y-44524819D01*
X131071428Y-44524819D02*
X130928571Y-44477200D01*
X130928571Y-44477200D02*
X130833333Y-44381961D01*
X130833333Y-44381961D02*
X130785714Y-44286723D01*
X130785714Y-44286723D02*
X130738095Y-44096247D01*
X130738095Y-44096247D02*
X130738095Y-43953390D01*
X130738095Y-43953390D02*
X130785714Y-43762914D01*
X130785714Y-43762914D02*
X130833333Y-43667676D01*
X130833333Y-43667676D02*
X130928571Y-43572438D01*
X130928571Y-43572438D02*
X131071428Y-43524819D01*
X131071428Y-43524819D02*
X131166666Y-43524819D01*
X131166666Y-43524819D02*
X131309523Y-43572438D01*
X131309523Y-43572438D02*
X131357142Y-43620057D01*
X132214285Y-43858152D02*
X132214285Y-44524819D01*
X131976190Y-43477200D02*
X131738095Y-44191485D01*
X131738095Y-44191485D02*
X132357142Y-44191485D01*
X133261904Y-44524819D02*
X132690476Y-44524819D01*
X132976190Y-44524819D02*
X132976190Y-43524819D01*
X132976190Y-43524819D02*
X132880952Y-43667676D01*
X132880952Y-43667676D02*
X132785714Y-43762914D01*
X132785714Y-43762914D02*
X132690476Y-43810533D01*
X136833333Y-46954819D02*
X136357143Y-46954819D01*
X136357143Y-46954819D02*
X136357143Y-45954819D01*
X137642857Y-45954819D02*
X137166667Y-45954819D01*
X137166667Y-45954819D02*
X137119048Y-46431009D01*
X137119048Y-46431009D02*
X137166667Y-46383390D01*
X137166667Y-46383390D02*
X137261905Y-46335771D01*
X137261905Y-46335771D02*
X137500000Y-46335771D01*
X137500000Y-46335771D02*
X137595238Y-46383390D01*
X137595238Y-46383390D02*
X137642857Y-46431009D01*
X137642857Y-46431009D02*
X137690476Y-46526247D01*
X137690476Y-46526247D02*
X137690476Y-46764342D01*
X137690476Y-46764342D02*
X137642857Y-46859580D01*
X137642857Y-46859580D02*
X137595238Y-46907200D01*
X137595238Y-46907200D02*
X137500000Y-46954819D01*
X137500000Y-46954819D02*
X137261905Y-46954819D01*
X137261905Y-46954819D02*
X137166667Y-46907200D01*
X137166667Y-46907200D02*
X137119048Y-46859580D01*
X138357142Y-36929580D02*
X138309523Y-36977200D01*
X138309523Y-36977200D02*
X138166666Y-37024819D01*
X138166666Y-37024819D02*
X138071428Y-37024819D01*
X138071428Y-37024819D02*
X137928571Y-36977200D01*
X137928571Y-36977200D02*
X137833333Y-36881961D01*
X137833333Y-36881961D02*
X137785714Y-36786723D01*
X137785714Y-36786723D02*
X137738095Y-36596247D01*
X137738095Y-36596247D02*
X137738095Y-36453390D01*
X137738095Y-36453390D02*
X137785714Y-36262914D01*
X137785714Y-36262914D02*
X137833333Y-36167676D01*
X137833333Y-36167676D02*
X137928571Y-36072438D01*
X137928571Y-36072438D02*
X138071428Y-36024819D01*
X138071428Y-36024819D02*
X138166666Y-36024819D01*
X138166666Y-36024819D02*
X138309523Y-36072438D01*
X138309523Y-36072438D02*
X138357142Y-36120057D01*
X139214285Y-36358152D02*
X139214285Y-37024819D01*
X138976190Y-35977200D02*
X138738095Y-36691485D01*
X138738095Y-36691485D02*
X139357142Y-36691485D01*
X140214285Y-36024819D02*
X139738095Y-36024819D01*
X139738095Y-36024819D02*
X139690476Y-36501009D01*
X139690476Y-36501009D02*
X139738095Y-36453390D01*
X139738095Y-36453390D02*
X139833333Y-36405771D01*
X139833333Y-36405771D02*
X140071428Y-36405771D01*
X140071428Y-36405771D02*
X140166666Y-36453390D01*
X140166666Y-36453390D02*
X140214285Y-36501009D01*
X140214285Y-36501009D02*
X140261904Y-36596247D01*
X140261904Y-36596247D02*
X140261904Y-36834342D01*
X140261904Y-36834342D02*
X140214285Y-36929580D01*
X140214285Y-36929580D02*
X140166666Y-36977200D01*
X140166666Y-36977200D02*
X140071428Y-37024819D01*
X140071428Y-37024819D02*
X139833333Y-37024819D01*
X139833333Y-37024819D02*
X139738095Y-36977200D01*
X139738095Y-36977200D02*
X139690476Y-36929580D01*
X135357142Y-32024819D02*
X135023809Y-31548628D01*
X134785714Y-32024819D02*
X134785714Y-31024819D01*
X134785714Y-31024819D02*
X135166666Y-31024819D01*
X135166666Y-31024819D02*
X135261904Y-31072438D01*
X135261904Y-31072438D02*
X135309523Y-31120057D01*
X135309523Y-31120057D02*
X135357142Y-31215295D01*
X135357142Y-31215295D02*
X135357142Y-31358152D01*
X135357142Y-31358152D02*
X135309523Y-31453390D01*
X135309523Y-31453390D02*
X135261904Y-31501009D01*
X135261904Y-31501009D02*
X135166666Y-31548628D01*
X135166666Y-31548628D02*
X134785714Y-31548628D01*
X135690476Y-31024819D02*
X136309523Y-31024819D01*
X136309523Y-31024819D02*
X135976190Y-31405771D01*
X135976190Y-31405771D02*
X136119047Y-31405771D01*
X136119047Y-31405771D02*
X136214285Y-31453390D01*
X136214285Y-31453390D02*
X136261904Y-31501009D01*
X136261904Y-31501009D02*
X136309523Y-31596247D01*
X136309523Y-31596247D02*
X136309523Y-31834342D01*
X136309523Y-31834342D02*
X136261904Y-31929580D01*
X136261904Y-31929580D02*
X136214285Y-31977200D01*
X136214285Y-31977200D02*
X136119047Y-32024819D01*
X136119047Y-32024819D02*
X135833333Y-32024819D01*
X135833333Y-32024819D02*
X135738095Y-31977200D01*
X135738095Y-31977200D02*
X135690476Y-31929580D01*
X136928571Y-31024819D02*
X137023809Y-31024819D01*
X137023809Y-31024819D02*
X137119047Y-31072438D01*
X137119047Y-31072438D02*
X137166666Y-31120057D01*
X137166666Y-31120057D02*
X137214285Y-31215295D01*
X137214285Y-31215295D02*
X137261904Y-31405771D01*
X137261904Y-31405771D02*
X137261904Y-31643866D01*
X137261904Y-31643866D02*
X137214285Y-31834342D01*
X137214285Y-31834342D02*
X137166666Y-31929580D01*
X137166666Y-31929580D02*
X137119047Y-31977200D01*
X137119047Y-31977200D02*
X137023809Y-32024819D01*
X137023809Y-32024819D02*
X136928571Y-32024819D01*
X136928571Y-32024819D02*
X136833333Y-31977200D01*
X136833333Y-31977200D02*
X136785714Y-31929580D01*
X136785714Y-31929580D02*
X136738095Y-31834342D01*
X136738095Y-31834342D02*
X136690476Y-31643866D01*
X136690476Y-31643866D02*
X136690476Y-31405771D01*
X136690476Y-31405771D02*
X136738095Y-31215295D01*
X136738095Y-31215295D02*
X136785714Y-31120057D01*
X136785714Y-31120057D02*
X136833333Y-31072438D01*
X136833333Y-31072438D02*
X136928571Y-31024819D01*
X126166666Y-64931009D02*
X125833333Y-64931009D01*
X125833333Y-65454819D02*
X125833333Y-64454819D01*
X125833333Y-64454819D02*
X126309523Y-64454819D01*
X126642857Y-64550057D02*
X126690476Y-64502438D01*
X126690476Y-64502438D02*
X126785714Y-64454819D01*
X126785714Y-64454819D02*
X127023809Y-64454819D01*
X127023809Y-64454819D02*
X127119047Y-64502438D01*
X127119047Y-64502438D02*
X127166666Y-64550057D01*
X127166666Y-64550057D02*
X127214285Y-64645295D01*
X127214285Y-64645295D02*
X127214285Y-64740533D01*
X127214285Y-64740533D02*
X127166666Y-64883390D01*
X127166666Y-64883390D02*
X126595238Y-65454819D01*
X126595238Y-65454819D02*
X127214285Y-65454819D01*
X140124819Y-44333333D02*
X140839104Y-44333333D01*
X140839104Y-44333333D02*
X140981961Y-44380952D01*
X140981961Y-44380952D02*
X141077200Y-44476190D01*
X141077200Y-44476190D02*
X141124819Y-44619047D01*
X141124819Y-44619047D02*
X141124819Y-44714285D01*
X140458152Y-43428571D02*
X141124819Y-43428571D01*
X140077200Y-43666666D02*
X140791485Y-43904761D01*
X140791485Y-43904761D02*
X140791485Y-43285714D01*
X81738095Y-20006819D02*
X82309523Y-20006819D01*
X82023809Y-21006819D02*
X82023809Y-20006819D01*
X82642857Y-21006819D02*
X82642857Y-20006819D01*
X82642857Y-20006819D02*
X83023809Y-20006819D01*
X83023809Y-20006819D02*
X83119047Y-20054438D01*
X83119047Y-20054438D02*
X83166666Y-20102057D01*
X83166666Y-20102057D02*
X83214285Y-20197295D01*
X83214285Y-20197295D02*
X83214285Y-20340152D01*
X83214285Y-20340152D02*
X83166666Y-20435390D01*
X83166666Y-20435390D02*
X83119047Y-20483009D01*
X83119047Y-20483009D02*
X83023809Y-20530628D01*
X83023809Y-20530628D02*
X82642857Y-20530628D01*
X84166666Y-21006819D02*
X83595238Y-21006819D01*
X83880952Y-21006819D02*
X83880952Y-20006819D01*
X83880952Y-20006819D02*
X83785714Y-20149676D01*
X83785714Y-20149676D02*
X83690476Y-20244914D01*
X83690476Y-20244914D02*
X83595238Y-20292533D01*
X84738095Y-20006819D02*
X85309523Y-20006819D01*
X85023809Y-21006819D02*
X85023809Y-20006819D01*
X85642857Y-21006819D02*
X85642857Y-20006819D01*
X85642857Y-20006819D02*
X86023809Y-20006819D01*
X86023809Y-20006819D02*
X86119047Y-20054438D01*
X86119047Y-20054438D02*
X86166666Y-20102057D01*
X86166666Y-20102057D02*
X86214285Y-20197295D01*
X86214285Y-20197295D02*
X86214285Y-20340152D01*
X86214285Y-20340152D02*
X86166666Y-20435390D01*
X86166666Y-20435390D02*
X86119047Y-20483009D01*
X86119047Y-20483009D02*
X86023809Y-20530628D01*
X86023809Y-20530628D02*
X85642857Y-20530628D01*
X86595238Y-20102057D02*
X86642857Y-20054438D01*
X86642857Y-20054438D02*
X86738095Y-20006819D01*
X86738095Y-20006819D02*
X86976190Y-20006819D01*
X86976190Y-20006819D02*
X87071428Y-20054438D01*
X87071428Y-20054438D02*
X87119047Y-20102057D01*
X87119047Y-20102057D02*
X87166666Y-20197295D01*
X87166666Y-20197295D02*
X87166666Y-20292533D01*
X87166666Y-20292533D02*
X87119047Y-20435390D01*
X87119047Y-20435390D02*
X86547619Y-21006819D01*
X86547619Y-21006819D02*
X87166666Y-21006819D01*
X90738095Y-27006819D02*
X91309523Y-27006819D01*
X91023809Y-28006819D02*
X91023809Y-27006819D01*
X91642857Y-28006819D02*
X91642857Y-27006819D01*
X91642857Y-27006819D02*
X92023809Y-27006819D01*
X92023809Y-27006819D02*
X92119047Y-27054438D01*
X92119047Y-27054438D02*
X92166666Y-27102057D01*
X92166666Y-27102057D02*
X92214285Y-27197295D01*
X92214285Y-27197295D02*
X92214285Y-27340152D01*
X92214285Y-27340152D02*
X92166666Y-27435390D01*
X92166666Y-27435390D02*
X92119047Y-27483009D01*
X92119047Y-27483009D02*
X92023809Y-27530628D01*
X92023809Y-27530628D02*
X91642857Y-27530628D01*
X93071428Y-27340152D02*
X93071428Y-28006819D01*
X92833333Y-26959200D02*
X92595238Y-27673485D01*
X92595238Y-27673485D02*
X93214285Y-27673485D01*
X94738095Y-27006819D02*
X95309523Y-27006819D01*
X95023809Y-28006819D02*
X95023809Y-27006819D01*
X95642857Y-28006819D02*
X95642857Y-27006819D01*
X95642857Y-27006819D02*
X96023809Y-27006819D01*
X96023809Y-27006819D02*
X96119047Y-27054438D01*
X96119047Y-27054438D02*
X96166666Y-27102057D01*
X96166666Y-27102057D02*
X96214285Y-27197295D01*
X96214285Y-27197295D02*
X96214285Y-27340152D01*
X96214285Y-27340152D02*
X96166666Y-27435390D01*
X96166666Y-27435390D02*
X96119047Y-27483009D01*
X96119047Y-27483009D02*
X96023809Y-27530628D01*
X96023809Y-27530628D02*
X95642857Y-27530628D01*
X97119047Y-27006819D02*
X96642857Y-27006819D01*
X96642857Y-27006819D02*
X96595238Y-27483009D01*
X96595238Y-27483009D02*
X96642857Y-27435390D01*
X96642857Y-27435390D02*
X96738095Y-27387771D01*
X96738095Y-27387771D02*
X96976190Y-27387771D01*
X96976190Y-27387771D02*
X97071428Y-27435390D01*
X97071428Y-27435390D02*
X97119047Y-27483009D01*
X97119047Y-27483009D02*
X97166666Y-27578247D01*
X97166666Y-27578247D02*
X97166666Y-27816342D01*
X97166666Y-27816342D02*
X97119047Y-27911580D01*
X97119047Y-27911580D02*
X97071428Y-27959200D01*
X97071428Y-27959200D02*
X96976190Y-28006819D01*
X96976190Y-28006819D02*
X96738095Y-28006819D01*
X96738095Y-28006819D02*
X96642857Y-27959200D01*
X96642857Y-27959200D02*
X96595238Y-27911580D01*
X98738095Y-27006819D02*
X99309523Y-27006819D01*
X99023809Y-28006819D02*
X99023809Y-27006819D01*
X99642857Y-28006819D02*
X99642857Y-27006819D01*
X99642857Y-27006819D02*
X100023809Y-27006819D01*
X100023809Y-27006819D02*
X100119047Y-27054438D01*
X100119047Y-27054438D02*
X100166666Y-27102057D01*
X100166666Y-27102057D02*
X100214285Y-27197295D01*
X100214285Y-27197295D02*
X100214285Y-27340152D01*
X100214285Y-27340152D02*
X100166666Y-27435390D01*
X100166666Y-27435390D02*
X100119047Y-27483009D01*
X100119047Y-27483009D02*
X100023809Y-27530628D01*
X100023809Y-27530628D02*
X99642857Y-27530628D01*
X101071428Y-27006819D02*
X100880952Y-27006819D01*
X100880952Y-27006819D02*
X100785714Y-27054438D01*
X100785714Y-27054438D02*
X100738095Y-27102057D01*
X100738095Y-27102057D02*
X100642857Y-27244914D01*
X100642857Y-27244914D02*
X100595238Y-27435390D01*
X100595238Y-27435390D02*
X100595238Y-27816342D01*
X100595238Y-27816342D02*
X100642857Y-27911580D01*
X100642857Y-27911580D02*
X100690476Y-27959200D01*
X100690476Y-27959200D02*
X100785714Y-28006819D01*
X100785714Y-28006819D02*
X100976190Y-28006819D01*
X100976190Y-28006819D02*
X101071428Y-27959200D01*
X101071428Y-27959200D02*
X101119047Y-27911580D01*
X101119047Y-27911580D02*
X101166666Y-27816342D01*
X101166666Y-27816342D02*
X101166666Y-27578247D01*
X101166666Y-27578247D02*
X101119047Y-27483009D01*
X101119047Y-27483009D02*
X101071428Y-27435390D01*
X101071428Y-27435390D02*
X100976190Y-27387771D01*
X100976190Y-27387771D02*
X100785714Y-27387771D01*
X100785714Y-27387771D02*
X100690476Y-27435390D01*
X100690476Y-27435390D02*
X100642857Y-27483009D01*
X100642857Y-27483009D02*
X100595238Y-27578247D01*
X82738095Y-55006819D02*
X83309523Y-55006819D01*
X83023809Y-56006819D02*
X83023809Y-55006819D01*
X83642857Y-56006819D02*
X83642857Y-55006819D01*
X83642857Y-55006819D02*
X84023809Y-55006819D01*
X84023809Y-55006819D02*
X84119047Y-55054438D01*
X84119047Y-55054438D02*
X84166666Y-55102057D01*
X84166666Y-55102057D02*
X84214285Y-55197295D01*
X84214285Y-55197295D02*
X84214285Y-55340152D01*
X84214285Y-55340152D02*
X84166666Y-55435390D01*
X84166666Y-55435390D02*
X84119047Y-55483009D01*
X84119047Y-55483009D02*
X84023809Y-55530628D01*
X84023809Y-55530628D02*
X83642857Y-55530628D01*
X84547619Y-55006819D02*
X85214285Y-55006819D01*
X85214285Y-55006819D02*
X84785714Y-56006819D01*
X85738095Y-55006819D02*
X86309523Y-55006819D01*
X86023809Y-56006819D02*
X86023809Y-55006819D01*
X86642857Y-56006819D02*
X86642857Y-55006819D01*
X86642857Y-55006819D02*
X87023809Y-55006819D01*
X87023809Y-55006819D02*
X87119047Y-55054438D01*
X87119047Y-55054438D02*
X87166666Y-55102057D01*
X87166666Y-55102057D02*
X87214285Y-55197295D01*
X87214285Y-55197295D02*
X87214285Y-55340152D01*
X87214285Y-55340152D02*
X87166666Y-55435390D01*
X87166666Y-55435390D02*
X87119047Y-55483009D01*
X87119047Y-55483009D02*
X87023809Y-55530628D01*
X87023809Y-55530628D02*
X86642857Y-55530628D01*
X87785714Y-55435390D02*
X87690476Y-55387771D01*
X87690476Y-55387771D02*
X87642857Y-55340152D01*
X87642857Y-55340152D02*
X87595238Y-55244914D01*
X87595238Y-55244914D02*
X87595238Y-55197295D01*
X87595238Y-55197295D02*
X87642857Y-55102057D01*
X87642857Y-55102057D02*
X87690476Y-55054438D01*
X87690476Y-55054438D02*
X87785714Y-55006819D01*
X87785714Y-55006819D02*
X87976190Y-55006819D01*
X87976190Y-55006819D02*
X88071428Y-55054438D01*
X88071428Y-55054438D02*
X88119047Y-55102057D01*
X88119047Y-55102057D02*
X88166666Y-55197295D01*
X88166666Y-55197295D02*
X88166666Y-55244914D01*
X88166666Y-55244914D02*
X88119047Y-55340152D01*
X88119047Y-55340152D02*
X88071428Y-55387771D01*
X88071428Y-55387771D02*
X87976190Y-55435390D01*
X87976190Y-55435390D02*
X87785714Y-55435390D01*
X87785714Y-55435390D02*
X87690476Y-55483009D01*
X87690476Y-55483009D02*
X87642857Y-55530628D01*
X87642857Y-55530628D02*
X87595238Y-55625866D01*
X87595238Y-55625866D02*
X87595238Y-55816342D01*
X87595238Y-55816342D02*
X87642857Y-55911580D01*
X87642857Y-55911580D02*
X87690476Y-55959200D01*
X87690476Y-55959200D02*
X87785714Y-56006819D01*
X87785714Y-56006819D02*
X87976190Y-56006819D01*
X87976190Y-56006819D02*
X88071428Y-55959200D01*
X88071428Y-55959200D02*
X88119047Y-55911580D01*
X88119047Y-55911580D02*
X88166666Y-55816342D01*
X88166666Y-55816342D02*
X88166666Y-55625866D01*
X88166666Y-55625866D02*
X88119047Y-55530628D01*
X88119047Y-55530628D02*
X88071428Y-55483009D01*
X88071428Y-55483009D02*
X87976190Y-55435390D01*
X88738095Y-55006819D02*
X89309523Y-55006819D01*
X89023809Y-56006819D02*
X89023809Y-55006819D01*
X89642857Y-56006819D02*
X89642857Y-55006819D01*
X89642857Y-55006819D02*
X90023809Y-55006819D01*
X90023809Y-55006819D02*
X90119047Y-55054438D01*
X90119047Y-55054438D02*
X90166666Y-55102057D01*
X90166666Y-55102057D02*
X90214285Y-55197295D01*
X90214285Y-55197295D02*
X90214285Y-55340152D01*
X90214285Y-55340152D02*
X90166666Y-55435390D01*
X90166666Y-55435390D02*
X90119047Y-55483009D01*
X90119047Y-55483009D02*
X90023809Y-55530628D01*
X90023809Y-55530628D02*
X89642857Y-55530628D01*
X90690476Y-56006819D02*
X90880952Y-56006819D01*
X90880952Y-56006819D02*
X90976190Y-55959200D01*
X90976190Y-55959200D02*
X91023809Y-55911580D01*
X91023809Y-55911580D02*
X91119047Y-55768723D01*
X91119047Y-55768723D02*
X91166666Y-55578247D01*
X91166666Y-55578247D02*
X91166666Y-55197295D01*
X91166666Y-55197295D02*
X91119047Y-55102057D01*
X91119047Y-55102057D02*
X91071428Y-55054438D01*
X91071428Y-55054438D02*
X90976190Y-55006819D01*
X90976190Y-55006819D02*
X90785714Y-55006819D01*
X90785714Y-55006819D02*
X90690476Y-55054438D01*
X90690476Y-55054438D02*
X90642857Y-55102057D01*
X90642857Y-55102057D02*
X90595238Y-55197295D01*
X90595238Y-55197295D02*
X90595238Y-55435390D01*
X90595238Y-55435390D02*
X90642857Y-55530628D01*
X90642857Y-55530628D02*
X90690476Y-55578247D01*
X90690476Y-55578247D02*
X90785714Y-55625866D01*
X90785714Y-55625866D02*
X90976190Y-55625866D01*
X90976190Y-55625866D02*
X91071428Y-55578247D01*
X91071428Y-55578247D02*
X91119047Y-55530628D01*
X91119047Y-55530628D02*
X91166666Y-55435390D01*
X101261905Y-27006819D02*
X101833333Y-27006819D01*
X101547619Y-28006819D02*
X101547619Y-27006819D01*
X102166667Y-28006819D02*
X102166667Y-27006819D01*
X102166667Y-27006819D02*
X102547619Y-27006819D01*
X102547619Y-27006819D02*
X102642857Y-27054438D01*
X102642857Y-27054438D02*
X102690476Y-27102057D01*
X102690476Y-27102057D02*
X102738095Y-27197295D01*
X102738095Y-27197295D02*
X102738095Y-27340152D01*
X102738095Y-27340152D02*
X102690476Y-27435390D01*
X102690476Y-27435390D02*
X102642857Y-27483009D01*
X102642857Y-27483009D02*
X102547619Y-27530628D01*
X102547619Y-27530628D02*
X102166667Y-27530628D01*
X103690476Y-28006819D02*
X103119048Y-28006819D01*
X103404762Y-28006819D02*
X103404762Y-27006819D01*
X103404762Y-27006819D02*
X103309524Y-27149676D01*
X103309524Y-27149676D02*
X103214286Y-27244914D01*
X103214286Y-27244914D02*
X103119048Y-27292533D01*
X104309524Y-27006819D02*
X104404762Y-27006819D01*
X104404762Y-27006819D02*
X104500000Y-27054438D01*
X104500000Y-27054438D02*
X104547619Y-27102057D01*
X104547619Y-27102057D02*
X104595238Y-27197295D01*
X104595238Y-27197295D02*
X104642857Y-27387771D01*
X104642857Y-27387771D02*
X104642857Y-27625866D01*
X104642857Y-27625866D02*
X104595238Y-27816342D01*
X104595238Y-27816342D02*
X104547619Y-27911580D01*
X104547619Y-27911580D02*
X104500000Y-27959200D01*
X104500000Y-27959200D02*
X104404762Y-28006819D01*
X104404762Y-28006819D02*
X104309524Y-28006819D01*
X104309524Y-28006819D02*
X104214286Y-27959200D01*
X104214286Y-27959200D02*
X104166667Y-27911580D01*
X104166667Y-27911580D02*
X104119048Y-27816342D01*
X104119048Y-27816342D02*
X104071429Y-27625866D01*
X104071429Y-27625866D02*
X104071429Y-27387771D01*
X104071429Y-27387771D02*
X104119048Y-27197295D01*
X104119048Y-27197295D02*
X104166667Y-27102057D01*
X104166667Y-27102057D02*
X104214286Y-27054438D01*
X104214286Y-27054438D02*
X104309524Y-27006819D01*
X94761905Y-21006819D02*
X95333333Y-21006819D01*
X95047619Y-22006819D02*
X95047619Y-21006819D01*
X95666667Y-22006819D02*
X95666667Y-21006819D01*
X95666667Y-21006819D02*
X96047619Y-21006819D01*
X96047619Y-21006819D02*
X96142857Y-21054438D01*
X96142857Y-21054438D02*
X96190476Y-21102057D01*
X96190476Y-21102057D02*
X96238095Y-21197295D01*
X96238095Y-21197295D02*
X96238095Y-21340152D01*
X96238095Y-21340152D02*
X96190476Y-21435390D01*
X96190476Y-21435390D02*
X96142857Y-21483009D01*
X96142857Y-21483009D02*
X96047619Y-21530628D01*
X96047619Y-21530628D02*
X95666667Y-21530628D01*
X97190476Y-22006819D02*
X96619048Y-22006819D01*
X96904762Y-22006819D02*
X96904762Y-21006819D01*
X96904762Y-21006819D02*
X96809524Y-21149676D01*
X96809524Y-21149676D02*
X96714286Y-21244914D01*
X96714286Y-21244914D02*
X96619048Y-21292533D01*
X97571429Y-21102057D02*
X97619048Y-21054438D01*
X97619048Y-21054438D02*
X97714286Y-21006819D01*
X97714286Y-21006819D02*
X97952381Y-21006819D01*
X97952381Y-21006819D02*
X98047619Y-21054438D01*
X98047619Y-21054438D02*
X98095238Y-21102057D01*
X98095238Y-21102057D02*
X98142857Y-21197295D01*
X98142857Y-21197295D02*
X98142857Y-21292533D01*
X98142857Y-21292533D02*
X98095238Y-21435390D01*
X98095238Y-21435390D02*
X97523810Y-22006819D01*
X97523810Y-22006819D02*
X98142857Y-22006819D01*
%TO.C,J1*%
D11*
X84960000Y-65190000D02*
X84960000Y-72810000D01*
X95120000Y-72810000D02*
X95120000Y-65190000D01*
X95120000Y-71540000D02*
X84960000Y-71540000D01*
X84960000Y-72810000D02*
X95120000Y-72810000D01*
X95120000Y-65190000D02*
X84960000Y-65190000D01*
%TO.C,F1*%
D10*
X94710000Y-60200000D02*
X94710000Y-63760000D01*
X100290000Y-60220000D02*
X100290000Y-63780000D01*
X96230000Y-64030000D02*
X94960000Y-64030000D01*
X98770000Y-64030000D02*
X100040000Y-64030000D01*
X94960000Y-59970000D02*
X96270000Y-59970000D01*
X100040000Y-59970000D02*
X98770000Y-59970000D01*
D12*
X95250000Y-63620000D02*
G75*
G02*
X95190000Y-63620000I-30000J0D01*
G01*
X95190000Y-63620000D02*
G75*
G02*
X95250000Y-63620000I30000J0D01*
G01*
%TO.C,D1*%
D10*
X101610000Y-63020000D02*
X105390000Y-63020000D01*
X101610000Y-64740000D02*
X101610000Y-59260000D01*
X105390000Y-64740000D02*
X105390000Y-59260000D01*
X101610000Y-59260000D02*
X102200000Y-59260000D01*
X105390000Y-59260000D02*
X104800000Y-59260000D01*
D12*
X105330000Y-64650000D02*
G75*
G02*
X105270000Y-64650000I-30000J0D01*
G01*
X105270000Y-64650000D02*
G75*
G02*
X105330000Y-64650000I30000J0D01*
G01*
D13*
G36*
X102251412Y-65124708D02*
G01*
X101537596Y-65124708D01*
X101537596Y-64667508D01*
X102251412Y-64667508D01*
X102251412Y-65124708D01*
G37*
G36*
X105462404Y-65124708D02*
G01*
X104748588Y-65124708D01*
X104748588Y-64667508D01*
X105462404Y-64667508D01*
X105462404Y-65124708D01*
G37*
%TO.C,Q1*%
D10*
X105470000Y-69520000D02*
X110530000Y-69520000D01*
X105470000Y-66480000D02*
X110530000Y-66480000D01*
X105470000Y-68440000D02*
X105470000Y-69520000D01*
X105470000Y-67550000D02*
X105470000Y-66480000D01*
X105930000Y-69520000D02*
X105470000Y-69520000D01*
X107200000Y-69520000D02*
X106260000Y-69520000D01*
X108470000Y-69520000D02*
X107530000Y-69520000D01*
X109740000Y-69520000D02*
X108800000Y-69520000D01*
X110530000Y-69520000D02*
X110070000Y-69520000D01*
X110530000Y-66480000D02*
X110530000Y-69520000D01*
X105930000Y-66480000D02*
X105470000Y-66480000D01*
X107200000Y-66480000D02*
X106260000Y-66480000D01*
X108470000Y-66480000D02*
X107530000Y-66480000D01*
X109740000Y-66480000D02*
X108800000Y-66480000D01*
X110530000Y-66480000D02*
X110070000Y-66480000D01*
D12*
X105580000Y-71000000D02*
G75*
G02*
X105520000Y-71000000I-30000J0D01*
G01*
X105520000Y-71000000D02*
G75*
G02*
X105580000Y-71000000I30000J0D01*
G01*
D14*
X106250000Y-69020000D02*
G75*
G02*
X105950000Y-69020000I-150000J0D01*
G01*
X105950000Y-69020000D02*
G75*
G02*
X106250000Y-69020000I150000J0D01*
G01*
D10*
X105470000Y-67550000D02*
G75*
G02*
X105468694Y-68429998I1J-440000D01*
G01*
%TO.C,R1*%
D11*
X114262742Y-59522500D02*
X114737258Y-59522500D01*
X114262742Y-58477500D02*
X114737258Y-58477500D01*
%TO.C,D2*%
D15*
X111000000Y-60500000D02*
X111000000Y-63500000D01*
X110000000Y-61820000D02*
X110410000Y-62410000D01*
X110410000Y-62410000D02*
X109590000Y-62410000D01*
X109590000Y-62410000D02*
X110000000Y-61820000D01*
X109000000Y-63500000D02*
X109000000Y-60500000D01*
X110510000Y-61590000D02*
X109490000Y-61590000D01*
D12*
X109230000Y-60300000D02*
G75*
G02*
X109170000Y-60300000I-30000J0D01*
G01*
X109170000Y-60300000D02*
G75*
G02*
X109230000Y-60300000I30000J0D01*
G01*
%TO.C,C1*%
D11*
X112640000Y-68711252D02*
X112640000Y-67288748D01*
X115360000Y-68711252D02*
X115360000Y-67288748D01*
%TO.C,C2*%
X103059420Y-55210000D02*
X103340580Y-55210000D01*
X103059420Y-54190000D02*
X103340580Y-54190000D01*
%TO.C,U1*%
D15*
X98500000Y-54300000D02*
X98500000Y-52700000D01*
X101500000Y-52700000D02*
X101500000Y-54300000D01*
D12*
X98580000Y-54900000D02*
G75*
G02*
X98520000Y-54900000I-30000J0D01*
G01*
X98520000Y-54900000D02*
G75*
G02*
X98580000Y-54900000I30000J0D01*
G01*
D15*
X99150000Y-55620000D02*
G75*
G02*
X98890000Y-55620000I-130000J0D01*
G01*
X98890000Y-55620000D02*
G75*
G02*
X99150000Y-55620000I130000J0D01*
G01*
%TO.C,C3*%
D11*
X93090000Y-54211252D02*
X93090000Y-52788748D01*
X94910000Y-54211252D02*
X94910000Y-52788748D01*
%TO.C,C4*%
X104859420Y-49510000D02*
X105140580Y-49510000D01*
X104859420Y-48490000D02*
X105140580Y-48490000D01*
%TO.C,L1*%
D15*
X107000000Y-56800000D02*
X114000000Y-56800000D01*
X107000000Y-50200000D02*
X114000000Y-50200000D01*
X107000000Y-50200000D02*
X107000000Y-51520000D01*
X114000000Y-55480000D02*
X114000000Y-56670000D01*
X114000000Y-56670000D02*
X114000000Y-56800000D01*
X114000000Y-50200000D02*
X114000000Y-51520000D01*
X107000000Y-55480000D02*
X107000000Y-56800000D01*
D12*
X107030000Y-56800000D02*
G75*
G02*
X106970000Y-56800000I-30000J0D01*
G01*
X106970000Y-56800000D02*
G75*
G02*
X107030000Y-56800000I30000J0D01*
G01*
%TO.C,C5*%
D11*
X115090000Y-51711252D02*
X115090000Y-50288748D01*
X116910000Y-51711252D02*
X116910000Y-50288748D01*
%TO.C,C6*%
X118090000Y-56211252D02*
X118090000Y-54788748D01*
X119910000Y-56211252D02*
X119910000Y-54788748D01*
%TO.C,D3*%
D15*
X122350000Y-46210000D02*
X122350000Y-46350000D01*
X122350000Y-44650000D02*
X122350000Y-44790000D01*
X119650000Y-46350000D02*
X119360000Y-46350000D01*
X119360000Y-46350000D02*
X119360000Y-46350000D01*
X119650000Y-44650000D02*
X119360000Y-44650000D01*
X119360000Y-44650000D02*
X119360000Y-44650000D01*
X119650000Y-44650000D02*
X122350000Y-44650000D01*
X121410000Y-45090000D02*
X121410000Y-45910000D01*
X121410000Y-45500000D02*
X121720000Y-45500000D01*
X120720000Y-45500000D02*
X120390000Y-45500000D01*
X120750000Y-44990000D02*
X120750000Y-46010000D01*
X120820000Y-45500000D02*
X121410000Y-45090000D01*
X121410000Y-45910000D02*
X120820000Y-45500000D01*
X122350000Y-46350000D02*
X119650000Y-46350000D01*
D12*
X119180000Y-46300000D02*
G75*
G02*
X119120000Y-46300000I-30000J0D01*
G01*
X119120000Y-46300000D02*
G75*
G02*
X119180000Y-46300000I30000J0D01*
G01*
D13*
G36*
X121406400Y-45906400D02*
G01*
X120822200Y-45500000D01*
X121406400Y-45093600D01*
X121406400Y-45906400D01*
G37*
G36*
X119498428Y-44893042D02*
G01*
X119193603Y-44893042D01*
X119193603Y-44522989D01*
X119498428Y-44522989D01*
X119498428Y-44893042D01*
G37*
G36*
X119498428Y-46477011D02*
G01*
X119193603Y-46477011D01*
X119193603Y-46106984D01*
X119498428Y-46106984D01*
X119498428Y-46477011D01*
G37*
%TO.C,J2*%
D15*
X138470000Y-3920000D02*
X138470000Y-5790000D01*
X129530000Y-210000D02*
X138470000Y-210000D01*
X138470000Y-210000D02*
X138470000Y-1690000D01*
X129530000Y-3920000D02*
X129530000Y-5790000D01*
X129530000Y-210000D02*
X129530000Y-1690000D01*
D12*
X129560000Y-8060000D02*
G75*
G02*
X129500000Y-8060000I-30000J0D01*
G01*
X129500000Y-8060000D02*
G75*
G02*
X129560000Y-8060000I30000J0D01*
G01*
%TO.C,R2*%
D11*
X140522500Y-12237258D02*
X140522500Y-11762742D01*
X139477500Y-12237258D02*
X139477500Y-11762742D01*
%TO.C,R3*%
X143522500Y-12237258D02*
X143522500Y-11762742D01*
X142477500Y-12237258D02*
X142477500Y-11762742D01*
%TO.C,U2*%
D15*
X121100000Y-9450000D02*
X122900000Y-9450000D01*
X121100000Y-12550000D02*
X122900000Y-12550000D01*
D12*
X123430000Y-12450000D02*
G75*
G02*
X123370000Y-12450000I-30000J0D01*
G01*
X123370000Y-12450000D02*
G75*
G02*
X123430000Y-12450000I30000J0D01*
G01*
D15*
X123520000Y-12650000D02*
G75*
G02*
X123280000Y-12650000I-120000J0D01*
G01*
X123280000Y-12650000D02*
G75*
G02*
X123520000Y-12650000I120000J0D01*
G01*
%TO.C,R4*%
D11*
X115762742Y-10022500D02*
X116237258Y-10022500D01*
X115762742Y-8977500D02*
X116237258Y-8977500D01*
%TO.C,R5*%
X115762742Y-14522500D02*
X116237258Y-14522500D01*
X115762742Y-13477500D02*
X116237258Y-13477500D01*
%TO.C,D4*%
D15*
X123350000Y-29210000D02*
X123350000Y-29350000D01*
X123350000Y-27650000D02*
X123350000Y-27790000D01*
X120650000Y-29350000D02*
X120360000Y-29350000D01*
X120360000Y-29350000D02*
X120360000Y-29350000D01*
X120650000Y-27650000D02*
X120360000Y-27650000D01*
X120360000Y-27650000D02*
X120360000Y-27650000D01*
X120650000Y-27650000D02*
X123350000Y-27650000D01*
X122410000Y-28090000D02*
X122410000Y-28910000D01*
X122410000Y-28500000D02*
X122720000Y-28500000D01*
X121720000Y-28500000D02*
X121390000Y-28500000D01*
X121750000Y-27990000D02*
X121750000Y-29010000D01*
X121820000Y-28500000D02*
X122410000Y-28090000D01*
X122410000Y-28910000D02*
X121820000Y-28500000D01*
X123350000Y-29350000D02*
X120650000Y-29350000D01*
D12*
X120180000Y-29300000D02*
G75*
G02*
X120120000Y-29300000I-30000J0D01*
G01*
X120120000Y-29300000D02*
G75*
G02*
X120180000Y-29300000I30000J0D01*
G01*
D13*
G36*
X122406400Y-28906400D02*
G01*
X121822200Y-28500000D01*
X122406400Y-28093600D01*
X122406400Y-28906400D01*
G37*
G36*
X120498428Y-27893042D02*
G01*
X120193603Y-27893042D01*
X120193603Y-27522989D01*
X120498428Y-27522989D01*
X120498428Y-27893042D01*
G37*
G36*
X120498428Y-29477011D02*
G01*
X120193603Y-29477011D01*
X120193603Y-29106984D01*
X120498428Y-29106984D01*
X120498428Y-29477011D01*
G37*
%TO.C,U3*%
D16*
X101500000Y-36070000D02*
X101500000Y-36300000D01*
X101500000Y-36300000D02*
X101430000Y-36300000D01*
X101500000Y-34930000D02*
X101500000Y-34700000D01*
X101500000Y-34700000D02*
X101430000Y-34700000D01*
X98500000Y-36070000D02*
X98500000Y-36300000D01*
X98500000Y-36300000D02*
X98570000Y-36300000D01*
X98500000Y-34930000D02*
X98500000Y-34700000D01*
X98500000Y-34700000D02*
X98570000Y-34700000D01*
X101500000Y-34930000D02*
X101500000Y-36070000D01*
X98500000Y-36070000D02*
X98500000Y-34930000D01*
D12*
X98580000Y-36900000D02*
G75*
G02*
X98520000Y-36900000I-30000J0D01*
G01*
X98520000Y-36900000D02*
G75*
G02*
X98580000Y-36900000I30000J0D01*
G01*
D13*
%TO.C,C7*%
D11*
X93090000Y-36211252D02*
X93090000Y-34788748D01*
X94910000Y-36211252D02*
X94910000Y-34788748D01*
%TO.C,C8*%
X99359420Y-32010000D02*
X99640580Y-32010000D01*
X99359420Y-30990000D02*
X99640580Y-30990000D01*
%TO.C,L2*%
D15*
X107000000Y-38800000D02*
X114000000Y-38800000D01*
X107000000Y-32200000D02*
X114000000Y-32200000D01*
X107000000Y-32200000D02*
X107000000Y-33520000D01*
X114000000Y-37480000D02*
X114000000Y-38670000D01*
X114000000Y-38670000D02*
X114000000Y-38800000D01*
X114000000Y-32200000D02*
X114000000Y-33520000D01*
X107000000Y-37480000D02*
X107000000Y-38800000D01*
D12*
X107030000Y-38800000D02*
G75*
G02*
X106970000Y-38800000I-30000J0D01*
G01*
X106970000Y-38800000D02*
G75*
G02*
X107030000Y-38800000I30000J0D01*
G01*
%TO.C,C9*%
D11*
X115090000Y-34711252D02*
X115090000Y-33288748D01*
X116910000Y-34711252D02*
X116910000Y-33288748D01*
%TO.C,C10*%
X118090000Y-37711252D02*
X118090000Y-36288748D01*
X119910000Y-37711252D02*
X119910000Y-36288748D01*
%TO.C,U4*%
X92200000Y-16200000D02*
X92200000Y-17000000D01*
X92200000Y-17000000D02*
X93000000Y-17000000D01*
X92400000Y-200000D02*
X105600000Y-200000D01*
X92400000Y-5600000D02*
X105600000Y-5600000D01*
X92400000Y-16800000D02*
X92400000Y-200000D01*
X105600000Y-200000D02*
X105600000Y-16800000D01*
X105600000Y-16800000D02*
X92400000Y-16800000D01*
X105800000Y-16200000D02*
X105800000Y-17000000D01*
X105800000Y-17000000D02*
X105000000Y-17000000D01*
%TO.C,C11*%
X90090000Y-20711252D02*
X90090000Y-19288748D01*
X91910000Y-20711252D02*
X91910000Y-19288748D01*
%TO.C,C12*%
X94510000Y-20140580D02*
X94510000Y-19859420D01*
X93490000Y-20140580D02*
X93490000Y-19859420D01*
%TO.C,R6*%
X101762742Y-21522500D02*
X102237258Y-21522500D01*
X101762742Y-20477500D02*
X102237258Y-20477500D01*
%TO.C,C13*%
X106010000Y-21640580D02*
X106010000Y-21359420D01*
X104990000Y-21640580D02*
X104990000Y-21359420D01*
%TO.C,SW1*%
X110630000Y-24370000D02*
X110630000Y-23970000D01*
X110630000Y-24370000D02*
X115370000Y-24370000D01*
X115370000Y-24370000D02*
X115370000Y-23970000D01*
X115370000Y-23030000D02*
X115370000Y-20970000D01*
X115370000Y-19630000D02*
X115370000Y-20030000D01*
X110630000Y-19630000D02*
X115370000Y-19630000D01*
X110630000Y-23030000D02*
X110630000Y-20970000D01*
X110630000Y-19630000D02*
X110630000Y-20030000D01*
%TO.C,R7*%
X120522500Y-17737258D02*
X120522500Y-17262742D01*
X119477500Y-17737258D02*
X119477500Y-17262742D01*
%TO.C,SW2*%
X121630000Y-24370000D02*
X121630000Y-23970000D01*
X121630000Y-24370000D02*
X126370000Y-24370000D01*
X126370000Y-24370000D02*
X126370000Y-23970000D01*
X126370000Y-23030000D02*
X126370000Y-20970000D01*
X126370000Y-19630000D02*
X126370000Y-20030000D01*
X121630000Y-19630000D02*
X126370000Y-19630000D01*
X121630000Y-23030000D02*
X121630000Y-20970000D01*
X121630000Y-19630000D02*
X121630000Y-20030000D01*
%TO.C,R8*%
X132522500Y-17737258D02*
X132522500Y-17262742D01*
X131477500Y-17737258D02*
X131477500Y-17262742D01*
%TO.C,SW3*%
X133630000Y-24370000D02*
X133630000Y-23970000D01*
X133630000Y-24370000D02*
X138370000Y-24370000D01*
X138370000Y-24370000D02*
X138370000Y-23970000D01*
X138370000Y-23030000D02*
X138370000Y-20970000D01*
X138370000Y-19630000D02*
X138370000Y-20030000D01*
X133630000Y-19630000D02*
X138370000Y-19630000D01*
X133630000Y-23030000D02*
X133630000Y-20970000D01*
X133630000Y-19630000D02*
X133630000Y-20030000D01*
%TO.C,D5*%
X144265000Y-19515000D02*
X144265000Y-21800000D01*
X145735000Y-19515000D02*
X144265000Y-19515000D01*
X145735000Y-21800000D02*
X145735000Y-19515000D01*
%TO.C,R9*%
X145522500Y-17737258D02*
X145522500Y-17262742D01*
X144477500Y-17737258D02*
X144477500Y-17262742D01*
%TO.C,R10*%
X90762742Y-24522500D02*
X91237258Y-24522500D01*
X90762742Y-23477500D02*
X91237258Y-23477500D01*
%TO.C,R11*%
X94762742Y-25522500D02*
X95237258Y-25522500D01*
X94762742Y-24477500D02*
X95237258Y-24477500D01*
%TO.C,C14*%
X98859420Y-25510000D02*
X99140580Y-25510000D01*
X98859420Y-24490000D02*
X99140580Y-24490000D01*
%TO.C,U5*%
D15*
X81250000Y-34300000D02*
X81700000Y-34300000D01*
X81700000Y-34300000D02*
X81700000Y-34750000D01*
X75300000Y-34750000D02*
X75300000Y-34300000D01*
X75300000Y-34300000D02*
X75750000Y-34300000D01*
X75300000Y-40250000D02*
X75300000Y-40700000D01*
X75300000Y-40700000D02*
X75750000Y-40700000D01*
X81250000Y-40700000D02*
X81700000Y-40700000D01*
X81700000Y-40700000D02*
X81700000Y-40250000D01*
D12*
X81530000Y-34500000D02*
G75*
G02*
X81470000Y-34500000I-30000J0D01*
G01*
X81470000Y-34500000D02*
G75*
G02*
X81530000Y-34500000I30000J0D01*
G01*
%TO.C,X1*%
D11*
X77000000Y-46350000D02*
X77000000Y-49650000D01*
X77000000Y-49650000D02*
X81000000Y-49650000D01*
%TO.C,C15*%
X76510000Y-52140580D02*
X76510000Y-51859420D01*
X75490000Y-52140580D02*
X75490000Y-51859420D01*
%TO.C,C16*%
X82510000Y-52140580D02*
X82510000Y-51859420D01*
X81490000Y-52140580D02*
X81490000Y-51859420D01*
%TO.C,R12*%
X75522500Y-27237258D02*
X75522500Y-26762742D01*
X74477500Y-27237258D02*
X74477500Y-26762742D01*
%TO.C,R13*%
X72022500Y-27237258D02*
X72022500Y-26762742D01*
X70977500Y-27237258D02*
X70977500Y-26762742D01*
%TO.C,R14*%
X82522500Y-27237258D02*
X82522500Y-26762742D01*
X81477500Y-27237258D02*
X81477500Y-26762742D01*
%TO.C,R15*%
X85022500Y-27237258D02*
X85022500Y-26762742D01*
X83977500Y-27237258D02*
X83977500Y-26762742D01*
%TO.C,R16*%
X90022500Y-27237258D02*
X90022500Y-26762742D01*
X88977500Y-27237258D02*
X88977500Y-26762742D01*
%TO.C,R17*%
X87522500Y-27237258D02*
X87522500Y-26762742D01*
X86477500Y-27237258D02*
X86477500Y-26762742D01*
%TO.C,C17*%
X84010000Y-32140580D02*
X84010000Y-31859420D01*
X82990000Y-32140580D02*
X82990000Y-31859420D01*
%TO.C,C18*%
X86510000Y-32140580D02*
X86510000Y-31859420D01*
X85490000Y-32140580D02*
X85490000Y-31859420D01*
%TO.C,C19*%
X84510000Y-36640580D02*
X84510000Y-36359420D01*
X83490000Y-36640580D02*
X83490000Y-36359420D01*
%TO.C,C20*%
X89010000Y-32140580D02*
X89010000Y-31859420D01*
X87990000Y-32140580D02*
X87990000Y-31859420D01*
%TO.C,C21*%
X84510000Y-42140580D02*
X84510000Y-41859420D01*
X83490000Y-42140580D02*
X83490000Y-41859420D01*
%TO.C,C22*%
X87510000Y-42140580D02*
X87510000Y-41859420D01*
X86490000Y-42140580D02*
X86490000Y-41859420D01*
%TO.C,C23*%
X84510000Y-46140580D02*
X84510000Y-45859420D01*
X83490000Y-46140580D02*
X83490000Y-45859420D01*
%TO.C,C24*%
X87510000Y-46140580D02*
X87510000Y-45859420D01*
X86490000Y-46140580D02*
X86490000Y-45859420D01*
%TO.C,C25*%
X90510000Y-46140580D02*
X90510000Y-45859420D01*
X89490000Y-46140580D02*
X89490000Y-45859420D01*
%TO.C,C26*%
X70140580Y-37740000D02*
X69859420Y-37740000D01*
X70140580Y-38760000D02*
X69859420Y-38760000D01*
%TO.C,L3*%
X66662779Y-39490000D02*
X66337221Y-39490000D01*
X66662779Y-40510000D02*
X66337221Y-40510000D01*
%TO.C,L4*%
X66662779Y-34490000D02*
X66337221Y-34490000D01*
X66662779Y-35510000D02*
X66337221Y-35510000D01*
%TO.C,C27*%
X63510000Y-44140580D02*
X63510000Y-43859420D01*
X62490000Y-44140580D02*
X62490000Y-43859420D01*
%TO.C,C28*%
X63510000Y-31140580D02*
X63510000Y-30859420D01*
X62490000Y-31140580D02*
X62490000Y-30859420D01*
%TO.C,C29*%
X57840580Y-39490000D02*
X57559420Y-39490000D01*
X57840580Y-40510000D02*
X57559420Y-40510000D01*
%TO.C,C30*%
X57840580Y-34490000D02*
X57559420Y-34490000D01*
X57840580Y-35510000D02*
X57559420Y-35510000D01*
%TO.C,C31*%
X60710000Y-44140580D02*
X60710000Y-43859420D01*
X59690000Y-44140580D02*
X59690000Y-43859420D01*
%TO.C,C32*%
X60710000Y-31140580D02*
X60710000Y-30859420D01*
X59690000Y-31140580D02*
X59690000Y-30859420D01*
%TO.C,C33*%
X57840580Y-41990000D02*
X57559420Y-41990000D01*
X57840580Y-43010000D02*
X57559420Y-43010000D01*
%TO.C,C34*%
X57840580Y-31990000D02*
X57559420Y-31990000D01*
X57840580Y-33010000D02*
X57559420Y-33010000D01*
%TO.C,C35*%
X57510000Y-45640580D02*
X57510000Y-45359420D01*
X56490000Y-45640580D02*
X56490000Y-45359420D01*
%TO.C,C36*%
X57510000Y-29640580D02*
X57510000Y-29359420D01*
X56490000Y-29640580D02*
X56490000Y-29359420D01*
%TO.C,C37*%
X73240580Y-43490000D02*
X72959420Y-43490000D01*
X73240580Y-44510000D02*
X72959420Y-44510000D01*
%TO.C,C38*%
X73240580Y-30490000D02*
X72959420Y-30490000D01*
X73240580Y-31510000D02*
X72959420Y-31510000D01*
%TO.C,R18*%
X54437258Y-39477500D02*
X53962742Y-39477500D01*
X54437258Y-40522500D02*
X53962742Y-40522500D01*
%TO.C,R19*%
X54437258Y-34477500D02*
X53962742Y-34477500D01*
X54437258Y-35522500D02*
X53962742Y-35522500D01*
%TO.C,R20*%
X69937258Y-43477500D02*
X69462742Y-43477500D01*
X69937258Y-44522500D02*
X69462742Y-44522500D01*
%TO.C,R21*%
X69937258Y-30477500D02*
X69462742Y-30477500D01*
X69937258Y-31522500D02*
X69462742Y-31522500D01*
%TO.C,R22*%
X50937258Y-39477500D02*
X50462742Y-39477500D01*
X50937258Y-40522500D02*
X50462742Y-40522500D01*
%TO.C,R23*%
X50937258Y-34477500D02*
X50462742Y-34477500D01*
X50937258Y-35522500D02*
X50462742Y-35522500D01*
%TO.C,R24*%
X51262742Y-52522500D02*
X51737258Y-52522500D01*
X51262742Y-51477500D02*
X51737258Y-51477500D01*
%TO.C,R25*%
X51262742Y-49522500D02*
X51737258Y-49522500D01*
X51262742Y-48477500D02*
X51737258Y-48477500D01*
%TO.C,J3*%
X58500000Y-51830000D02*
X57170000Y-51830000D01*
X62370000Y-51830000D02*
X62370000Y-49170000D01*
X59770000Y-51830000D02*
X62370000Y-51830000D01*
X59770000Y-51830000D02*
X59770000Y-49170000D01*
X57170000Y-51830000D02*
X57170000Y-50500000D01*
X59770000Y-49170000D02*
X62370000Y-49170000D01*
%TO.C,U6*%
D15*
X127100000Y-48950000D02*
X128900000Y-48950000D01*
X127100000Y-52050000D02*
X128900000Y-52050000D01*
D12*
X129430000Y-51950000D02*
G75*
G02*
X129370000Y-51950000I-30000J0D01*
G01*
X129370000Y-51950000D02*
G75*
G02*
X129430000Y-51950000I30000J0D01*
G01*
D15*
X129520000Y-52150000D02*
G75*
G02*
X129280000Y-52150000I-120000J0D01*
G01*
X129280000Y-52150000D02*
G75*
G02*
X129520000Y-52150000I120000J0D01*
G01*
%TO.C,C39*%
D11*
X121090000Y-49711252D02*
X121090000Y-48288748D01*
X122910000Y-49711252D02*
X122910000Y-48288748D01*
%TO.C,C40*%
X125010000Y-44140580D02*
X125010000Y-43859420D01*
X123990000Y-44140580D02*
X123990000Y-43859420D01*
%TO.C,R26*%
X123762742Y-37522500D02*
X124237258Y-37522500D01*
X123762742Y-36477500D02*
X124237258Y-36477500D01*
%TO.C,R27*%
X127762742Y-37522500D02*
X128237258Y-37522500D01*
X127762742Y-36477500D02*
X128237258Y-36477500D01*
%TO.C,C41*%
X131859420Y-46010000D02*
X132140580Y-46010000D01*
X131859420Y-44990000D02*
X132140580Y-44990000D01*
%TO.C,L5*%
D15*
X133500000Y-53800000D02*
X140500000Y-53800000D01*
X133500000Y-47200000D02*
X140500000Y-47200000D01*
X133500000Y-47200000D02*
X133500000Y-48520000D01*
X140500000Y-52480000D02*
X140500000Y-53670000D01*
X140500000Y-53670000D02*
X140500000Y-53800000D01*
X140500000Y-47200000D02*
X140500000Y-48520000D01*
X133500000Y-52480000D02*
X133500000Y-53800000D01*
D12*
X133530000Y-53800000D02*
G75*
G02*
X133470000Y-53800000I-30000J0D01*
G01*
X133470000Y-53800000D02*
G75*
G02*
X133530000Y-53800000I30000J0D01*
G01*
%TO.C,R28*%
D11*
X137522500Y-42237258D02*
X137522500Y-41762742D01*
X136477500Y-42237258D02*
X136477500Y-41762742D01*
%TO.C,R29*%
X143522500Y-37237258D02*
X143522500Y-36762742D01*
X142477500Y-37237258D02*
X142477500Y-36762742D01*
%TO.C,C42*%
X142090000Y-54211252D02*
X142090000Y-52788748D01*
X143910000Y-54211252D02*
X143910000Y-52788748D01*
%TO.C,C43*%
X145090000Y-57711252D02*
X145090000Y-56288748D01*
X146910000Y-57711252D02*
X146910000Y-56288748D01*
%TO.C,C44*%
D10*
X140200000Y-65780000D02*
X140200000Y-69230000D01*
X140200000Y-69230000D02*
X133540000Y-69230000D01*
X133540000Y-69230000D02*
X131800000Y-67490000D01*
X131800000Y-67490000D02*
X131800000Y-65780000D01*
X140200000Y-64220000D02*
X140200000Y-60770000D01*
X140200000Y-60770000D02*
X133540000Y-60770000D01*
X133540000Y-60770000D02*
X131800000Y-62510000D01*
X131800000Y-62510000D02*
X131800000Y-64220000D01*
D12*
X131510000Y-69150000D02*
G75*
G02*
X131450000Y-69150000I-30000J0D01*
G01*
X131450000Y-69150000D02*
G75*
G02*
X131510000Y-69150000I30000J0D01*
G01*
D13*
G36*
X139875989Y-67033499D02*
G01*
X138880004Y-67033499D01*
X138880004Y-66784502D01*
X139875989Y-66784502D01*
X139875989Y-67033499D01*
G37*
G36*
X133119996Y-67033499D02*
G01*
X132124011Y-67033499D01*
X132124011Y-66784502D01*
X133119996Y-66784502D01*
X133119996Y-67033499D01*
G37*
G36*
X132746489Y-67739009D02*
G01*
X132497492Y-67739009D01*
X132497492Y-66078992D01*
X132746489Y-66078992D01*
X132746489Y-67739009D01*
G37*
%TO.C,C45*%
D11*
X138859420Y-38510000D02*
X139140580Y-38510000D01*
X138859420Y-37490000D02*
X139140580Y-37490000D01*
%TO.C,R30*%
X135762742Y-33522500D02*
X136237258Y-33522500D01*
X135762742Y-32477500D02*
X136237258Y-32477500D01*
%TO.C,R31*%
X141522500Y-33237258D02*
X141522500Y-32762742D01*
X140477500Y-33237258D02*
X140477500Y-32762742D01*
%TO.C,F2*%
D10*
X123710000Y-67200000D02*
X123710000Y-70760000D01*
X129290000Y-67220000D02*
X129290000Y-70780000D01*
X125230000Y-71030000D02*
X123960000Y-71030000D01*
X127770000Y-71030000D02*
X129040000Y-71030000D01*
X123960000Y-66970000D02*
X125270000Y-66970000D01*
X129040000Y-66970000D02*
X127770000Y-66970000D01*
D12*
X124250000Y-70620000D02*
G75*
G02*
X124190000Y-70620000I-30000J0D01*
G01*
X124190000Y-70620000D02*
G75*
G02*
X124250000Y-70620000I30000J0D01*
G01*
%TO.C,J4*%
D11*
X149410000Y-45330000D02*
X149410000Y-42670000D01*
X144270000Y-45330000D02*
X149410000Y-45330000D01*
X143000000Y-45330000D02*
X141670000Y-45330000D01*
X144270000Y-42670000D02*
X149410000Y-42670000D01*
X141670000Y-45330000D02*
X141670000Y-44000000D01*
X144270000Y-45330000D02*
X144270000Y-42670000D01*
%TO.C,TP1*%
X83700000Y-22000000D02*
G75*
G02*
X82300000Y-22000000I-700000J0D01*
G01*
X82300000Y-22000000D02*
G75*
G02*
X83700000Y-22000000I700000J0D01*
G01*
%TO.C,TP2*%
X86700000Y-22000000D02*
G75*
G02*
X85300000Y-22000000I-700000J0D01*
G01*
X85300000Y-22000000D02*
G75*
G02*
X86700000Y-22000000I700000J0D01*
G01*
%TO.C,TP3*%
X88700000Y-24000000D02*
G75*
G02*
X87300000Y-24000000I-700000J0D01*
G01*
X87300000Y-24000000D02*
G75*
G02*
X88700000Y-24000000I700000J0D01*
G01*
%TO.C,TP4*%
X92700000Y-29000000D02*
G75*
G02*
X91300000Y-29000000I-700000J0D01*
G01*
X91300000Y-29000000D02*
G75*
G02*
X92700000Y-29000000I700000J0D01*
G01*
%TO.C,TP5*%
X96700000Y-29000000D02*
G75*
G02*
X95300000Y-29000000I-700000J0D01*
G01*
X95300000Y-29000000D02*
G75*
G02*
X96700000Y-29000000I700000J0D01*
G01*
%TO.C,TP6*%
X100700000Y-29000000D02*
G75*
G02*
X99300000Y-29000000I-700000J0D01*
G01*
X99300000Y-29000000D02*
G75*
G02*
X100700000Y-29000000I700000J0D01*
G01*
%TO.C,TP7*%
X84700000Y-57000000D02*
G75*
G02*
X83300000Y-57000000I-700000J0D01*
G01*
X83300000Y-57000000D02*
G75*
G02*
X84700000Y-57000000I700000J0D01*
G01*
%TO.C,TP8*%
X87700000Y-57000000D02*
G75*
G02*
X86300000Y-57000000I-700000J0D01*
G01*
X86300000Y-57000000D02*
G75*
G02*
X87700000Y-57000000I700000J0D01*
G01*
%TO.C,TP9*%
X90700000Y-57000000D02*
G75*
G02*
X89300000Y-57000000I-700000J0D01*
G01*
X89300000Y-57000000D02*
G75*
G02*
X90700000Y-57000000I700000J0D01*
G01*
%TO.C,TP10*%
X103700000Y-29000000D02*
G75*
G02*
X102300000Y-29000000I-700000J0D01*
G01*
X102300000Y-29000000D02*
G75*
G02*
X103700000Y-29000000I700000J0D01*
G01*
%TO.C,TP11*%
X106700000Y-29000000D02*
G75*
G02*
X105300000Y-29000000I-700000J0D01*
G01*
X105300000Y-29000000D02*
G75*
G02*
X106700000Y-29000000I700000J0D01*
G01*
%TO.C,TP12*%
X97200000Y-23000000D02*
G75*
G02*
X95800000Y-23000000I-700000J0D01*
G01*
X95800000Y-23000000D02*
G75*
G02*
X97200000Y-23000000I700000J0D01*
G01*
%TD*%
%LPC*%
D17*
%TO.C,J1*%
X87500000Y-69000000D03*
D18*
X92580000Y-69000000D03*
%TD*%
D19*
%TO.C,F1*%
X99350000Y-62000000D03*
X95650000Y-62000000D03*
%TD*%
D20*
%TO.C,D1*%
X103500000Y-59640000D03*
X103500000Y-64360000D03*
%TD*%
D21*
%TO.C,Q1*%
X109900000Y-65400000D03*
X108630000Y-65400000D03*
X107370000Y-65400000D03*
X106100000Y-65400000D03*
X109900000Y-70600000D03*
X108630000Y-70600000D03*
X107370000Y-70600000D03*
X106100000Y-70600000D03*
%TD*%
D22*
%TO.C,R1*%
X113675000Y-59000000D03*
X115325000Y-59000000D03*
%TD*%
D23*
%TO.C,D2*%
X110000000Y-60300000D03*
X110000000Y-63700000D03*
%TD*%
D24*
%TO.C,C1*%
X114000000Y-69475000D03*
X114000000Y-66525000D03*
%TD*%
D25*
%TO.C,C2*%
X102425000Y-54700000D03*
X103975000Y-54700000D03*
%TD*%
D26*
%TO.C,U1*%
X99050000Y-52300000D03*
X100950000Y-52300000D03*
X100950000Y-54700000D03*
X100000000Y-54700000D03*
X99050000Y-54700000D03*
X100000000Y-52300000D03*
%TD*%
D27*
%TO.C,C3*%
X94000000Y-54975000D03*
X94000000Y-52025000D03*
%TD*%
D25*
%TO.C,C4*%
X104225000Y-49000000D03*
X105775000Y-49000000D03*
%TD*%
D28*
%TO.C,L1*%
X107600000Y-53500000D03*
X113400000Y-53500000D03*
%TD*%
D27*
%TO.C,C5*%
X116000000Y-52475000D03*
X116000000Y-49525000D03*
%TD*%
%TO.C,C6*%
X119000000Y-56975000D03*
X119000000Y-54025000D03*
%TD*%
D29*
%TO.C,D3*%
X122700000Y-45500000D03*
X119300000Y-45500000D03*
%TD*%
D30*
%TO.C,J2*%
X135750000Y-7770000D03*
X135250000Y-7770000D03*
X134750000Y-7770000D03*
X134250000Y-7770000D03*
X133750000Y-7770000D03*
X133250000Y-7770000D03*
X132750000Y-7770000D03*
X132250000Y-7770000D03*
D31*
X137200000Y-7770000D03*
D32*
X130800000Y-7770000D03*
X131600000Y-7770000D03*
D33*
X136400000Y-7770000D03*
D34*
X129670000Y-2830000D03*
D35*
X129670000Y-7010000D03*
X138330000Y-7010000D03*
D34*
X138330000Y-2830000D03*
D36*
X136900000Y-6510000D03*
X131100000Y-6510000D03*
%TD*%
D37*
%TO.C,R2*%
X140000000Y-12825000D03*
X140000000Y-11175000D03*
%TD*%
%TO.C,R3*%
X143000000Y-12825000D03*
X143000000Y-11175000D03*
%TD*%
D38*
%TO.C,U2*%
X123350000Y-10050000D03*
X123350000Y-11000000D03*
X123350000Y-11950000D03*
X120650000Y-11950000D03*
X120650000Y-11000000D03*
X120650000Y-10050000D03*
%TD*%
D22*
%TO.C,R4*%
X115175000Y-9500000D03*
X116825000Y-9500000D03*
%TD*%
%TO.C,R5*%
X115175000Y-14000000D03*
X116825000Y-14000000D03*
%TD*%
D29*
%TO.C,D4*%
X123700000Y-28500000D03*
X120300000Y-28500000D03*
%TD*%
D39*
%TO.C,U3*%
X99050000Y-34300000D03*
X100000000Y-34300000D03*
X100950000Y-34300000D03*
X100950000Y-36700000D03*
X100000000Y-36700000D03*
X99050000Y-36700000D03*
%TD*%
D27*
%TO.C,C7*%
X94000000Y-36975000D03*
X94000000Y-34025000D03*
%TD*%
D25*
%TO.C,C8*%
X98725000Y-31500000D03*
X100275000Y-31500000D03*
%TD*%
D28*
%TO.C,L2*%
X107600000Y-35500000D03*
X113400000Y-35500000D03*
%TD*%
D27*
%TO.C,C9*%
X116000000Y-35475000D03*
X116000000Y-32525000D03*
%TD*%
%TO.C,C10*%
X119000000Y-38475000D03*
X119000000Y-35525000D03*
%TD*%
D40*
%TO.C,U4*%
X93100000Y-7200000D03*
X93100000Y-8000000D03*
X93100000Y-8800000D03*
X93100000Y-9600000D03*
X93100000Y-10400000D03*
X93100000Y-11200000D03*
X93100000Y-12000000D03*
X93100000Y-12800000D03*
X93100000Y-13600000D03*
X93100000Y-14400000D03*
X93100000Y-15200000D03*
D41*
X94200000Y-16100000D03*
X95000000Y-16100000D03*
X95800000Y-16100000D03*
X96600000Y-16100000D03*
X97400000Y-16100000D03*
X98200000Y-16100000D03*
X99000000Y-16100000D03*
X99800000Y-16100000D03*
X100600000Y-16100000D03*
X101400000Y-16100000D03*
X102200000Y-16100000D03*
X103000000Y-16100000D03*
X103800000Y-16100000D03*
D40*
X104900000Y-15200000D03*
X104900000Y-14400000D03*
X104900000Y-13600000D03*
X104900000Y-12800000D03*
X104900000Y-12000000D03*
X104900000Y-11200000D03*
X104900000Y-10400000D03*
X104900000Y-9600000D03*
X104900000Y-8800000D03*
X104900000Y-8000000D03*
X104900000Y-7200000D03*
D41*
X103800000Y-6300000D03*
X103000000Y-6300000D03*
X102200000Y-6300000D03*
X101400000Y-6300000D03*
X100600000Y-6300000D03*
X99800000Y-6300000D03*
X99000000Y-6300000D03*
X98200000Y-6300000D03*
X97400000Y-6300000D03*
X96600000Y-6300000D03*
X95800000Y-6300000D03*
X95000000Y-6300000D03*
X94200000Y-6300000D03*
D42*
X97025000Y-9225000D03*
D43*
X97025000Y-11200000D03*
X97025000Y-13175000D03*
X99000000Y-9225000D03*
X99000000Y-11200000D03*
X99000000Y-13175000D03*
X100975000Y-9225000D03*
X100975000Y-11200000D03*
X100975000Y-13175000D03*
D44*
X104950000Y-6250000D03*
X104950000Y-16150000D03*
X93050000Y-16150000D03*
X93050000Y-6250000D03*
%TD*%
D27*
%TO.C,C11*%
X91000000Y-21475000D03*
X91000000Y-18525000D03*
%TD*%
D45*
%TO.C,C12*%
X94000000Y-20775000D03*
X94000000Y-19225000D03*
%TD*%
D22*
%TO.C,R6*%
X101175000Y-21000000D03*
X102825000Y-21000000D03*
%TD*%
D45*
%TO.C,C13*%
X105500000Y-22275000D03*
X105500000Y-20725000D03*
%TD*%
D46*
%TO.C,SW1*%
X116600000Y-20500000D03*
X109400000Y-20500000D03*
X116600000Y-23500000D03*
X109400000Y-23500000D03*
%TD*%
D37*
%TO.C,R7*%
X120000000Y-18325000D03*
X120000000Y-16675000D03*
%TD*%
D46*
%TO.C,SW2*%
X127600000Y-20500000D03*
X120400000Y-20500000D03*
X127600000Y-23500000D03*
X120400000Y-23500000D03*
%TD*%
D37*
%TO.C,R8*%
X132000000Y-18325000D03*
X132000000Y-16675000D03*
%TD*%
D46*
%TO.C,SW3*%
X139600000Y-20500000D03*
X132400000Y-20500000D03*
X139600000Y-23500000D03*
X132400000Y-23500000D03*
%TD*%
D47*
%TO.C,D5*%
X145000000Y-20212500D03*
X145000000Y-21787500D03*
%TD*%
D37*
%TO.C,R9*%
X145000000Y-18325000D03*
X145000000Y-16675000D03*
%TD*%
D22*
%TO.C,R10*%
X90175000Y-24000000D03*
X91825000Y-24000000D03*
%TD*%
%TO.C,R11*%
X94175000Y-25000000D03*
X95825000Y-25000000D03*
%TD*%
D25*
%TO.C,C14*%
X98225000Y-25000000D03*
X99775000Y-25000000D03*
%TD*%
D48*
%TO.C,U5*%
X80750000Y-34450000D03*
X80250000Y-34450000D03*
X79750000Y-34450000D03*
X79250000Y-34450000D03*
X78750000Y-34450000D03*
X78250000Y-34450000D03*
X77750000Y-34450000D03*
X77250000Y-34450000D03*
X76750000Y-34450000D03*
X76250000Y-34450000D03*
D49*
X75450000Y-35250000D03*
X75450000Y-35750000D03*
X75450000Y-36250000D03*
X75450000Y-36750000D03*
X75450000Y-37250000D03*
X75450000Y-37750000D03*
X75450000Y-38250000D03*
X75450000Y-38750000D03*
X75450000Y-39250000D03*
X75450000Y-39750000D03*
D48*
X76250000Y-40550000D03*
X76750000Y-40550000D03*
X77250000Y-40550000D03*
X77750000Y-40550000D03*
X78250000Y-40550000D03*
X78750000Y-40550000D03*
X79250000Y-40550000D03*
X79750000Y-40550000D03*
X80250000Y-40550000D03*
X80750000Y-40550000D03*
D49*
X81550000Y-39750000D03*
X81550000Y-39250000D03*
X81550000Y-38750000D03*
X81550000Y-38250000D03*
X81550000Y-37750000D03*
X81550000Y-37250000D03*
X81550000Y-36750000D03*
X81550000Y-36250000D03*
X81550000Y-35750000D03*
X81550000Y-35250000D03*
D50*
X78500000Y-37500000D03*
%TD*%
D51*
%TO.C,X1*%
X77900000Y-48850000D03*
X80100000Y-48850000D03*
X80100000Y-47150000D03*
X77900000Y-47150000D03*
%TD*%
D45*
%TO.C,C15*%
X76000000Y-52775000D03*
X76000000Y-51225000D03*
%TD*%
%TO.C,C16*%
X82000000Y-52775000D03*
X82000000Y-51225000D03*
%TD*%
D37*
%TO.C,R12*%
X75000000Y-27825000D03*
X75000000Y-26175000D03*
%TD*%
%TO.C,R13*%
X71500000Y-27825000D03*
X71500000Y-26175000D03*
%TD*%
%TO.C,R14*%
X82000000Y-27825000D03*
X82000000Y-26175000D03*
%TD*%
%TO.C,R15*%
X84500000Y-27825000D03*
X84500000Y-26175000D03*
%TD*%
%TO.C,R16*%
X89500000Y-27825000D03*
X89500000Y-26175000D03*
%TD*%
%TO.C,R17*%
X87000000Y-27825000D03*
X87000000Y-26175000D03*
%TD*%
D45*
%TO.C,C17*%
X83500000Y-32775000D03*
X83500000Y-31225000D03*
%TD*%
%TO.C,C18*%
X86000000Y-32775000D03*
X86000000Y-31225000D03*
%TD*%
%TO.C,C19*%
X84000000Y-37275000D03*
X84000000Y-35725000D03*
%TD*%
%TO.C,C20*%
X88500000Y-32775000D03*
X88500000Y-31225000D03*
%TD*%
%TO.C,C21*%
X84000000Y-42775000D03*
X84000000Y-41225000D03*
%TD*%
%TO.C,C22*%
X87000000Y-42775000D03*
X87000000Y-41225000D03*
%TD*%
%TO.C,C23*%
X84000000Y-46775000D03*
X84000000Y-45225000D03*
%TD*%
%TO.C,C24*%
X87000000Y-46775000D03*
X87000000Y-45225000D03*
%TD*%
%TO.C,C25*%
X90000000Y-46775000D03*
X90000000Y-45225000D03*
%TD*%
D52*
%TO.C,C26*%
X70775000Y-38250000D03*
X69225000Y-38250000D03*
%TD*%
D53*
%TO.C,L3*%
X67287500Y-40000000D03*
X65712500Y-40000000D03*
%TD*%
%TO.C,L4*%
X67287500Y-35000000D03*
X65712500Y-35000000D03*
%TD*%
D45*
%TO.C,C27*%
X63000000Y-44775000D03*
X63000000Y-43225000D03*
%TD*%
%TO.C,C28*%
X63000000Y-31775000D03*
X63000000Y-30225000D03*
%TD*%
D52*
%TO.C,C29*%
X58475000Y-40000000D03*
X56925000Y-40000000D03*
%TD*%
%TO.C,C30*%
X58475000Y-35000000D03*
X56925000Y-35000000D03*
%TD*%
D45*
%TO.C,C31*%
X60200000Y-44775000D03*
X60200000Y-43225000D03*
%TD*%
%TO.C,C32*%
X60200000Y-31775000D03*
X60200000Y-30225000D03*
%TD*%
D52*
%TO.C,C33*%
X58475000Y-42500000D03*
X56925000Y-42500000D03*
%TD*%
%TO.C,C34*%
X58475000Y-32500000D03*
X56925000Y-32500000D03*
%TD*%
D45*
%TO.C,C35*%
X57000000Y-46275000D03*
X57000000Y-44725000D03*
%TD*%
%TO.C,C36*%
X57000000Y-30275000D03*
X57000000Y-28725000D03*
%TD*%
D52*
%TO.C,C37*%
X73875000Y-44000000D03*
X72325000Y-44000000D03*
%TD*%
%TO.C,C38*%
X73875000Y-31000000D03*
X72325000Y-31000000D03*
%TD*%
D54*
%TO.C,R18*%
X55025000Y-40000000D03*
X53375000Y-40000000D03*
%TD*%
%TO.C,R19*%
X55025000Y-35000000D03*
X53375000Y-35000000D03*
%TD*%
%TO.C,R20*%
X70525000Y-44000000D03*
X68875000Y-44000000D03*
%TD*%
%TO.C,R21*%
X70525000Y-31000000D03*
X68875000Y-31000000D03*
%TD*%
%TO.C,R22*%
X51525000Y-40000000D03*
X49875000Y-40000000D03*
%TD*%
%TO.C,R23*%
X51525000Y-35000000D03*
X49875000Y-35000000D03*
%TD*%
D22*
%TO.C,R24*%
X50675000Y-52000000D03*
X52325000Y-52000000D03*
%TD*%
%TO.C,R25*%
X50675000Y-49000000D03*
X52325000Y-49000000D03*
%TD*%
D55*
%TO.C,J3*%
X58500000Y-50500000D03*
D56*
X61040000Y-50500000D03*
%TD*%
D57*
%TO.C,AE1*%
X48000000Y-35000000D03*
D58*
X42200000Y-55400000D03*
X48000000Y-40000000D03*
%TD*%
D38*
%TO.C,U6*%
X129350000Y-49550000D03*
X129350000Y-50500000D03*
X129350000Y-51450000D03*
X126650000Y-51450000D03*
X126650000Y-50500000D03*
X126650000Y-49550000D03*
%TD*%
D27*
%TO.C,C39*%
X122000000Y-50475000D03*
X122000000Y-47525000D03*
%TD*%
D45*
%TO.C,C40*%
X124500000Y-44775000D03*
X124500000Y-43225000D03*
%TD*%
D22*
%TO.C,R26*%
X123175000Y-37000000D03*
X124825000Y-37000000D03*
%TD*%
%TO.C,R27*%
X127175000Y-37000000D03*
X128825000Y-37000000D03*
%TD*%
D25*
%TO.C,C41*%
X131225000Y-45500000D03*
X132775000Y-45500000D03*
%TD*%
D28*
%TO.C,L5*%
X134100000Y-50500000D03*
X139900000Y-50500000D03*
%TD*%
D37*
%TO.C,R28*%
X137000000Y-42825000D03*
X137000000Y-41175000D03*
%TD*%
%TO.C,R29*%
X143000000Y-37825000D03*
X143000000Y-36175000D03*
%TD*%
D27*
%TO.C,C42*%
X143000000Y-54975000D03*
X143000000Y-52025000D03*
%TD*%
%TO.C,C43*%
X146000000Y-58475000D03*
X146000000Y-55525000D03*
%TD*%
D59*
%TO.C,C44*%
X132730000Y-65000000D03*
X139270000Y-65000000D03*
%TD*%
D25*
%TO.C,C45*%
X138225000Y-38000000D03*
X139775000Y-38000000D03*
%TD*%
D22*
%TO.C,R30*%
X135175000Y-33000000D03*
X136825000Y-33000000D03*
%TD*%
D37*
%TO.C,R31*%
X141000000Y-33825000D03*
X141000000Y-32175000D03*
%TD*%
D19*
%TO.C,F2*%
X128350000Y-69000000D03*
X124650000Y-69000000D03*
%TD*%
D55*
%TO.C,J4*%
X143000000Y-44000000D03*
D56*
X145540000Y-44000000D03*
X148080000Y-44000000D03*
%TD*%
D60*
%TO.C,TP1*%
X83000000Y-22000000D03*
%TD*%
%TO.C,TP2*%
X86000000Y-22000000D03*
%TD*%
%TO.C,TP3*%
X88000000Y-24000000D03*
%TD*%
%TO.C,TP4*%
X92000000Y-29000000D03*
%TD*%
%TO.C,TP5*%
X96000000Y-29000000D03*
%TD*%
%TO.C,TP6*%
X100000000Y-29000000D03*
%TD*%
%TO.C,TP7*%
X84000000Y-57000000D03*
%TD*%
%TO.C,TP8*%
X87000000Y-57000000D03*
%TD*%
%TO.C,TP9*%
X90000000Y-57000000D03*
%TD*%
%TO.C,TP10*%
X103000000Y-29000000D03*
%TD*%
%TO.C,TP11*%
X106000000Y-29000000D03*
%TD*%
%TO.C,TP12*%
X96500000Y-23000000D03*
%TD*%
D61*
%TO.C,H1*%
X4000000Y-4000000D03*
%TD*%
%TO.C,H2*%
X146000000Y-4000000D03*
%TD*%
%TO.C,H3*%
X4000000Y-71000000D03*
%TD*%
%TO.C,H4*%
X146000000Y-71000000D03*
%TD*%
%LPD*%
M02*
